<?xml version="1.0" encoding="utf-8" standalone="no"?>
<!DOCTYPE svg PUBLIC "-//W3C//DTD SVG 1.1//EN"
  "http://www.w3.org/Graphics/SVG/1.1/DTD/svg11.dtd">
<svg xmlns:xlink="http://www.w3.org/1999/xlink" width="288pt" height="273.6pt" viewBox="0 0 288 273.6" xmlns="http://www.w3.org/2000/svg" version="1.1">
 <metadata>
  <rdf:RDF xmlns:dc="http://purl.org/dc/elements/1.1/" xmlns:cc="http://creativecommons.org/ns#" xmlns:rdf="http://www.w3.org/1999/02/22-rdf-syntax-ns#">
   <cc:Work>
    <dc:type rdf:resource="http://purl.org/dc/dcmitype/StillImage"/>
    <dc:date>2024-10-30T11:13:53.840474</dc:date>
    <dc:format>image/svg+xml</dc:format>
    <dc:creator>
     <cc:Agent>
      <dc:title>Matplotlib v3.9.2, https://matplotlib.org/</dc:title>
     </cc:Agent>
    </dc:creator>
   </cc:Work>
  </rdf:RDF>
 </metadata>
 <defs>
  <style type="text/css">*{stroke-linejoin: round; stroke-linecap: butt}</style>
 </defs>
 <g id="figure_1">
  <g id="patch_1">
   <path d="M 0 273.6 
L 288 273.6 
L 288 0 
L 0 0 
z
" style="fill: #ffffff"/>
  </g>
  <g id="axes_1">
   <g id="patch_2">
    <path d="M 62.204133 232.981683 
L 277.2 232.981683 
L 277.2 10.8 
L 62.204133 10.8 
z
" style="fill: #ffffff"/>
   </g>
   <g id="matplotlib.axis_1">
    <g id="xtick_1">
     <g id="line2d_1">
      <path d="M 71.976673 232.981683 
L 71.976673 10.8 
" clip-path="url(#p03959b8cf7)" style="fill: none; stroke: #b0b0b0; stroke-width: 0.8; stroke-linecap: square"/>
     </g>
     <g id="line2d_2">
      <defs>
       <path id="mbb30fc6350" d="M 0 0 
L 0 3.5 
" style="stroke: #000000; stroke-width: 0.8"/>
      </defs>
      <g>
       <use xlink:href="#mbb30fc6350" x="71.976673" y="232.981683" style="stroke: #000000; stroke-width: 0.8"/>
      </g>
     </g>
     <g id="text_1">
      <!-- $\mathdefault{0}$ -->
      <g transform="translate(69.486005 246.900182) scale(0.1 -0.1)">
       <defs>
        <path id="CMR17-30" d="M 2688 2025 
C 2688 2416 2682 3080 2413 3591 
C 2176 4039 1798 4198 1466 4198 
C 1158 4198 768 4058 525 3597 
C 269 3118 243 2524 243 2025 
C 243 1661 250 1106 448 619 
C 723 -39 1216 -128 1466 -128 
C 1760 -128 2208 -7 2470 600 
C 2662 1042 2688 1559 2688 2025 
z
M 1466 -26 
C 1056 -26 813 325 723 812 
C 653 1188 653 1738 653 2096 
C 653 2588 653 2997 736 3387 
C 858 3929 1216 4096 1466 4096 
C 1728 4096 2067 3923 2189 3400 
C 2272 3036 2278 2607 2278 2096 
C 2278 1680 2278 1169 2202 792 
C 2067 95 1690 -26 1466 -26 
z
" transform="scale(0.015625)"/>
       </defs>
       <use xlink:href="#CMR17-30" transform="scale(0.996264)"/>
      </g>
     </g>
    </g>
    <g id="xtick_2">
     <g id="line2d_3">
      <path d="M 127.819755 232.981683 
L 127.819755 10.8 
" clip-path="url(#p03959b8cf7)" style="fill: none; stroke: #b0b0b0; stroke-width: 0.8; stroke-linecap: square"/>
     </g>
     <g id="line2d_4">
      <g>
       <use xlink:href="#mbb30fc6350" x="127.819755" y="232.981683" style="stroke: #000000; stroke-width: 0.8"/>
      </g>
     </g>
     <g id="text_2">
      <!-- $\mathdefault{10}$ -->
      <g transform="translate(122.83842 246.900182) scale(0.1 -0.1)">
       <defs>
        <path id="CMR17-31" d="M 1702 4058 
C 1702 4192 1696 4192 1606 4192 
C 1357 3916 979 3827 621 3827 
C 602 3827 570 3827 563 3808 
C 557 3795 557 3782 557 3648 
C 755 3648 1088 3686 1344 3839 
L 1344 461 
C 1344 236 1331 160 781 160 
L 589 160 
L 589 0 
C 896 0 1216 0 1523 0 
C 1830 0 2150 0 2458 0 
L 2458 160 
L 2266 160 
C 1715 160 1702 230 1702 458 
L 1702 4058 
z
" transform="scale(0.015625)"/>
       </defs>
       <use xlink:href="#CMR17-31" transform="scale(0.996264)"/>
       <use xlink:href="#CMR17-30" transform="translate(45.690477 0) scale(0.996264)"/>
      </g>
     </g>
    </g>
    <g id="xtick_3">
     <g id="line2d_5">
      <path d="M 183.662837 232.981683 
L 183.662837 10.8 
" clip-path="url(#p03959b8cf7)" style="fill: none; stroke: #b0b0b0; stroke-width: 0.8; stroke-linecap: square"/>
     </g>
     <g id="line2d_6">
      <g>
       <use xlink:href="#mbb30fc6350" x="183.662837" y="232.981683" style="stroke: #000000; stroke-width: 0.8"/>
      </g>
     </g>
     <g id="text_3">
      <!-- $\mathdefault{20}$ -->
      <g transform="translate(178.681502 246.900182) scale(0.1 -0.1)">
       <defs>
        <path id="CMR17-32" d="M 2669 989 
L 2554 989 
C 2490 536 2438 459 2413 420 
C 2381 369 1920 369 1830 369 
L 602 369 
C 832 619 1280 1072 1824 1597 
C 2214 1967 2669 2402 2669 3035 
C 2669 3790 2067 4224 1395 4224 
C 691 4224 262 3604 262 3030 
C 262 2780 448 2748 525 2748 
C 589 2748 781 2787 781 3010 
C 781 3207 614 3264 525 3264 
C 486 3264 448 3258 422 3245 
C 544 3790 915 4058 1306 4058 
C 1862 4058 2227 3617 2227 3035 
C 2227 2479 1901 2000 1536 1584 
L 262 146 
L 262 0 
L 2515 0 
L 2669 989 
z
" transform="scale(0.015625)"/>
       </defs>
       <use xlink:href="#CMR17-32" transform="scale(0.996264)"/>
       <use xlink:href="#CMR17-30" transform="translate(45.690477 0) scale(0.996264)"/>
      </g>
     </g>
    </g>
    <g id="xtick_4">
     <g id="line2d_7">
      <path d="M 239.505919 232.981683 
L 239.505919 10.8 
" clip-path="url(#p03959b8cf7)" style="fill: none; stroke: #b0b0b0; stroke-width: 0.8; stroke-linecap: square"/>
     </g>
     <g id="line2d_8">
      <g>
       <use xlink:href="#mbb30fc6350" x="239.505919" y="232.981683" style="stroke: #000000; stroke-width: 0.8"/>
      </g>
     </g>
     <g id="text_4">
      <!-- $\mathdefault{30}$ -->
      <g transform="translate(234.524584 246.900182) scale(0.1 -0.1)">
       <defs>
        <path id="CMR17-33" d="M 1414 2157 
C 1984 2157 2234 1662 2234 1090 
C 2234 320 1824 25 1453 25 
C 1114 25 563 194 390 693 
C 422 680 454 680 486 680 
C 640 680 755 782 755 948 
C 755 1133 614 1216 486 1216 
C 378 1216 211 1165 211 926 
C 211 335 787 -128 1466 -128 
C 2176 -128 2720 430 2720 1085 
C 2720 1707 2208 2157 1600 2227 
C 2086 2328 2554 2756 2554 3329 
C 2554 3820 2048 4179 1472 4179 
C 890 4179 378 3829 378 3329 
C 378 3110 544 3072 627 3072 
C 762 3072 877 3155 877 3321 
C 877 3486 762 3569 627 3569 
C 602 3569 570 3569 544 3557 
C 730 3959 1235 4032 1459 4032 
C 1683 4032 2106 3925 2106 3320 
C 2106 3143 2080 2828 1862 2550 
C 1670 2304 1453 2304 1242 2284 
C 1210 2284 1062 2269 1037 2269 
C 992 2263 966 2257 966 2208 
C 966 2163 973 2157 1101 2157 
L 1414 2157 
z
" transform="scale(0.015625)"/>
       </defs>
       <use xlink:href="#CMR17-33" transform="scale(0.996264)"/>
       <use xlink:href="#CMR17-30" transform="translate(45.690477 0) scale(0.996264)"/>
      </g>
     </g>
    </g>
    <g id="text_5">
     <!-- Time $t$ [s] -->
     <g transform="translate(148.503759 260.30934) scale(0.1 -0.1)">
      <defs>
       <path id="CMR17-54" d="M 3981 4326 
L 288 4326 
L 179 2918 
L 294 2918 
C 378 3976 467 4160 1453 4160 
C 1568 4160 1754 4160 1805 4154 
C 1926 4135 1926 4058 1926 3912 
L 1926 459 
C 1926 230 1907 160 1376 160 
L 1197 160 
L 1197 0 
C 1504 0 1824 0 2138 0 
C 2451 0 2771 0 3078 0 
L 3078 160 
L 2899 160 
C 2368 160 2349 230 2349 459 
L 2349 3912 
C 2349 4052 2349 4129 2464 4154 
C 2515 4160 2701 4160 2816 4160 
C 3795 4160 3891 3976 3974 2918 
L 4090 2918 
L 3981 4326 
z
" transform="scale(0.015625)"/>
       <path id="CMR17-69" d="M 992 3909 
C 992 4049 877 4170 730 4170 
C 589 4170 467 4056 467 3909 
C 467 3769 582 3648 730 3648 
C 870 3648 992 3763 992 3909 
z
M 243 2706 
L 243 2541 
C 602 2541 653 2502 653 2197 
L 653 427 
C 653 184 627 153 218 153 
L 218 -13 
C 371 0 646 0 806 0 
C 960 0 1222 0 1370 -13 
L 1370 153 
C 992 153 979 191 979 420 
L 979 2776 
L 243 2706 
z
" transform="scale(0.015625)"/>
       <path id="CMR17-6d" d="M 4326 1933 
C 4326 2252 4269 2790 3507 2790 
C 3072 2790 2771 2496 2656 2151 
L 2650 2151 
C 2573 2676 2195 2790 1837 2790 
C 1331 2790 1069 2400 973 2144 
L 966 2144 
L 966 2790 
L 211 2720 
L 211 2554 
C 589 2554 646 2515 646 2208 
L 646 428 
C 646 184 621 153 211 153 
L 211 -13 
C 365 0 646 0 813 0 
C 979 0 1267 0 1421 -13 
L 1421 153 
C 1011 153 986 178 986 428 
L 986 1658 
C 986 2247 1344 2688 1792 2688 
C 2266 2688 2317 2266 2317 1958 
L 2317 428 
C 2317 184 2291 153 1882 153 
L 1882 -13 
C 2035 0 2317 0 2483 0 
C 2650 0 2938 0 3091 -13 
L 3091 153 
C 2682 153 2656 178 2656 428 
L 2656 1658 
C 2656 2247 3014 2688 3462 2688 
C 3936 2688 3987 2266 3987 1958 
L 3987 428 
C 3987 184 3962 153 3552 153 
L 3552 -13 
C 3706 0 3987 0 4154 0 
C 4320 0 4608 0 4762 -13 
L 4762 153 
C 4352 153 4326 178 4326 428 
L 4326 1933 
z
" transform="scale(0.015625)"/>
       <path id="CMR17-65" d="M 2438 1472 
C 2464 1498 2464 1511 2464 1576 
C 2464 2238 2118 2816 1389 2816 
C 710 2816 173 2169 173 1383 
C 173 551 781 -64 1459 -64 
C 2176 -64 2458 607 2458 740 
C 2458 784 2419 784 2406 784 
C 2362 784 2355 771 2330 696 
C 2189 265 1837 51 1504 51 
C 1229 51 954 203 781 480 
C 582 803 582 1176 582 1472 
L 2438 1472 
z
M 589 1568 
C 634 2505 1126 2714 1382 2714 
C 1818 2714 2112 2297 2118 1568 
L 589 1568 
z
" transform="scale(0.015625)"/>
       <path id="CMMI12-74" d="M 1286 2566 
L 1875 2566 
C 1997 2566 2061 2566 2061 2681 
C 2061 2752 2022 2752 1894 2752 
L 1331 2752 
L 1568 3692 
C 1594 3781 1594 3794 1594 3840 
C 1594 3943 1510 4000 1427 4000 
C 1376 4000 1229 3981 1178 3775 
L 928 2752 
L 326 2752 
C 198 2752 141 2752 141 2630 
C 141 2566 186 2566 307 2566 
L 877 2566 
L 454 881 
C 403 658 384 594 384 511 
C 384 211 595 -64 954 -64 
C 1600 -64 1946 868 1946 912 
C 1946 951 1920 970 1882 970 
C 1869 970 1843 970 1830 944 
C 1824 938 1818 931 1773 829 
C 1638 511 1344 64 973 64 
C 781 64 768 224 768 364 
C 768 370 768 492 787 568 
L 1286 2566 
z
" transform="scale(0.015625)"/>
       <path id="CMR17-5b" d="M 1504 -1600 
L 1504 -1377 
L 902 -1377 
L 902 4544 
L 1504 4544 
L 1504 4767 
L 678 4767 
L 678 -1600 
L 1504 -1600 
z
" transform="scale(0.015625)"/>
       <path id="CMR17-73" d="M 1978 2697 
C 1978 2813 1971 2819 1933 2819 
C 1907 2819 1901 2813 1824 2717 
C 1805 2691 1747 2626 1728 2601 
C 1523 2819 1235 2819 1126 2819 
C 416 2819 160 2447 160 2076 
C 160 1498 813 1365 998 1325 
C 1402 1243 1542 1217 1677 1101 
C 1760 1025 1901 884 1901 654 
C 1901 384 1747 38 1158 38 
C 602 38 403 460 288 1021 
C 269 1110 269 1117 218 1117 
C 166 1117 160 1110 160 983 
L 160 63 
C 160 -51 166 -58 205 -58 
C 237 -58 243 -51 275 0 
C 314 57 410 211 448 276 
C 576 103 800 -64 1158 -64 
C 1792 -64 2131 283 2131 784 
C 2131 1112 1958 1285 1875 1362 
C 1683 1561 1459 1606 1190 1657 
C 838 1735 390 1825 390 2217 
C 390 2383 480 2737 1126 2737 
C 1811 2737 1850 2094 1862 1888 
C 1869 1856 1901 1849 1920 1849 
C 1978 1849 1978 1869 1978 1978 
L 1978 2697 
z
" transform="scale(0.015625)"/>
       <path id="CMR17-5d" d="M 915 4767 
L 90 4767 
L 90 4544 
L 691 4544 
L 691 -1377 
L 90 -1377 
L 90 -1600 
L 915 -1600 
L 915 4767 
z
" transform="scale(0.015625)"/>
      </defs>
      <use xlink:href="#CMR17-54" transform="scale(0.996264)"/>
      <use xlink:href="#CMR17-69" transform="translate(66.509881 0) scale(0.996264)"/>
      <use xlink:href="#CMR17-6d" transform="translate(91.380939 0) scale(0.996264)"/>
      <use xlink:href="#CMR17-65" transform="translate(168.300529 0) scale(0.996264)"/>
      <use xlink:href="#CMMI12-74" transform="translate(238.862156 0) scale(0.996264)"/>
      <use xlink:href="#CMR17-5b" transform="translate(304.164452 0) scale(0.996264)"/>
      <use xlink:href="#CMR17-73" transform="translate(329.035511 0) scale(0.996264)"/>
      <use xlink:href="#CMR17-5d" transform="translate(364.836848 0) scale(0.996264)"/>
     </g>
    </g>
   </g>
   <g id="matplotlib.axis_2">
    <g id="ytick_1">
     <g id="line2d_9">
      <path d="M 62.204133 228.268465 
L 277.2 228.268465 
" clip-path="url(#p03959b8cf7)" style="fill: none; stroke: #b0b0b0; stroke-width: 0.8; stroke-linecap: square"/>
     </g>
     <g id="line2d_10">
      <defs>
       <path id="m1c765aa839" d="M 0 0 
L -3.5 0 
" style="stroke: #000000; stroke-width: 0.8"/>
      </defs>
      <g>
       <use xlink:href="#m1c765aa839" x="62.204133" y="228.268465" style="stroke: #000000; stroke-width: 0.8"/>
      </g>
     </g>
     <g id="text_6">
      <!-- $\mathdefault{−0.100}$ -->
      <g transform="translate(24.76264 231.727714) scale(0.1 -0.1)">
       <defs>
        <path id="CMSY10-0" d="M 4218 1472 
C 4326 1472 4442 1472 4442 1600 
C 4442 1728 4326 1728 4218 1728 
L 755 1728 
C 646 1728 531 1728 531 1600 
C 531 1472 646 1472 755 1472 
L 4218 1472 
z
" transform="scale(0.015625)"/>
        <path id="CMMI12-3a" d="M 1178 307 
C 1178 492 1024 619 870 619 
C 685 619 557 466 557 313 
C 557 128 710 0 864 0 
C 1050 0 1178 153 1178 307 
z
" transform="scale(0.015625)"/>
       </defs>
       <use xlink:href="#CMSY10-0" transform="scale(0.996264)"/>
       <use xlink:href="#CMR17-30" transform="translate(77.487468 0) scale(0.996264)"/>
       <use xlink:href="#CMMI12-3a" transform="translate(123.177945 0) scale(0.996264)"/>
       <use xlink:href="#CMR17-31" transform="translate(150.275122 0) scale(0.996264)"/>
       <use xlink:href="#CMR17-30" transform="translate(195.965599 0) scale(0.996264)"/>
       <use xlink:href="#CMR17-30" transform="translate(241.656076 0) scale(0.996264)"/>
      </g>
     </g>
    </g>
    <g id="ytick_2">
     <g id="line2d_11">
      <path d="M 62.204133 200.118511 
L 277.2 200.118511 
" clip-path="url(#p03959b8cf7)" style="fill: none; stroke: #b0b0b0; stroke-width: 0.8; stroke-linecap: square"/>
     </g>
     <g id="line2d_12">
      <g>
       <use xlink:href="#m1c765aa839" x="62.204133" y="200.118511" style="stroke: #000000; stroke-width: 0.8"/>
      </g>
     </g>
     <g id="text_7">
      <!-- $\mathdefault{−0.075}$ -->
      <g transform="translate(24.76264 203.577761) scale(0.1 -0.1)">
       <defs>
        <path id="CMR17-37" d="M 2886 3941 
L 2886 4081 
L 1382 4081 
C 634 4081 621 4165 595 4288 
L 480 4288 
L 294 3094 
L 410 3094 
C 429 3215 474 3540 550 3661 
C 589 3712 1062 3712 1171 3712 
L 2579 3712 
L 1869 2661 
C 1395 1954 1069 999 1069 165 
C 1069 89 1069 -128 1299 -128 
C 1530 -128 1530 89 1530 171 
L 1530 465 
C 1530 1508 1709 2196 2003 2636 
L 2886 3941 
z
" transform="scale(0.015625)"/>
        <path id="CMR17-35" d="M 730 3692 
C 794 3666 1056 3584 1325 3584 
C 1920 3584 2246 3911 2432 4100 
C 2432 4157 2432 4192 2394 4192 
C 2387 4192 2374 4192 2323 4163 
C 2099 4058 1837 3973 1517 3973 
C 1325 3973 1037 3999 723 4139 
C 653 4171 640 4171 634 4171 
C 602 4171 595 4164 595 4037 
L 595 2203 
C 595 2089 595 2057 659 2057 
C 691 2057 704 2070 736 2114 
C 941 2401 1222 2522 1542 2522 
C 1766 2522 2246 2382 2246 1289 
C 2246 1085 2246 715 2054 421 
C 1894 159 1645 25 1370 25 
C 947 25 518 320 403 814 
C 429 807 480 795 506 795 
C 589 795 749 840 749 1038 
C 749 1210 627 1280 506 1280 
C 358 1280 262 1190 262 1011 
C 262 454 704 -128 1382 -128 
C 2042 -128 2669 440 2669 1264 
C 2669 2030 2170 2624 1549 2624 
C 1222 2624 947 2503 730 2274 
L 730 3692 
z
" transform="scale(0.015625)"/>
       </defs>
       <use xlink:href="#CMSY10-0" transform="scale(0.996264)"/>
       <use xlink:href="#CMR17-30" transform="translate(77.487468 0) scale(0.996264)"/>
       <use xlink:href="#CMMI12-3a" transform="translate(123.177945 0) scale(0.996264)"/>
       <use xlink:href="#CMR17-30" transform="translate(150.275122 0) scale(0.996264)"/>
       <use xlink:href="#CMR17-37" transform="translate(195.965599 0) scale(0.996264)"/>
       <use xlink:href="#CMR17-35" transform="translate(241.656076 0) scale(0.996264)"/>
      </g>
     </g>
    </g>
    <g id="ytick_3">
     <g id="line2d_13">
      <path d="M 62.204133 171.968558 
L 277.2 171.968558 
" clip-path="url(#p03959b8cf7)" style="fill: none; stroke: #b0b0b0; stroke-width: 0.8; stroke-linecap: square"/>
     </g>
     <g id="line2d_14">
      <g>
       <use xlink:href="#m1c765aa839" x="62.204133" y="171.968558" style="stroke: #000000; stroke-width: 0.8"/>
      </g>
     </g>
     <g id="text_8">
      <!-- $\mathdefault{−0.050}$ -->
      <g transform="translate(24.76264 175.427807) scale(0.1 -0.1)">
       <use xlink:href="#CMSY10-0" transform="scale(0.996264)"/>
       <use xlink:href="#CMR17-30" transform="translate(77.487468 0) scale(0.996264)"/>
       <use xlink:href="#CMMI12-3a" transform="translate(123.177945 0) scale(0.996264)"/>
       <use xlink:href="#CMR17-30" transform="translate(150.275122 0) scale(0.996264)"/>
       <use xlink:href="#CMR17-35" transform="translate(195.965599 0) scale(0.996264)"/>
       <use xlink:href="#CMR17-30" transform="translate(241.656076 0) scale(0.996264)"/>
      </g>
     </g>
    </g>
    <g id="ytick_4">
     <g id="line2d_15">
      <path d="M 62.204133 143.818605 
L 277.2 143.818605 
" clip-path="url(#p03959b8cf7)" style="fill: none; stroke: #b0b0b0; stroke-width: 0.8; stroke-linecap: square"/>
     </g>
     <g id="line2d_16">
      <g>
       <use xlink:href="#m1c765aa839" x="62.204133" y="143.818605" style="stroke: #000000; stroke-width: 0.8"/>
      </g>
     </g>
     <g id="text_9">
      <!-- $\mathdefault{−0.025}$ -->
      <g transform="translate(24.76264 147.277854) scale(0.1 -0.1)">
       <use xlink:href="#CMSY10-0" transform="scale(0.996264)"/>
       <use xlink:href="#CMR17-30" transform="translate(77.487468 0) scale(0.996264)"/>
       <use xlink:href="#CMMI12-3a" transform="translate(123.177945 0) scale(0.996264)"/>
       <use xlink:href="#CMR17-30" transform="translate(150.275122 0) scale(0.996264)"/>
       <use xlink:href="#CMR17-32" transform="translate(195.965599 0) scale(0.996264)"/>
       <use xlink:href="#CMR17-35" transform="translate(241.656076 0) scale(0.996264)"/>
      </g>
     </g>
    </g>
    <g id="ytick_5">
     <g id="line2d_17">
      <path d="M 62.204133 115.668651 
L 277.2 115.668651 
" clip-path="url(#p03959b8cf7)" style="fill: none; stroke: #b0b0b0; stroke-width: 0.8; stroke-linecap: square"/>
     </g>
     <g id="line2d_18">
      <g>
       <use xlink:href="#m1c765aa839" x="62.204133" y="115.668651" style="stroke: #000000; stroke-width: 0.8"/>
      </g>
     </g>
     <g id="text_10">
      <!-- $\mathdefault{0.000}$ -->
      <g transform="translate(32.511384 119.1279) scale(0.1 -0.1)">
       <use xlink:href="#CMR17-30" transform="scale(0.996264)"/>
       <use xlink:href="#CMMI12-3a" transform="translate(45.690477 0) scale(0.996264)"/>
       <use xlink:href="#CMR17-30" transform="translate(72.787654 0) scale(0.996264)"/>
       <use xlink:href="#CMR17-30" transform="translate(118.478131 0) scale(0.996264)"/>
       <use xlink:href="#CMR17-30" transform="translate(164.168608 0) scale(0.996264)"/>
      </g>
     </g>
    </g>
    <g id="ytick_6">
     <g id="line2d_19">
      <path d="M 62.204133 87.518698 
L 277.2 87.518698 
" clip-path="url(#p03959b8cf7)" style="fill: none; stroke: #b0b0b0; stroke-width: 0.8; stroke-linecap: square"/>
     </g>
     <g id="line2d_20">
      <g>
       <use xlink:href="#m1c765aa839" x="62.204133" y="87.518698" style="stroke: #000000; stroke-width: 0.8"/>
      </g>
     </g>
     <g id="text_11">
      <!-- $\mathdefault{0.025}$ -->
      <g transform="translate(32.511384 90.977947) scale(0.1 -0.1)">
       <use xlink:href="#CMR17-30" transform="scale(0.996264)"/>
       <use xlink:href="#CMMI12-3a" transform="translate(45.690477 0) scale(0.996264)"/>
       <use xlink:href="#CMR17-30" transform="translate(72.787654 0) scale(0.996264)"/>
       <use xlink:href="#CMR17-32" transform="translate(118.478131 0) scale(0.996264)"/>
       <use xlink:href="#CMR17-35" transform="translate(164.168608 0) scale(0.996264)"/>
      </g>
     </g>
    </g>
    <g id="ytick_7">
     <g id="line2d_21">
      <path d="M 62.204133 59.368744 
L 277.2 59.368744 
" clip-path="url(#p03959b8cf7)" style="fill: none; stroke: #b0b0b0; stroke-width: 0.8; stroke-linecap: square"/>
     </g>
     <g id="line2d_22">
      <g>
       <use xlink:href="#m1c765aa839" x="62.204133" y="59.368744" style="stroke: #000000; stroke-width: 0.8"/>
      </g>
     </g>
     <g id="text_12">
      <!-- $\mathdefault{0.050}$ -->
      <g transform="translate(32.511384 62.827993) scale(0.1 -0.1)">
       <use xlink:href="#CMR17-30" transform="scale(0.996264)"/>
       <use xlink:href="#CMMI12-3a" transform="translate(45.690477 0) scale(0.996264)"/>
       <use xlink:href="#CMR17-30" transform="translate(72.787654 0) scale(0.996264)"/>
       <use xlink:href="#CMR17-35" transform="translate(118.478131 0) scale(0.996264)"/>
       <use xlink:href="#CMR17-30" transform="translate(164.168608 0) scale(0.996264)"/>
      </g>
     </g>
    </g>
    <g id="ytick_8">
     <g id="line2d_23">
      <path d="M 62.204133 31.218791 
L 277.2 31.218791 
" clip-path="url(#p03959b8cf7)" style="fill: none; stroke: #b0b0b0; stroke-width: 0.8; stroke-linecap: square"/>
     </g>
     <g id="line2d_24">
      <g>
       <use xlink:href="#m1c765aa839" x="62.204133" y="31.218791" style="stroke: #000000; stroke-width: 0.8"/>
      </g>
     </g>
     <g id="text_13">
      <!-- $\mathdefault{0.075}$ -->
      <g transform="translate(32.511384 34.67804) scale(0.1 -0.1)">
       <use xlink:href="#CMR17-30" transform="scale(0.996264)"/>
       <use xlink:href="#CMMI12-3a" transform="translate(45.690477 0) scale(0.996264)"/>
       <use xlink:href="#CMR17-30" transform="translate(72.787654 0) scale(0.996264)"/>
       <use xlink:href="#CMR17-37" transform="translate(118.478131 0) scale(0.996264)"/>
       <use xlink:href="#CMR17-35" transform="translate(164.168608 0) scale(0.996264)"/>
      </g>
     </g>
    </g>
    <g id="text_14">
     <!-- Linear strains $\sigma$ [-] -->
     <g transform="translate(18.27198 162.704853) rotate(-90) scale(0.1 -0.1)">
      <defs>
       <path id="CMR17-4c" d="M 3469 1615 
L 3354 1615 
C 3302 983 3219 166 2125 166 
L 1530 166 
C 1274 166 1261 197 1261 414 
L 1261 3898 
C 1261 4129 1274 4192 1760 4192 
L 1901 4192 
L 1901 4352 
C 1638 4352 1331 4352 1069 4352 
C 870 4352 512 4352 326 4352 
L 326 4192 
C 768 4192 838 4192 838 3905 
L 838 452 
C 838 166 768 166 326 166 
L 326 0 
L 3315 0 
L 3469 1615 
z
" transform="scale(0.015625)"/>
       <path id="CMR17-6e" d="M 2656 1933 
C 2656 2259 2592 2790 1837 2790 
C 1331 2790 1069 2400 973 2144 
L 966 2144 
L 966 2790 
L 211 2720 
L 211 2554 
C 589 2554 646 2515 646 2208 
L 646 428 
C 646 184 621 153 211 153 
L 211 -13 
C 365 0 646 0 813 0 
C 979 0 1267 0 1421 -13 
L 1421 153 
C 1011 153 986 178 986 428 
L 986 1658 
C 986 2247 1344 2688 1792 2688 
C 2266 2688 2317 2266 2317 1958 
L 2317 428 
C 2317 184 2291 153 1882 153 
L 1882 -13 
C 2035 0 2317 0 2483 0 
C 2650 0 2938 0 3091 -13 
L 3091 153 
C 2682 153 2656 178 2656 428 
L 2656 1933 
z
" transform="scale(0.015625)"/>
       <path id="CMR17-61" d="M 2304 1653 
C 2304 2072 2304 2294 2035 2543 
C 1798 2752 1523 2816 1306 2816 
C 800 2816 435 2407 435 1971 
C 435 1728 627 1728 666 1728 
C 749 1728 896 1778 896 1954 
C 896 2112 774 2181 666 2181 
C 640 2181 608 2174 589 2168 
C 723 2592 1069 2714 1293 2714 
C 1613 2714 1965 2429 1965 1885 
L 1965 1600 
C 1587 1600 1133 1549 774 1357 
C 371 1133 256 813 256 570 
C 256 77 832 -64 1171 -64 
C 1523 -64 1850 139 1990 511 
C 2003 233 2182 -18 2464 -18 
C 2598 -18 2938 70 2938 567 
L 2938 920 
L 2822 920 
L 2822 562 
C 2822 178 2650 128 2566 128 
C 2304 128 2304 458 2304 738 
L 2304 1653 
z
M 1965 870 
C 1965 317 1568 38 1216 38 
C 896 38 646 275 646 570 
C 646 761 730 1100 1101 1305 
C 1408 1478 1760 1504 1965 1504 
L 1965 870 
z
" transform="scale(0.015625)"/>
       <path id="CMR17-72" d="M 960 1497 
C 960 2112 1222 2688 1702 2688 
C 1747 2688 1792 2682 1837 2662 
C 1837 2662 1696 2617 1696 2452 
C 1696 2298 1818 2234 1914 2234 
C 1990 2234 2131 2279 2131 2458 
C 2131 2663 1926 2790 1709 2790 
C 1222 2790 1011 2317 947 2093 
L 941 2093 
L 941 2790 
L 198 2720 
L 198 2554 
C 576 2554 634 2515 634 2208 
L 634 428 
C 634 184 608 153 198 153 
L 198 -13 
C 352 0 646 0 813 0 
C 998 0 1325 0 1498 -13 
L 1498 153 
C 1037 153 960 153 960 440 
L 960 1497 
z
" transform="scale(0.015625)"/>
       <path id="CMR17-74" d="M 966 2560 
L 1862 2560 
L 1862 2725 
L 966 2725 
L 966 3904 
L 851 3904 
C 838 3245 614 2668 70 2668 
L 70 2560 
L 627 2560 
L 627 771 
C 627 650 627 -64 1370 -64 
C 1747 -64 1965 306 1965 777 
L 1965 1140 
L 1850 1140 
L 1850 783 
C 1850 344 1677 51 1408 51 
C 1222 51 966 178 966 758 
L 966 2560 
z
" transform="scale(0.015625)"/>
       <path id="CMMI12-1b" d="M 3251 2408 
C 3334 2408 3546 2408 3546 2612 
C 3546 2752 3424 2752 3309 2752 
L 1894 2752 
C 934 2752 243 1686 243 932 
C 243 390 595 -64 1171 -64 
C 1926 -64 2752 747 2752 1705 
C 2752 1954 2694 2196 2541 2408 
L 3251 2408 
z
M 1178 64 
C 851 64 614 313 614 754 
C 614 1137 845 2408 1786 2408 
C 2061 2408 2368 2274 2368 1781 
C 2368 1558 2266 1021 2042 652 
C 1811 275 1466 64 1178 64 
z
" transform="scale(0.015625)"/>
       <path id="CMR17-2d" d="M 1632 1216 
L 1632 1496 
L 26 1496 
L 26 1216 
L 1632 1216 
z
" transform="scale(0.015625)"/>
      </defs>
      <use xlink:href="#CMR17-4c" transform="scale(0.996264)"/>
      <use xlink:href="#CMR17-69" transform="translate(57.381408 0) scale(0.996264)"/>
      <use xlink:href="#CMR17-6e" transform="translate(82.252466 0) scale(0.996264)"/>
      <use xlink:href="#CMR17-65" transform="translate(133.147836 0) scale(0.996264)"/>
      <use xlink:href="#CMR17-61" transform="translate(173.633497 0) scale(0.996264)"/>
      <use xlink:href="#CMR17-72" transform="translate(219.323974 0) scale(0.996264)"/>
      <use xlink:href="#CMR17-73" transform="translate(284.680708 0) scale(0.996264)"/>
      <use xlink:href="#CMR17-74" transform="translate(320.482045 0) scale(0.996264)"/>
      <use xlink:href="#CMR17-72" transform="translate(355.762813 0) scale(0.996264)"/>
      <use xlink:href="#CMR17-61" transform="translate(391.043581 0) scale(0.996264)"/>
      <use xlink:href="#CMR17-69" transform="translate(436.734058 0) scale(0.996264)"/>
      <use xlink:href="#CMR17-6e" transform="translate(461.605117 0) scale(0.996264)"/>
      <use xlink:href="#CMR17-73" transform="translate(512.500486 0) scale(0.996264)"/>
      <use xlink:href="#CMMI12-1b" transform="translate(578.37779 0) scale(0.996264)"/>
      <use xlink:href="#CMR17-5b" transform="translate(667.47381 0) scale(0.996264)"/>
      <use xlink:href="#CMR17-2d" transform="translate(692.344869 0) scale(0.996264)"/>
      <use xlink:href="#CMR17-5d" transform="translate(722.420835 0) scale(0.996264)"/>
     </g>
    </g>
   </g>
   <g id="line2d_25">
    <path d="M 71.976673 124.988225 
L 99.898214 124.988225 
L 100.0099 165.146913 
L 155.741296 165.03665 
L 155.852982 128.129608 
L 183.662837 128.129608 
L 183.774523 59.439408 
L 211.584378 59.439408 
L 211.696065 128.171005 
L 239.505919 128.171005 
L 239.617606 95.386083 
L 267.427461 95.386083 
L 267.427461 95.386083 
" clip-path="url(#p03959b8cf7)" style="fill: none; stroke-dasharray: 3.5,5.775; stroke-dashoffset: 0; stroke: #1f77b4; stroke-width: 3.5"/>
   </g>
   <g id="line2d_26">
    <path d="M 71.976673 169.241129 
L 99.898214 169.241129 
L 100.0099 132.838754 
L 127.819755 132.838754 
L 127.931441 95.781315 
L 155.741296 95.781315 
L 155.852982 97.051573 
L 183.662837 97.051573 
L 183.774523 107.074853 
L 211.584378 107.074853 
L 211.696065 133.722217 
L 239.505919 133.722217 
L 239.617606 137.66361 
L 267.427461 137.66361 
L 267.427461 137.66361 
" clip-path="url(#p03959b8cf7)" style="fill: none; stroke-dasharray: 3.5,5.775; stroke-dashoffset: 0; stroke: #ff7f0e; stroke-width: 3.5"/>
   </g>
   <g id="line2d_27">
    <path d="M 71.976673 26.420383 
L 99.898214 26.420383 
L 100.0099 62.240944 
L 127.819755 62.240944 
L 127.931441 136.984745 
L 155.741296 136.984745 
L 155.852982 20.899167 
L 183.662837 20.899167 
L 183.774523 151.252883 
L 211.584378 151.252883 
L 211.696065 123.401602 
L 239.505919 123.401602 
L 239.617606 96.383775 
L 267.427461 96.383775 
L 267.427461 96.383775 
" clip-path="url(#p03959b8cf7)" style="fill: none; stroke-dasharray: 3.5,5.775; stroke-dashoffset: 0; stroke: #2ca02c; stroke-width: 3.5"/>
   </g>
   <g id="line2d_28">
    <path d="M 71.976673 222.882516 
L 99.898214 222.882516 
L 100.0099 27.603562 
L 127.819755 27.603562 
L 127.931441 158.996159 
L 155.741296 158.996159 
L 155.852982 48.346137 
L 183.662837 48.346137 
L 183.774523 117.842493 
L 211.584378 117.842493 
L 211.696065 66.360716 
L 239.505919 66.360716 
L 239.617606 143.023343 
L 267.427461 143.023343 
L 267.427461 143.023343 
" clip-path="url(#p03959b8cf7)" style="fill: none; stroke-dasharray: 3.5,5.775; stroke-dashoffset: 0; stroke: #d62728; stroke-width: 3.5"/>
   </g>
   <g id="line2d_29">
    <path d="M 71.976673 115.668651 
L 72.088359 121.649521 
L 72.870162 113.089996 
L 73.093534 112.782581 
L 73.261064 112.902913 
L 73.540279 113.556562 
L 74.042867 115.515946 
L 75.383101 120.986961 
L 76.109061 123.094731 
L 76.723335 124.2674 
L 77.225922 124.825185 
L 78.007726 125.410444 
L 78.733686 125.744386 
L 79.068744 125.810791 
L 79.794704 125.561021 
L 80.07392 125.597571 
L 80.744037 125.947242 
L 81.079095 125.774721 
L 81.469997 125.673098 
L 82.195957 125.878035 
L 82.698544 125.72377 
L 83.368661 125.849083 
L 83.815406 125.738184 
L 84.541366 125.798479 
L 84.988111 125.757671 
L 85.546542 125.796167 
L 86.049129 125.747768 
L 86.60756 125.770171 
L 87.165991 125.74576 
L 87.724422 125.733951 
L 88.282853 125.737634 
L 88.95297 125.695645 
L 99.898214 125.538388 
L 100.0099 100.678772 
L 100.73586 137.998356 
L 101.126762 145.813665 
L 101.517663 149.758863 
L 101.908565 151.736399 
L 102.355309 152.864264 
L 102.857897 153.50164 
L 103.974759 154.345848 
L 105.035777 154.672743 
L 106.152639 154.780393 
L 106.934442 154.702927 
L 107.827932 154.713223 
L 108.16299 154.841269 
L 108.777264 155.187086 
L 109.279852 155.257345 
L 109.949969 155.30662 
L 110.787615 155.617896 
L 111.346046 155.672182 
L 112.016163 155.903835 
L 112.574594 155.984687 
L 113.188867 156.163768 
L 113.747298 156.27215 
L 114.361572 156.412912 
L 114.920003 156.551843 
L 115.534277 156.659525 
L 116.930354 156.972934 
L 117.991372 157.195634 
L 119.331606 157.476165 
L 124.245798 158.379661 
L 127.819755 158.969401 
L 127.875598 118.887874 
L 127.931441 120.072674 
L 129.662577 139.125539 
L 130.500223 145.084802 
L 131.17034 148.420872 
L 131.784614 150.430312 
L 132.566417 152.124364 
L 133.292377 153.13491 
L 133.571592 153.343916 
L 134.353396 153.727048 
L 135.191042 154.472908 
L 135.861159 154.58194 
L 136.475433 154.995277 
L 137.033864 155.025002 
L 137.648137 155.35115 
L 138.150725 155.382585 
L 138.764999 155.644643 
L 139.211744 155.678899 
L 139.881861 155.907734 
L 140.328605 155.980342 
L 140.887036 156.157593 
L 141.445467 156.26439 
L 142.003898 156.395783 
L 142.506486 156.509898 
L 143.120759 156.631028 
L 143.84672 156.821612 
L 145.801227 157.219602 
L 151.218006 158.224157 
L 155.741296 158.971729 
L 155.852982 99.934331 
L 156.690628 126.425288 
L 157.025687 128.91584 
L 157.249059 129.440789 
L 157.416589 129.481322 
L 157.639961 129.236293 
L 158.142549 128.067039 
L 159.091881 125.857212 
L 160.264586 124.21953 
L 160.990546 123.596634 
L 162.051564 122.964284 
L 163.671014 122.318133 
L 163.950229 122.367039 
L 164.676189 122.639969 
L 165.011248 122.595904 
L 165.569679 122.502022 
L 165.96058 122.627957 
L 166.519011 122.733695 
L 167.133285 122.714696 
L 167.747559 122.874013 
L 168.361833 122.889248 
L 168.920264 123.004711 
L 169.478694 123.037287 
L 170.037125 123.135785 
L 170.595556 123.188714 
L 171.153987 123.263896 
L 171.712418 123.337335 
L 172.326692 123.391557 
L 173.611082 123.545618 
L 175.174689 123.749382 
L 176.849981 123.925033 
L 178.525274 124.095675 
L 183.662837 124.597295 
L 183.830366 105.245991 
L 183.997896 105.124906 
L 184.165425 104.212075 
L 184.556327 100.397575 
L 186.510834 79.133115 
L 187.292638 73.82614 
L 187.962755 70.763218 
L 188.577028 68.968152 
L 189.470518 67.182465 
L 190.084792 66.523267 
L 190.475693 66.36665 
L 190.978281 66.258835 
L 191.425026 65.949425 
L 191.927613 65.569902 
L 192.206829 65.556767 
L 192.653573 65.550317 
L 193.770435 65.237391 
L 194.161337 65.088337 
L 194.608081 64.990675 
L 195.110669 64.955342 
L 195.724943 64.815487 
L 196.283374 64.741978 
L 196.841805 64.661012 
L 197.400235 64.569767 
L 198.070352 64.507388 
L 209.741557 63.171928 
L 211.584378 63.000627 
L 211.696065 130.527935 
L 212.422025 113.93929 
L 212.645397 113.122518 
L 212.757083 113.110255 
L 212.924612 113.437977 
L 213.259671 114.874816 
L 215.158336 124.705393 
L 215.940139 127.030014 
L 216.666099 128.453288 
L 217.447902 129.485889 
L 218.397234 130.33176 
L 219.123194 130.71291 
L 219.569939 130.771501 
L 220.12837 130.611717 
L 220.630958 130.672917 
L 221.245232 130.851751 
L 221.58029 130.764661 
L 222.082878 130.678139 
L 222.752995 130.779878 
L 223.367269 130.666859 
L 223.9257 130.714475 
L 224.539973 130.627957 
L 225.098404 130.628528 
L 225.656835 130.576562 
L 226.215266 130.553135 
L 226.773697 130.523511 
L 227.332128 130.478313 
L 227.946401 130.469402 
L 229.398322 130.363749 
L 230.738556 130.285101 
L 232.63722 130.185481 
L 239.505919 129.867807 
L 239.617606 100.159565 
L 240.23188 114.408189 
L 240.455252 115.220036 
L 240.566938 115.176575 
L 240.734467 114.719927 
L 241.069526 112.926265 
L 242.968191 101.063954 
L 243.749994 98.274212 
L 244.364268 96.783347 
L 245.034385 95.655345 
L 245.816188 94.771976 
L 247.100579 93.842438 
L 247.49148 93.772413 
L 248.21744 93.912781 
L 248.552499 93.810134 
L 249.055087 93.638205 
L 249.390145 93.678881 
L 249.948576 93.768146 
L 250.674536 93.663332 
L 251.232967 93.74961 
L 251.847241 93.698357 
L 252.405671 93.75955 
L 252.964102 93.743198 
L 253.522533 93.784873 
L 254.080964 93.795577 
L 254.639395 93.814191 
L 255.253669 93.856163 
L 256.53806 93.90354 
L 258.157509 93.944731 
L 259.721115 94.00853 
L 261.898995 94.078279 
L 266.533971 94.229271 
L 267.427461 94.254088 
L 267.427461 94.254088 
" clip-path="url(#p03959b8cf7)" style="fill: none; stroke: #1f77b4; stroke-width: 2; stroke-linecap: square"/>
   </g>
   <g id="line2d_30">
    <path d="M 71.976673 115.668651 
L 72.144202 154.356563 
L 72.311731 153.179182 
L 72.423417 153.729441 
L 73.205221 159.438891 
L 73.707808 161.253834 
L 74.322082 162.602313 
L 74.545454 162.907014 
L 74.601298 162.853496 
L 74.768827 162.788808 
L 76.164904 163.661325 
L 77.058393 163.726693 
L 77.672667 163.728132 
L 77.896039 163.884358 
L 78.677843 163.782777 
L 78.957058 163.796552 
L 79.34796 163.46622 
L 80.07392 163.744181 
L 80.353135 163.992406 
L 80.688194 163.962896 
L 80.911566 163.640914 
L 81.134938 163.496759 
L 81.414154 163.617528 
L 81.805055 164.061337 
L 82.028428 163.977866 
L 82.475172 163.619409 
L 82.698544 163.802659 
L 82.97776 164.066994 
L 83.201132 163.993301 
L 83.592034 163.725578 
L 83.815406 163.864579 
L 84.150465 164.080519 
L 84.42968 163.922617 
L 84.708895 163.827087 
L 85.043954 164.046885 
L 85.323169 164.079895 
L 85.825757 163.92603 
L 86.440031 164.088574 
L 86.830933 163.987824 
L 87.556893 164.102782 
L 87.947794 164.077184 
L 88.506225 164.176708 
L 89.008813 164.146801 
L 89.511401 164.225784 
L 90.069831 164.212223 
L 90.572419 164.265178 
L 91.13085 164.273574 
L 91.689281 164.300469 
L 92.247712 164.341861 
L 92.917829 164.342666 
L 99.898214 164.682045 
L 99.954057 72.190895 
L 100.0099 82.6409 
L 100.233272 130.731238 
L 100.400802 134.624921 
L 100.568331 133.026487 
L 100.959232 129.253923 
L 101.294291 127.974992 
L 101.573506 127.689091 
L 102.020251 127.699677 
L 102.578682 128.36939 
L 103.192956 129.360755 
L 103.472171 129.93635 
L 103.918916 130.169488 
L 104.868248 130.352026 
L 105.594208 129.93405 
L 106.990285 128.877858 
L 107.995461 129.049681 
L 108.498048 129.754967 
L 109.056479 129.43039 
L 109.447381 129.067306 
L 109.894126 129.17173 
L 110.285027 129.64528 
L 110.564243 129.602089 
L 111.06683 129.105438 
L 111.23436 129.221924 
L 111.625261 129.675672 
L 111.848633 129.55656 
L 112.239535 129.194845 
L 112.462907 129.356703 
L 112.797966 129.658137 
L 113.021338 129.533085 
L 113.356397 129.280538 
L 113.579769 129.412614 
L 113.914827 129.651786 
L 114.1382 129.532936 
L 114.473258 129.355588 
L 114.752474 129.544993 
L 115.031689 129.650443 
L 115.701806 129.493182 
L 116.092708 129.66013 
L 116.762825 129.545169 
L 117.153726 129.671723 
L 117.768 129.567663 
L 118.214745 129.68482 
L 118.773176 129.596395 
L 119.275763 129.699488 
L 119.834194 129.646319 
L 120.336782 129.716091 
L 120.83937 129.675925 
L 121.3978 129.734989 
L 121.900388 129.720819 
L 122.402976 129.767218 
L 122.961407 129.762834 
L 123.463995 129.789349 
L 124.022425 129.801967 
L 124.580856 129.806324 
L 125.139287 129.847157 
L 126.311992 129.886151 
L 127.819755 129.894607 
L 127.987284 104.423729 
L 128.210657 96.968024 
L 128.322343 96.674794 
L 128.378186 96.720966 
L 129.606734 98.827346 
L 129.662577 98.784273 
L 129.830106 98.740018 
L 130.891124 99.245205 
L 131.617085 99.188686 
L 132.007986 99.012901 
L 132.119672 98.985922 
L 132.343045 99.239476 
L 132.733946 99.111047 
L 133.236534 99.05819 
L 133.404063 99.088675 
L 133.683279 98.775456 
L 134.353396 98.827225 
L 134.632611 99.101452 
L 135.135199 99.005243 
L 135.414414 98.730675 
L 135.69363 98.700587 
L 136.307903 99.073852 
L 136.866334 98.674564 
L 137.480608 98.990854 
L 137.927353 98.659178 
L 138.150725 98.810262 
L 138.429941 98.979561 
L 138.653313 98.862706 
L 138.988371 98.659187 
L 139.267587 98.817223 
L 139.546802 98.910534 
L 140.272762 98.750471 
L 140.607821 98.852643 
L 141.333781 98.733112 
L 141.668839 98.798379 
L 142.338956 98.691929 
L 142.729858 98.747489 
L 143.344132 98.657806 
L 143.790876 98.699982 
L 144.349307 98.627761 
L 144.851895 98.655993 
L 145.410326 98.610236 
L 145.912914 98.615546 
L 146.471344 98.589647 
L 147.029775 98.568043 
L 147.644049 98.576305 
L 149.040126 98.519803 
L 150.268674 98.475575 
L 155.741296 98.34967 
L 155.797139 65.941447 
L 155.852982 68.189519 
L 156.076355 102.105661 
L 156.188041 104.683381 
L 156.243884 104.629817 
L 156.467256 102.218547 
L 156.858158 98.764341 
L 157.193216 97.545573 
L 157.472432 97.201401 
L 157.975019 97.089722 
L 158.589293 97.63488 
L 158.980195 98.160491 
L 159.203567 98.674374 
L 159.538626 98.848695 
L 160.655487 99.029171 
L 161.325604 98.674414 
L 161.772349 98.259513 
L 162.107407 98.012324 
L 162.33078 97.884999 
L 162.609995 97.437504 
L 163.335955 97.645926 
L 163.726857 97.628521 
L 163.838543 97.749218 
L 164.173602 98.347776 
L 164.452817 98.327649 
L 164.843718 98.004465 
L 165.178777 97.578693 
L 165.681365 97.820272 
L 166.016423 98.147502 
L 166.351482 98.083057 
L 166.854069 97.653504 
L 167.021599 97.7504 
L 167.4125 98.143237 
L 167.635873 98.020721 
L 167.970931 97.6676 
L 168.194303 97.758651 
L 168.585205 98.097575 
L 168.808577 97.946806 
L 169.143636 97.694705 
L 169.367008 97.838223 
L 169.702067 98.049019 
L 169.925439 97.899589 
L 170.204654 97.719597 
L 170.428027 97.824599 
L 170.763085 98.011267 
L 171.042301 97.843682 
L 171.321516 97.743578 
L 172.047476 97.870602 
L 172.382535 97.759144 
L 173.052652 97.881008 
L 173.443553 97.772602 
L 174.057827 97.881674 
L 174.504572 97.78427 
L 175.063003 97.876783 
L 175.56559 97.79399 
L 176.068178 97.868776 
L 176.626609 97.8014 
L 177.129197 97.846349 
L 177.687627 97.806191 
L 178.190215 97.826413 
L 178.692803 97.796597 
L 179.251234 97.809117 
L 179.753821 97.797783 
L 180.312252 97.794414 
L 180.870683 97.804602 
L 181.484957 97.770043 
L 183.662837 97.759396 
L 183.71868 93.896122 
L 183.774523 97.36394 
L 183.997896 116.084953 
L 184.109582 116.833766 
L 184.277111 115.447923 
L 184.835542 110.641861 
L 185.282287 108.602142 
L 185.729031 107.44271 
L 186.06409 107.121691 
L 186.231619 107.200812 
L 186.734207 106.731574 
L 187.292638 106.448662 
L 187.962755 106.373336 
L 188.96793 106.321873 
L 189.191302 106.095917 
L 189.973106 106.363544 
L 190.699066 106.841883 
L 191.089967 106.626936 
L 191.313339 106.458495 
L 191.536712 106.211137 
L 191.760084 106.29814 
L 192.430201 106.73927 
L 193.212004 106.401489 
L 193.770435 106.657655 
L 194.440552 106.468679 
L 194.831454 106.650251 
L 195.166512 106.481029 
L 195.445728 106.451396 
L 196.060001 106.5889 
L 196.506746 106.475069 
L 197.12102 106.57979 
L 197.567765 106.498858 
L 198.182039 106.570452 
L 198.628783 106.520721 
L 199.187214 106.578064 
L 199.689802 106.539837 
L 200.248233 106.571937 
L 200.806663 106.566897 
L 201.309251 106.568957 
L 201.867682 106.577647 
L 202.481956 106.557065 
L 203.933876 106.587329 
L 205.329953 106.592597 
L 206.949403 106.596287 
L 209.350655 106.609939 
L 211.584378 106.615502 
L 211.640221 159.802778 
L 211.696065 156.850543 
L 211.919437 125.629032 
L 212.031123 123.767859 
L 212.086966 124.038766 
L 212.924612 131.897067 
L 213.315514 132.933812 
L 213.594729 133.313501 
L 213.929788 133.355998 
L 214.432376 133.172717 
L 214.711591 132.903625 
L 214.934963 132.469612 
L 215.270022 132.38489 
L 216.49857 132.398026 
L 217.168687 132.779907 
L 217.503745 133.054122 
L 218.062176 133.335043 
L 218.285548 133.530577 
L 219.40241 133.428472 
L 219.569939 133.068383 
L 219.793311 132.775776 
L 220.016684 132.839267 
L 221.021859 133.439827 
L 221.301075 133.368925 
L 221.691976 132.948422 
L 221.971192 133.011976 
L 222.417936 133.485557 
L 222.641309 133.355332 
L 222.976367 132.971741 
L 223.199739 133.053419 
L 223.646484 133.437209 
L 223.869856 133.259702 
L 224.149072 133.02663 
L 224.372444 133.12964 
L 224.763346 133.396911 
L 224.986718 133.246198 
L 225.265933 133.072129 
L 225.489306 133.179275 
L 225.824364 133.369974 
L 226.10358 133.211232 
L 226.382795 133.112498 
L 227.108755 133.251365 
L 227.443814 133.142269 
L 228.169774 133.242765 
L 228.504832 133.169152 
L 229.174949 133.260076 
L 229.565851 133.193707 
L 230.180125 133.271079 
L 230.626869 133.215882 
L 231.1853 133.278345 
L 231.687888 133.235383 
L 232.246319 133.270555 
L 232.748907 133.251993 
L 233.251494 133.277059 
L 233.809925 133.265695 
L 234.368356 133.264026 
L 234.926787 133.284907 
L 235.596904 133.253584 
L 239.505919 133.28805 
L 239.561763 82.502844 
L 239.617606 94.956161 
L 239.840978 139.70626 
L 239.952664 142.381113 
L 240.008507 142.209586 
L 240.901997 133.9837 
L 241.292898 133.061467 
L 241.572114 132.702055 
L 241.907172 132.664561 
L 242.465603 132.866471 
L 242.577289 132.936453 
L 242.856504 133.476851 
L 243.247406 133.555962 
L 244.643483 133.529296 
L 245.3136 133.156203 
L 245.648659 132.974277 
L 245.927874 132.861757 
L 246.151246 132.518688 
L 247.100579 132.704834 
L 247.379794 132.82602 
L 247.714853 133.406485 
L 247.994068 133.400462 
L 248.38497 133.136119 
L 248.720028 132.768568 
L 249.222616 133.029561 
L 249.501831 133.319422 
L 249.83689 133.300819 
L 250.451164 132.954527 
L 251.065438 133.349705 
L 251.568025 133.008632 
L 251.791398 133.211158 
L 252.070613 133.401427 
L 252.293985 133.281293 
L 252.629044 133.082939 
L 252.852416 133.223681 
L 253.187475 133.410342 
L 253.46669 133.240923 
L 253.745905 133.171686 
L 254.416022 133.359657 
L 254.806924 133.243721 
L 255.421198 133.412341 
L 255.867943 133.312353 
L 256.482216 133.436061 
L 256.928961 133.377389 
L 257.487392 133.479548 
L 257.98998 133.438623 
L 258.548411 133.507696 
L 259.050998 133.495886 
L 259.553586 133.549391 
L 260.112017 133.549219 
L 260.670448 133.573798 
L 261.228878 133.60993 
L 261.843152 133.603488 
L 264.076876 133.698813 
L 265.808011 133.773579 
L 267.427461 133.84275 
L 267.427461 133.84275 
" clip-path="url(#p03959b8cf7)" style="fill: none; stroke: #ff7f0e; stroke-width: 2; stroke-linecap: square"/>
   </g>
   <g id="line2d_31">
    <path d="M 71.976673 115.668651 
L 72.255888 59.281824 
L 72.535104 40.20344 
L 72.814319 34.003005 
L 73.093534 32.071617 
L 73.37275 31.527539 
L 73.707808 31.408944 
L 75.774002 31.273636 
L 77.560981 30.56702 
L 78.566156 30.205362 
L 83.368661 29.147095 
L 85.211483 28.808216 
L 88.729597 28.288996 
L 96.491786 27.498277 
L 99.898214 27.267906 
L 99.954057 106.162469 
L 100.0099 95.733586 
L 100.289115 69.166952 
L 100.512488 63.61953 
L 100.73586 62.467595 
L 100.847546 62.518338 
L 101.126762 63.191358 
L 101.741036 64.628186 
L 102.299466 65.269527 
L 102.91374 65.61274 
L 103.80723 65.832715 
L 104.812405 65.641933 
L 106.543541 64.990217 
L 107.157815 64.758654 
L 108.107147 64.650522 
L 108.553892 64.683193 
L 109.391538 64.429203 
L 110.061655 64.363566 
L 110.620086 64.321419 
L 111.346046 64.164465 
L 111.904477 64.128158 
L 112.51875 64.012193 
L 113.133024 63.952925 
L 113.747298 63.884495 
L 114.361572 63.793052 
L 115.645963 63.65559 
L 117.712157 63.465774 
L 122.570505 63.116506 
L 125.697718 62.942002 
L 127.819755 62.84389 
L 127.987284 124.381969 
L 128.2665 131.193522 
L 128.545715 133.483703 
L 128.82493 134.286459 
L 129.159989 134.638468 
L 129.774263 134.885591 
L 130.891124 135.098651 
L 136.475433 135.682912 
L 140.161076 135.983723 
L 148.816754 136.440995 
L 155.741296 136.651677 
L 155.964668 59.273963 
L 156.243884 33.121825 
L 156.523099 26.26485 
L 156.746472 25.097427 
L 156.914001 25.054434 
L 157.193216 25.443415 
L 157.80749 26.283799 
L 158.365921 26.644956 
L 159.203567 26.860006 
L 159.761998 26.784852 
L 160.934703 26.323042 
L 163.726857 25.046877 
L 165.122934 24.680384 
L 165.737208 24.538994 
L 166.351482 24.441425 
L 167.244971 24.200903 
L 167.803402 24.057094 
L 168.361833 23.939136 
L 168.920264 23.820713 
L 169.534537 23.706537 
L 170.204654 23.546936 
L 172.494221 23.156843 
L 174.448729 22.865107 
L 180.703154 22.166085 
L 183.662837 21.92701 
L 183.830366 129.812489 
L 184.109582 140.79985 
L 184.388797 144.931535 
L 184.723856 146.788975 
L 185.058914 147.528808 
L 185.505659 147.990298 
L 186.510834 148.59083 
L 187.404324 148.767083 
L 189.023773 148.84724 
L 189.582204 148.881653 
L 190.699066 149.199482 
L 191.425026 149.225651 
L 191.983456 149.299044 
L 192.876946 149.428965 
L 193.547063 149.539971 
L 194.998983 149.70458 
L 196.841805 149.890073 
L 199.243057 150.100843 
L 211.584378 150.770514 
L 211.751908 115.107957 
L 211.863594 114.765795 
L 211.97528 115.149206 
L 213.092142 120.935651 
L 213.538886 121.841858 
L 214.097317 122.498166 
L 214.934963 123.101343 
L 215.493394 123.272848 
L 216.49857 123.304049 
L 218.062176 123.053402 
L 218.564764 122.976694 
L 219.569939 123.0704 
L 220.016684 123.167175 
L 228.225617 123.228715 
L 229.73338 123.24914 
L 231.743731 123.270367 
L 235.094316 123.292416 
L 239.505919 123.324009 
L 239.673449 103.113447 
L 239.896821 95.846318 
L 240.120193 94.104972 
L 240.23188 94.012163 
L 240.399409 94.265779 
L 241.460427 96.622918 
L 242.074701 97.225418 
L 242.968191 97.72195 
L 243.582464 97.789359 
L 244.755169 97.64519 
L 247.323951 97.165118 
L 248.440813 97.186512 
L 248.999243 97.088204 
L 253.578376 96.916272 
L 254.91861 96.867136 
L 256.649746 96.818275 
L 258.660097 96.762893 
L 261.340565 96.699716 
L 267.427461 96.588106 
L 267.427461 96.588106 
" clip-path="url(#p03959b8cf7)" style="fill: none; stroke: #2ca02c; stroke-width: 2; stroke-linecap: square"/>
   </g>
   <g id="line2d_32">
    <path d="M 71.976673 115.668651 
L 72.255888 176.344794 
L 72.535104 199.111077 
L 72.814319 207.935052 
L 73.149377 211.96409 
L 73.484436 213.556006 
L 73.931181 214.538384 
L 74.545454 215.308092 
L 75.438944 216.067054 
L 76.499962 216.640931 
L 78.063569 217.209638 
L 79.683018 217.885559 
L 82.475172 218.832753 
L 85.602385 219.68958 
L 89.176342 220.449935 
L 93.420416 221.121106 
L 98.446294 221.680756 
L 99.898214 221.80642 
L 100.065743 74.409723 
L 100.344958 42.440366 
L 100.624174 33.083198 
L 100.847546 31.247367 
L 101.015075 31.109018 
L 101.238448 31.534168 
L 102.076094 33.444132 
L 102.578682 33.963257 
L 103.137113 34.207399 
L 103.863073 34.223072 
L 104.644876 34.001564 
L 105.705894 33.453594 
L 107.43703 32.549468 
L 109.279852 31.934952 
L 112.351221 31.032652 
L 115.645963 30.271619 
L 119.21992 29.633717 
L 124.022425 29.01337 
L 127.819755 28.659779 
L 127.987284 133.105413 
L 128.2665 146.949017 
L 128.545715 152.055959 
L 128.82493 153.985018 
L 129.159989 154.847898 
L 129.550891 155.23063 
L 130.276851 155.552907 
L 131.840457 155.939234 
L 137.927353 157.062067 
L 142.674015 157.647544 
L 148.425852 158.125696 
L 155.741296 158.497165 
L 155.908825 83.537827 
L 156.188041 58.230342 
L 156.467256 51.149091 
L 156.690628 49.983282 
L 156.802315 49.989857 
L 157.025687 50.466104 
L 157.863333 52.559988 
L 158.365921 53.16873 
L 158.924352 53.504059 
L 159.650312 53.623024 
L 160.432115 53.496583 
L 161.43729 53.0857 
L 163.280112 52.254324 
L 165.793051 51.600729 
L 168.30599 51.037281 
L 170.874771 50.55585 
L 176.124021 49.829392 
L 182.434289 49.264549 
L 183.662837 49.182843 
L 183.71868 115.216076 
L 183.774523 114.948125 
L 183.997896 114.280608 
L 184.165425 114.338139 
L 184.500483 114.926315 
L 185.505659 116.816787 
L 186.175776 117.574304 
L 186.79005 117.934569 
L 187.404324 118.024588 
L 188.297813 117.893248 
L 189.749733 117.641567 
L 199.243057 117.771534 
L 211.584378 117.814996 
L 211.863594 81.241902 
L 212.142809 69.835372 
L 212.366181 67.294499 
L 212.533711 66.887315 
L 212.645397 66.948737 
L 212.924612 67.566285 
L 213.650572 69.25409 
L 214.209003 69.962566 
L 214.823277 70.368577 
L 215.493394 70.536537 
L 216.219354 70.467786 
L 217.112843 70.136044 
L 218.899822 69.414198 
L 220.910173 69.018555 
L 223.9257 68.473393 
L 226.941226 68.041735 
L 231.91126 67.511465 
L 238.947489 67.034262 
L 239.505919 67.006296 
L 239.673449 122.926036 
L 240.120193 131.854306 
L 240.566938 136.287466 
L 241.013683 138.714832 
L 241.51627 140.268591 
L 242.074701 141.261614 
L 242.744818 141.976902 
L 243.414935 142.390838 
L 244.140895 142.581267 
L 244.978542 142.566786 
L 247.100579 142.382206 
L 250.283634 142.553769 
L 261.061349 142.815887 
L 267.427461 142.895298 
L 267.427461 142.895298 
" clip-path="url(#p03959b8cf7)" style="fill: none; stroke: #d62728; stroke-width: 2; stroke-linecap: square"/>
   </g>
   <g id="patch_3">
    <path d="M 62.204133 232.981683 
L 62.204133 10.8 
" style="fill: none; stroke: #000000; stroke-width: 0.8; stroke-linejoin: miter; stroke-linecap: square"/>
   </g>
   <g id="patch_4">
    <path d="M 277.2 232.981683 
L 277.2 10.8 
" style="fill: none; stroke: #000000; stroke-width: 0.8; stroke-linejoin: miter; stroke-linecap: square"/>
   </g>
   <g id="patch_5">
    <path d="M 62.204133 232.981683 
L 277.2 232.981683 
" style="fill: none; stroke: #000000; stroke-width: 0.8; stroke-linejoin: miter; stroke-linecap: square"/>
   </g>
   <g id="patch_6">
    <path d="M 62.204133 10.8 
L 277.2 10.8 
" style="fill: none; stroke: #000000; stroke-width: 0.8; stroke-linejoin: miter; stroke-linecap: square"/>
   </g>
   <g id="legend_1">
    <g id="patch_7">
     <path d="M 171.0779 228.981683 
L 271.6 228.981683 
Q 273.2 228.981683 273.2 227.381683 
L 273.2 169.82064 
Q 273.2 168.22064 271.6 168.22064 
L 171.0779 168.22064 
Q 169.4779 168.22064 169.4779 169.82064 
L 169.4779 227.381683 
Q 169.4779 228.981683 171.0779 228.981683 
z
" style="fill: #ffffff; opacity: 0.8; stroke: #cccccc; stroke-linejoin: miter"/>
    </g>
    <g id="line2d_33">
     <path d="M 172.6779 175.584531 
L 180.6779 175.584531 
L 188.6779 175.584531 
" style="fill: none; stroke-dasharray: 3.5,5.775; stroke-dashoffset: 0; stroke: #1f77b4; stroke-width: 3.5"/>
    </g>
    <g id="text_15">
     <!-- $\sigma_{\mathrm{sh},1}^\mathrm{d}$ -->
     <g transform="translate(195.0779 178.384531) scale(0.08 -0.08)">
      <defs>
       <path id="CMR17-64" d="M 1869 4326 
L 1869 4160 
C 2246 4160 2304 4122 2304 3820 
L 2304 2345 
C 2278 2377 2016 2790 1498 2790 
C 845 2790 211 2208 211 1364 
C 211 525 806 -64 1434 -64 
C 1978 -64 2259 337 2291 380 
L 2291 -63 
L 3066 -63 
L 3066 128 
C 2688 128 2630 166 2630 473 
L 2630 4396 
L 1869 4326 
z
M 2291 755 
C 2291 563 2176 390 2029 262 
C 1811 70 1594 38 1472 38 
C 1286 38 621 134 621 1356 
C 621 2612 1363 2688 1530 2688 
C 1824 2688 2061 2522 2208 2291 
C 2291 2157 2291 2138 2291 2023 
L 2291 755 
z
" transform="scale(0.015625)"/>
       <path id="CMR17-68" d="M 2656 1933 
C 2656 2259 2592 2790 1837 2790 
C 1312 2790 1056 2368 979 2157 
L 973 2157 
L 973 4396 
L 211 4326 
L 211 4160 
C 589 4160 646 4122 646 3817 
L 646 426 
C 646 184 621 153 211 153 
L 211 -13 
C 365 0 646 0 813 0 
C 979 0 1267 0 1421 -13 
L 1421 153 
C 1011 153 986 178 986 428 
L 986 1658 
C 986 2247 1344 2688 1792 2688 
C 2266 2688 2317 2266 2317 1958 
L 2317 428 
C 2317 184 2291 153 1882 153 
L 1882 -13 
C 2035 0 2317 0 2483 0 
C 2650 0 2938 0 3091 -13 
L 3091 153 
C 2682 153 2656 178 2656 428 
L 2656 1933 
z
" transform="scale(0.015625)"/>
       <path id="CMMI12-3b" d="M 1248 -31 
C 1248 343 1126 619 864 619 
C 659 619 557 453 557 313 
C 557 172 653 0 870 0 
C 954 0 1024 26 1082 83 
C 1094 96 1101 96 1107 96 
C 1120 96 1120 5 1120 -27 
C 1120 -240 1082 -659 710 -1080 
C 640 -1157 640 -1170 640 -1183 
C 640 -1216 672 -1248 704 -1248 
C 755 -1248 1248 -771 1248 -31 
z
" transform="scale(0.015625)"/>
      </defs>
      <use xlink:href="#CMMI12-1b" transform="scale(0.996264)"/>
      <use xlink:href="#CMR17-64" transform="translate(59.020054 36.153639) scale(0.697382)"/>
      <use xlink:href="#CMR17-73" transform="translate(55.445461 -28.215451) scale(0.697382)"/>
      <use xlink:href="#CMR17-68" transform="translate(80.506283 -28.215451) scale(0.697382)"/>
      <use xlink:href="#CMMI12-3b" transform="translate(116.132892 -28.215451) scale(0.697382)"/>
      <use xlink:href="#CMR17-31" transform="translate(135.100824 -28.215451) scale(0.697382)"/>
     </g>
    </g>
    <g id="line2d_34">
     <path d="M 172.6779 190.32424 
L 180.6779 190.32424 
L 188.6779 190.32424 
" style="fill: none; stroke-dasharray: 3.5,5.775; stroke-dashoffset: 0; stroke: #ff7f0e; stroke-width: 3.5"/>
    </g>
    <g id="text_16">
     <!-- $\sigma_{\mathrm{sh},2}^\mathrm{d}$ -->
     <g transform="translate(195.0779 193.12424) scale(0.08 -0.08)">
      <use xlink:href="#CMMI12-1b" transform="scale(0.996264)"/>
      <use xlink:href="#CMR17-64" transform="translate(59.020054 36.153639) scale(0.697382)"/>
      <use xlink:href="#CMR17-73" transform="translate(55.445461 -28.215451) scale(0.697382)"/>
      <use xlink:href="#CMR17-68" transform="translate(80.506283 -28.215451) scale(0.697382)"/>
      <use xlink:href="#CMMI12-3b" transform="translate(116.132892 -28.215451) scale(0.697382)"/>
      <use xlink:href="#CMR17-32" transform="translate(135.100824 -28.215451) scale(0.697382)"/>
     </g>
    </g>
    <g id="line2d_35">
     <path d="M 172.6779 205.06395 
L 180.6779 205.06395 
L 188.6779 205.06395 
" style="fill: none; stroke-dasharray: 3.5,5.775; stroke-dashoffset: 0; stroke: #2ca02c; stroke-width: 3.5"/>
    </g>
    <g id="text_17">
     <!-- $\sigma_{\mathrm{ax},1}^\mathrm{d}$ -->
     <g transform="translate(195.0779 207.86395) scale(0.08 -0.08)">
      <defs>
       <path id="CMR17-78" d="M 1664 1477 
C 1856 1726 2074 2006 2253 2216 
C 2464 2458 2707 2560 2989 2560 
L 2989 2726 
C 2880 2726 2656 2726 2541 2726 
C 2368 2726 2170 2726 2022 2732 
L 2022 2566 
C 2112 2553 2163 2489 2163 2400 
C 2163 2285 2099 2215 2067 2171 
L 1594 1573 
L 1030 2306 
C 973 2376 973 2388 973 2420 
C 973 2497 1037 2560 1146 2560 
L 1146 2732 
C 992 2726 717 2726 557 2726 
C 384 2726 179 2726 38 2732 
L 38 2560 
C 384 2560 461 2534 614 2343 
L 1350 1395 
C 1363 1382 1395 1344 1395 1325 
C 1395 1299 838 619 768 530 
C 480 185 179 160 6 160 
L 6 0 
C 115 0 339 0 454 0 
C 582 0 864 0 979 -6 
L 979 160 
C 941 166 838 179 838 325 
C 838 440 890 510 947 586 
L 1478 1236 
L 2035 512 
C 2086 442 2163 346 2163 301 
C 2163 211 2086 160 1984 160 
L 1984 -6 
C 2138 0 2413 0 2573 0 
C 2746 0 2950 0 3091 -6 
L 3091 160 
C 2771 160 2675 172 2522 370 
L 1664 1477 
z
" transform="scale(0.015625)"/>
      </defs>
      <use xlink:href="#CMMI12-1b" transform="scale(0.996264)"/>
      <use xlink:href="#CMR17-64" transform="translate(59.020054 36.153639) scale(0.697382)"/>
      <use xlink:href="#CMR17-61" transform="translate(55.445461 -24.740171) scale(0.697382)"/>
      <use xlink:href="#CMR17-78" transform="translate(87.428643 -24.740171) scale(0.697382)"/>
      <use xlink:href="#CMMI12-3b" transform="translate(121.23353 -24.740171) scale(0.697382)"/>
      <use xlink:href="#CMR17-31" transform="translate(140.201463 -24.740171) scale(0.697382)"/>
     </g>
    </g>
    <g id="line2d_36">
     <path d="M 172.6779 219.504762 
L 180.6779 219.504762 
L 188.6779 219.504762 
" style="fill: none; stroke-dasharray: 3.5,5.775; stroke-dashoffset: 0; stroke: #d62728; stroke-width: 3.5"/>
    </g>
    <g id="text_18">
     <!-- $\sigma_{\mathrm{ax},2}^\mathrm{d}$ -->
     <g transform="translate(195.0779 222.304762) scale(0.08 -0.08)">
      <use xlink:href="#CMMI12-1b" transform="scale(0.996264)"/>
      <use xlink:href="#CMR17-64" transform="translate(59.020054 36.153639) scale(0.697382)"/>
      <use xlink:href="#CMR17-61" transform="translate(55.445461 -24.740171) scale(0.697382)"/>
      <use xlink:href="#CMR17-78" transform="translate(87.428643 -24.740171) scale(0.697382)"/>
      <use xlink:href="#CMMI12-3b" transform="translate(121.23353 -24.740171) scale(0.697382)"/>
      <use xlink:href="#CMR17-32" transform="translate(140.201463 -24.740171) scale(0.697382)"/>
     </g>
    </g>
    <g id="line2d_37">
     <path d="M 229.33895 175.584531 
L 237.33895 175.584531 
L 245.33895 175.584531 
" style="fill: none; stroke: #1f77b4; stroke-width: 2; stroke-linecap: square"/>
    </g>
    <g id="text_19">
     <!-- $\sigma_{\mathrm{sh},1}$ -->
     <g transform="translate(251.73895 178.384531) scale(0.08 -0.08)">
      <use xlink:href="#CMMI12-1b" transform="scale(0.996264)"/>
      <use xlink:href="#CMR17-73" transform="translate(55.445461 -14.943915) scale(0.697382)"/>
      <use xlink:href="#CMR17-68" transform="translate(80.506283 -14.943915) scale(0.697382)"/>
      <use xlink:href="#CMMI12-3b" transform="translate(116.132892 -14.943915) scale(0.697382)"/>
      <use xlink:href="#CMR17-31" transform="translate(135.100824 -14.943915) scale(0.697382)"/>
     </g>
    </g>
    <g id="line2d_38">
     <path d="M 229.33895 187.752689 
L 237.33895 187.752689 
L 245.33895 187.752689 
" style="fill: none; stroke: #ff7f0e; stroke-width: 2; stroke-linecap: square"/>
    </g>
    <g id="text_20">
     <!-- $\sigma_{\mathrm{sh},2}$ -->
     <g transform="translate(251.73895 190.552689) scale(0.08 -0.08)">
      <use xlink:href="#CMMI12-1b" transform="scale(0.996264)"/>
      <use xlink:href="#CMR17-73" transform="translate(55.445461 -14.943915) scale(0.697382)"/>
      <use xlink:href="#CMR17-68" transform="translate(80.506283 -14.943915) scale(0.697382)"/>
      <use xlink:href="#CMMI12-3b" transform="translate(116.132892 -14.943915) scale(0.697382)"/>
      <use xlink:href="#CMR17-32" transform="translate(135.100824 -14.943915) scale(0.697382)"/>
     </g>
    </g>
    <g id="line2d_39">
     <path d="M 229.33895 199.920848 
L 237.33895 199.920848 
L 245.33895 199.920848 
" style="fill: none; stroke: #2ca02c; stroke-width: 2; stroke-linecap: square"/>
    </g>
    <g id="text_21">
     <!-- $\sigma_{\mathrm{ax},1}$ -->
     <g transform="translate(251.73895 202.720848) scale(0.08 -0.08)">
      <use xlink:href="#CMMI12-1b" transform="scale(0.996264)"/>
      <use xlink:href="#CMR17-61" transform="translate(55.445461 -14.943915) scale(0.697382)"/>
      <use xlink:href="#CMR17-78" transform="translate(87.428643 -14.943915) scale(0.697382)"/>
      <use xlink:href="#CMMI12-3b" transform="translate(121.23353 -14.943915) scale(0.697382)"/>
      <use xlink:href="#CMR17-31" transform="translate(140.201463 -14.943915) scale(0.697382)"/>
     </g>
    </g>
    <g id="line2d_40">
     <path d="M 229.33895 211.790109 
L 237.33895 211.790109 
L 245.33895 211.790109 
" style="fill: none; stroke: #d62728; stroke-width: 2; stroke-linecap: square"/>
    </g>
    <g id="text_22">
     <!-- $\sigma_{\mathrm{ax},2}$ -->
     <g transform="translate(251.73895 214.590109) scale(0.08 -0.08)">
      <use xlink:href="#CMMI12-1b" transform="scale(0.996264)"/>
      <use xlink:href="#CMR17-61" transform="translate(55.445461 -14.943915) scale(0.697382)"/>
      <use xlink:href="#CMR17-78" transform="translate(87.428643 -14.943915) scale(0.697382)"/>
      <use xlink:href="#CMMI12-3b" transform="translate(121.23353 -14.943915) scale(0.697382)"/>
      <use xlink:href="#CMR17-32" transform="translate(140.201463 -14.943915) scale(0.697382)"/>
     </g>
    </g>
   </g>
  </g>
 </g>
 <defs>
  <clipPath id="p03959b8cf7">
   <rect x="62.204133" y="10.8" width="214.995867" height="222.181683"/>
  </clipPath>
 </defs>
</svg>
