<?xml version="1.0" encoding="utf-8" standalone="no"?>
<!DOCTYPE svg PUBLIC "-//W3C//DTD SVG 1.1//EN"
  "http://www.w3.org/Graphics/SVG/1.1/DTD/svg11.dtd">
<svg xmlns:xlink="http://www.w3.org/1999/xlink" width="288pt" height="273.6pt" viewBox="0 0 288 273.6" xmlns="http://www.w3.org/2000/svg" version="1.1">
 <metadata>
  <rdf:RDF xmlns:dc="http://purl.org/dc/elements/1.1/" xmlns:cc="http://creativecommons.org/ns#" xmlns:rdf="http://www.w3.org/1999/02/22-rdf-syntax-ns#">
   <cc:Work>
    <dc:type rdf:resource="http://purl.org/dc/dcmitype/StillImage"/>
    <dc:date>2024-10-30T11:13:19.764722</dc:date>
    <dc:format>image/svg+xml</dc:format>
    <dc:creator>
     <cc:Agent>
      <dc:title>Matplotlib v3.9.2, https://matplotlib.org/</dc:title>
     </cc:Agent>
    </dc:creator>
   </cc:Work>
  </rdf:RDF>
 </metadata>
 <defs>
  <style type="text/css">*{stroke-linejoin: round; stroke-linecap: butt}</style>
 </defs>
 <g id="figure_1">
  <g id="patch_1">
   <path d="M 0 273.6 
L 288 273.6 
L 288 0 
L 0 0 
z
" style="fill: #ffffff"/>
  </g>
  <g id="axes_1">
   <g id="patch_2">
    <path d="M 49.474054 232.981683 
L 277.2 232.981683 
L 277.2 11.278277 
L 49.474054 11.278277 
z
" style="fill: #ffffff"/>
   </g>
   <g id="matplotlib.axis_1">
    <g id="xtick_1">
     <g id="line2d_1">
      <path d="M 59.825234 232.981683 
L 59.825234 11.278277 
" clip-path="url(#p7523a2b476)" style="fill: none; stroke: #b0b0b0; stroke-width: 0.8; stroke-linecap: square"/>
     </g>
     <g id="line2d_2">
      <defs>
       <path id="m1e87314d68" d="M 0 0 
L 0 3.5 
" style="stroke: #000000; stroke-width: 0.8"/>
      </defs>
      <g>
       <use xlink:href="#m1e87314d68" x="59.825234" y="232.981683" style="stroke: #000000; stroke-width: 0.8"/>
      </g>
     </g>
     <g id="text_1">
      <!-- $\mathdefault{0}$ -->
      <g transform="translate(57.334566 246.900182) scale(0.1 -0.1)">
       <defs>
        <path id="CMR17-30" d="M 2688 2025 
C 2688 2416 2682 3080 2413 3591 
C 2176 4039 1798 4198 1466 4198 
C 1158 4198 768 4058 525 3597 
C 269 3118 243 2524 243 2025 
C 243 1661 250 1106 448 619 
C 723 -39 1216 -128 1466 -128 
C 1760 -128 2208 -7 2470 600 
C 2662 1042 2688 1559 2688 2025 
z
M 1466 -26 
C 1056 -26 813 325 723 812 
C 653 1188 653 1738 653 2096 
C 653 2588 653 2997 736 3387 
C 858 3929 1216 4096 1466 4096 
C 1728 4096 2067 3923 2189 3400 
C 2272 3036 2278 2607 2278 2096 
C 2278 1680 2278 1169 2202 792 
C 2067 95 1690 -26 1466 -26 
z
" transform="scale(0.015625)"/>
       </defs>
       <use xlink:href="#CMR17-30" transform="scale(0.996264)"/>
      </g>
     </g>
    </g>
    <g id="xtick_2">
     <g id="line2d_3">
      <path d="M 118.97483 232.981683 
L 118.97483 11.278277 
" clip-path="url(#p7523a2b476)" style="fill: none; stroke: #b0b0b0; stroke-width: 0.8; stroke-linecap: square"/>
     </g>
     <g id="line2d_4">
      <g>
       <use xlink:href="#m1e87314d68" x="118.97483" y="232.981683" style="stroke: #000000; stroke-width: 0.8"/>
      </g>
     </g>
     <g id="text_2">
      <!-- $\mathdefault{10}$ -->
      <g transform="translate(113.993495 246.900182) scale(0.1 -0.1)">
       <defs>
        <path id="CMR17-31" d="M 1702 4058 
C 1702 4192 1696 4192 1606 4192 
C 1357 3916 979 3827 621 3827 
C 602 3827 570 3827 563 3808 
C 557 3795 557 3782 557 3648 
C 755 3648 1088 3686 1344 3839 
L 1344 461 
C 1344 236 1331 160 781 160 
L 589 160 
L 589 0 
C 896 0 1216 0 1523 0 
C 1830 0 2150 0 2458 0 
L 2458 160 
L 2266 160 
C 1715 160 1702 230 1702 458 
L 1702 4058 
z
" transform="scale(0.015625)"/>
       </defs>
       <use xlink:href="#CMR17-31" transform="scale(0.996264)"/>
       <use xlink:href="#CMR17-30" transform="translate(45.690477 0) scale(0.996264)"/>
      </g>
     </g>
    </g>
    <g id="xtick_3">
     <g id="line2d_5">
      <path d="M 178.124426 232.981683 
L 178.124426 11.278277 
" clip-path="url(#p7523a2b476)" style="fill: none; stroke: #b0b0b0; stroke-width: 0.8; stroke-linecap: square"/>
     </g>
     <g id="line2d_6">
      <g>
       <use xlink:href="#m1e87314d68" x="178.124426" y="232.981683" style="stroke: #000000; stroke-width: 0.8"/>
      </g>
     </g>
     <g id="text_3">
      <!-- $\mathdefault{20}$ -->
      <g transform="translate(173.143091 246.900182) scale(0.1 -0.1)">
       <defs>
        <path id="CMR17-32" d="M 2669 989 
L 2554 989 
C 2490 536 2438 459 2413 420 
C 2381 369 1920 369 1830 369 
L 602 369 
C 832 619 1280 1072 1824 1597 
C 2214 1967 2669 2402 2669 3035 
C 2669 3790 2067 4224 1395 4224 
C 691 4224 262 3604 262 3030 
C 262 2780 448 2748 525 2748 
C 589 2748 781 2787 781 3010 
C 781 3207 614 3264 525 3264 
C 486 3264 448 3258 422 3245 
C 544 3790 915 4058 1306 4058 
C 1862 4058 2227 3617 2227 3035 
C 2227 2479 1901 2000 1536 1584 
L 262 146 
L 262 0 
L 2515 0 
L 2669 989 
z
" transform="scale(0.015625)"/>
       </defs>
       <use xlink:href="#CMR17-32" transform="scale(0.996264)"/>
       <use xlink:href="#CMR17-30" transform="translate(45.690477 0) scale(0.996264)"/>
      </g>
     </g>
    </g>
    <g id="xtick_4">
     <g id="line2d_7">
      <path d="M 237.274023 232.981683 
L 237.274023 11.278277 
" clip-path="url(#p7523a2b476)" style="fill: none; stroke: #b0b0b0; stroke-width: 0.8; stroke-linecap: square"/>
     </g>
     <g id="line2d_8">
      <g>
       <use xlink:href="#m1e87314d68" x="237.274023" y="232.981683" style="stroke: #000000; stroke-width: 0.8"/>
      </g>
     </g>
     <g id="text_4">
      <!-- $\mathdefault{30}$ -->
      <g transform="translate(232.292687 246.900182) scale(0.1 -0.1)">
       <defs>
        <path id="CMR17-33" d="M 1414 2157 
C 1984 2157 2234 1662 2234 1090 
C 2234 320 1824 25 1453 25 
C 1114 25 563 194 390 693 
C 422 680 454 680 486 680 
C 640 680 755 782 755 948 
C 755 1133 614 1216 486 1216 
C 378 1216 211 1165 211 926 
C 211 335 787 -128 1466 -128 
C 2176 -128 2720 430 2720 1085 
C 2720 1707 2208 2157 1600 2227 
C 2086 2328 2554 2756 2554 3329 
C 2554 3820 2048 4179 1472 4179 
C 890 4179 378 3829 378 3329 
C 378 3110 544 3072 627 3072 
C 762 3072 877 3155 877 3321 
C 877 3486 762 3569 627 3569 
C 602 3569 570 3569 544 3557 
C 730 3959 1235 4032 1459 4032 
C 1683 4032 2106 3925 2106 3320 
C 2106 3143 2080 2828 1862 2550 
C 1670 2304 1453 2304 1242 2284 
C 1210 2284 1062 2269 1037 2269 
C 992 2263 966 2257 966 2208 
C 966 2163 973 2157 1101 2157 
L 1414 2157 
z
" transform="scale(0.015625)"/>
       </defs>
       <use xlink:href="#CMR17-33" transform="scale(0.996264)"/>
       <use xlink:href="#CMR17-30" transform="translate(45.690477 0) scale(0.996264)"/>
      </g>
     </g>
    </g>
    <g id="text_5">
     <!-- Time $t$ [s] -->
     <g transform="translate(142.138719 260.30934) scale(0.1 -0.1)">
      <defs>
       <path id="CMR17-54" d="M 3981 4326 
L 288 4326 
L 179 2918 
L 294 2918 
C 378 3976 467 4160 1453 4160 
C 1568 4160 1754 4160 1805 4154 
C 1926 4135 1926 4058 1926 3912 
L 1926 459 
C 1926 230 1907 160 1376 160 
L 1197 160 
L 1197 0 
C 1504 0 1824 0 2138 0 
C 2451 0 2771 0 3078 0 
L 3078 160 
L 2899 160 
C 2368 160 2349 230 2349 459 
L 2349 3912 
C 2349 4052 2349 4129 2464 4154 
C 2515 4160 2701 4160 2816 4160 
C 3795 4160 3891 3976 3974 2918 
L 4090 2918 
L 3981 4326 
z
" transform="scale(0.015625)"/>
       <path id="CMR17-69" d="M 992 3909 
C 992 4049 877 4170 730 4170 
C 589 4170 467 4056 467 3909 
C 467 3769 582 3648 730 3648 
C 870 3648 992 3763 992 3909 
z
M 243 2706 
L 243 2541 
C 602 2541 653 2502 653 2197 
L 653 427 
C 653 184 627 153 218 153 
L 218 -13 
C 371 0 646 0 806 0 
C 960 0 1222 0 1370 -13 
L 1370 153 
C 992 153 979 191 979 420 
L 979 2776 
L 243 2706 
z
" transform="scale(0.015625)"/>
       <path id="CMR17-6d" d="M 4326 1933 
C 4326 2252 4269 2790 3507 2790 
C 3072 2790 2771 2496 2656 2151 
L 2650 2151 
C 2573 2676 2195 2790 1837 2790 
C 1331 2790 1069 2400 973 2144 
L 966 2144 
L 966 2790 
L 211 2720 
L 211 2554 
C 589 2554 646 2515 646 2208 
L 646 428 
C 646 184 621 153 211 153 
L 211 -13 
C 365 0 646 0 813 0 
C 979 0 1267 0 1421 -13 
L 1421 153 
C 1011 153 986 178 986 428 
L 986 1658 
C 986 2247 1344 2688 1792 2688 
C 2266 2688 2317 2266 2317 1958 
L 2317 428 
C 2317 184 2291 153 1882 153 
L 1882 -13 
C 2035 0 2317 0 2483 0 
C 2650 0 2938 0 3091 -13 
L 3091 153 
C 2682 153 2656 178 2656 428 
L 2656 1658 
C 2656 2247 3014 2688 3462 2688 
C 3936 2688 3987 2266 3987 1958 
L 3987 428 
C 3987 184 3962 153 3552 153 
L 3552 -13 
C 3706 0 3987 0 4154 0 
C 4320 0 4608 0 4762 -13 
L 4762 153 
C 4352 153 4326 178 4326 428 
L 4326 1933 
z
" transform="scale(0.015625)"/>
       <path id="CMR17-65" d="M 2438 1472 
C 2464 1498 2464 1511 2464 1576 
C 2464 2238 2118 2816 1389 2816 
C 710 2816 173 2169 173 1383 
C 173 551 781 -64 1459 -64 
C 2176 -64 2458 607 2458 740 
C 2458 784 2419 784 2406 784 
C 2362 784 2355 771 2330 696 
C 2189 265 1837 51 1504 51 
C 1229 51 954 203 781 480 
C 582 803 582 1176 582 1472 
L 2438 1472 
z
M 589 1568 
C 634 2505 1126 2714 1382 2714 
C 1818 2714 2112 2297 2118 1568 
L 589 1568 
z
" transform="scale(0.015625)"/>
       <path id="CMMI12-74" d="M 1286 2566 
L 1875 2566 
C 1997 2566 2061 2566 2061 2681 
C 2061 2752 2022 2752 1894 2752 
L 1331 2752 
L 1568 3692 
C 1594 3781 1594 3794 1594 3840 
C 1594 3943 1510 4000 1427 4000 
C 1376 4000 1229 3981 1178 3775 
L 928 2752 
L 326 2752 
C 198 2752 141 2752 141 2630 
C 141 2566 186 2566 307 2566 
L 877 2566 
L 454 881 
C 403 658 384 594 384 511 
C 384 211 595 -64 954 -64 
C 1600 -64 1946 868 1946 912 
C 1946 951 1920 970 1882 970 
C 1869 970 1843 970 1830 944 
C 1824 938 1818 931 1773 829 
C 1638 511 1344 64 973 64 
C 781 64 768 224 768 364 
C 768 370 768 492 787 568 
L 1286 2566 
z
" transform="scale(0.015625)"/>
       <path id="CMR17-5b" d="M 1504 -1600 
L 1504 -1377 
L 902 -1377 
L 902 4544 
L 1504 4544 
L 1504 4767 
L 678 4767 
L 678 -1600 
L 1504 -1600 
z
" transform="scale(0.015625)"/>
       <path id="CMR17-73" d="M 1978 2697 
C 1978 2813 1971 2819 1933 2819 
C 1907 2819 1901 2813 1824 2717 
C 1805 2691 1747 2626 1728 2601 
C 1523 2819 1235 2819 1126 2819 
C 416 2819 160 2447 160 2076 
C 160 1498 813 1365 998 1325 
C 1402 1243 1542 1217 1677 1101 
C 1760 1025 1901 884 1901 654 
C 1901 384 1747 38 1158 38 
C 602 38 403 460 288 1021 
C 269 1110 269 1117 218 1117 
C 166 1117 160 1110 160 983 
L 160 63 
C 160 -51 166 -58 205 -58 
C 237 -58 243 -51 275 0 
C 314 57 410 211 448 276 
C 576 103 800 -64 1158 -64 
C 1792 -64 2131 283 2131 784 
C 2131 1112 1958 1285 1875 1362 
C 1683 1561 1459 1606 1190 1657 
C 838 1735 390 1825 390 2217 
C 390 2383 480 2737 1126 2737 
C 1811 2737 1850 2094 1862 1888 
C 1869 1856 1901 1849 1920 1849 
C 1978 1849 1978 1869 1978 1978 
L 1978 2697 
z
" transform="scale(0.015625)"/>
       <path id="CMR17-5d" d="M 915 4767 
L 90 4767 
L 90 4544 
L 691 4544 
L 691 -1377 
L 90 -1377 
L 90 -1600 
L 915 -1600 
L 915 4767 
z
" transform="scale(0.015625)"/>
      </defs>
      <use xlink:href="#CMR17-54" transform="scale(0.996264)"/>
      <use xlink:href="#CMR17-69" transform="translate(66.509881 0) scale(0.996264)"/>
      <use xlink:href="#CMR17-6d" transform="translate(91.380939 0) scale(0.996264)"/>
      <use xlink:href="#CMR17-65" transform="translate(168.300529 0) scale(0.996264)"/>
      <use xlink:href="#CMMI12-74" transform="translate(238.862156 0) scale(0.996264)"/>
      <use xlink:href="#CMR17-5b" transform="translate(304.164452 0) scale(0.996264)"/>
      <use xlink:href="#CMR17-73" transform="translate(329.035511 0) scale(0.996264)"/>
      <use xlink:href="#CMR17-5d" transform="translate(364.836848 0) scale(0.996264)"/>
     </g>
    </g>
   </g>
   <g id="matplotlib.axis_2">
    <g id="ytick_1">
     <g id="line2d_9">
      <path d="M 49.474054 216.210707 
L 277.2 216.210707 
" clip-path="url(#p7523a2b476)" style="fill: none; stroke: #b0b0b0; stroke-width: 0.8; stroke-linecap: square"/>
     </g>
     <g id="line2d_10">
      <defs>
       <path id="m26d1e9db98" d="M 0 0 
L -3.5 0 
" style="stroke: #000000; stroke-width: 0.8"/>
      </defs>
      <g>
       <use xlink:href="#m26d1e9db98" x="49.474054" y="216.210707" style="stroke: #000000; stroke-width: 0.8"/>
      </g>
     </g>
     <g id="text_6">
      <!-- $\mathdefault{−30}$ -->
      <g transform="translate(24.76264 219.669956) scale(0.1 -0.1)">
       <defs>
        <path id="CMSY10-0" d="M 4218 1472 
C 4326 1472 4442 1472 4442 1600 
C 4442 1728 4326 1728 4218 1728 
L 755 1728 
C 646 1728 531 1728 531 1600 
C 531 1472 646 1472 755 1472 
L 4218 1472 
z
" transform="scale(0.015625)"/>
       </defs>
       <use xlink:href="#CMSY10-0" transform="scale(0.996264)"/>
       <use xlink:href="#CMR17-33" transform="translate(77.487468 0) scale(0.996264)"/>
       <use xlink:href="#CMR17-30" transform="translate(123.177945 0) scale(0.996264)"/>
      </g>
     </g>
    </g>
    <g id="ytick_2">
     <g id="line2d_11">
      <path d="M 49.474054 187.382798 
L 277.2 187.382798 
" clip-path="url(#p7523a2b476)" style="fill: none; stroke: #b0b0b0; stroke-width: 0.8; stroke-linecap: square"/>
     </g>
     <g id="line2d_12">
      <g>
       <use xlink:href="#m26d1e9db98" x="49.474054" y="187.382798" style="stroke: #000000; stroke-width: 0.8"/>
      </g>
     </g>
     <g id="text_7">
      <!-- $\mathdefault{−20}$ -->
      <g transform="translate(24.76264 190.842047) scale(0.1 -0.1)">
       <use xlink:href="#CMSY10-0" transform="scale(0.996264)"/>
       <use xlink:href="#CMR17-32" transform="translate(77.487468 0) scale(0.996264)"/>
       <use xlink:href="#CMR17-30" transform="translate(123.177945 0) scale(0.996264)"/>
      </g>
     </g>
    </g>
    <g id="ytick_3">
     <g id="line2d_13">
      <path d="M 49.474054 158.554889 
L 277.2 158.554889 
" clip-path="url(#p7523a2b476)" style="fill: none; stroke: #b0b0b0; stroke-width: 0.8; stroke-linecap: square"/>
     </g>
     <g id="line2d_14">
      <g>
       <use xlink:href="#m26d1e9db98" x="49.474054" y="158.554889" style="stroke: #000000; stroke-width: 0.8"/>
      </g>
     </g>
     <g id="text_8">
      <!-- $\mathdefault{−10}$ -->
      <g transform="translate(24.76264 162.014138) scale(0.1 -0.1)">
       <use xlink:href="#CMSY10-0" transform="scale(0.996264)"/>
       <use xlink:href="#CMR17-31" transform="translate(77.487468 0) scale(0.996264)"/>
       <use xlink:href="#CMR17-30" transform="translate(123.177945 0) scale(0.996264)"/>
      </g>
     </g>
    </g>
    <g id="ytick_4">
     <g id="line2d_15">
      <path d="M 49.474054 129.726979 
L 277.2 129.726979 
" clip-path="url(#p7523a2b476)" style="fill: none; stroke: #b0b0b0; stroke-width: 0.8; stroke-linecap: square"/>
     </g>
     <g id="line2d_16">
      <g>
       <use xlink:href="#m26d1e9db98" x="49.474054" y="129.726979" style="stroke: #000000; stroke-width: 0.8"/>
      </g>
     </g>
     <g id="text_9">
      <!-- $\mathdefault{0}$ -->
      <g transform="translate(37.492719 133.186228) scale(0.1 -0.1)">
       <use xlink:href="#CMR17-30" transform="scale(0.996264)"/>
      </g>
     </g>
    </g>
    <g id="ytick_5">
     <g id="line2d_17">
      <path d="M 49.474054 100.89907 
L 277.2 100.89907 
" clip-path="url(#p7523a2b476)" style="fill: none; stroke: #b0b0b0; stroke-width: 0.8; stroke-linecap: square"/>
     </g>
     <g id="line2d_18">
      <g>
       <use xlink:href="#m26d1e9db98" x="49.474054" y="100.89907" style="stroke: #000000; stroke-width: 0.8"/>
      </g>
     </g>
     <g id="text_10">
      <!-- $\mathdefault{10}$ -->
      <g transform="translate(32.511384 104.358319) scale(0.1 -0.1)">
       <use xlink:href="#CMR17-31" transform="scale(0.996264)"/>
       <use xlink:href="#CMR17-30" transform="translate(45.690477 0) scale(0.996264)"/>
      </g>
     </g>
    </g>
    <g id="ytick_6">
     <g id="line2d_19">
      <path d="M 49.474054 72.07116 
L 277.2 72.07116 
" clip-path="url(#p7523a2b476)" style="fill: none; stroke: #b0b0b0; stroke-width: 0.8; stroke-linecap: square"/>
     </g>
     <g id="line2d_20">
      <g>
       <use xlink:href="#m26d1e9db98" x="49.474054" y="72.07116" style="stroke: #000000; stroke-width: 0.8"/>
      </g>
     </g>
     <g id="text_11">
      <!-- $\mathdefault{20}$ -->
      <g transform="translate(32.511384 75.53041) scale(0.1 -0.1)">
       <use xlink:href="#CMR17-32" transform="scale(0.996264)"/>
       <use xlink:href="#CMR17-30" transform="translate(45.690477 0) scale(0.996264)"/>
      </g>
     </g>
    </g>
    <g id="ytick_7">
     <g id="line2d_21">
      <path d="M 49.474054 43.243251 
L 277.2 43.243251 
" clip-path="url(#p7523a2b476)" style="fill: none; stroke: #b0b0b0; stroke-width: 0.8; stroke-linecap: square"/>
     </g>
     <g id="line2d_22">
      <g>
       <use xlink:href="#m26d1e9db98" x="49.474054" y="43.243251" style="stroke: #000000; stroke-width: 0.8"/>
      </g>
     </g>
     <g id="text_12">
      <!-- $\mathdefault{30}$ -->
      <g transform="translate(32.511384 46.7025) scale(0.1 -0.1)">
       <use xlink:href="#CMR17-33" transform="scale(0.996264)"/>
       <use xlink:href="#CMR17-30" transform="translate(45.690477 0) scale(0.996264)"/>
      </g>
     </g>
    </g>
    <g id="ytick_8">
     <g id="line2d_23">
      <path d="M 49.474054 14.415342 
L 277.2 14.415342 
" clip-path="url(#p7523a2b476)" style="fill: none; stroke: #b0b0b0; stroke-width: 0.8; stroke-linecap: square"/>
     </g>
     <g id="line2d_24">
      <g>
       <use xlink:href="#m26d1e9db98" x="49.474054" y="14.415342" style="stroke: #000000; stroke-width: 0.8"/>
      </g>
     </g>
     <g id="text_13">
      <!-- $\mathdefault{40}$ -->
      <g transform="translate(32.511384 17.874591) scale(0.1 -0.1)">
       <defs>
        <path id="CMR17-34" d="M 2150 4122 
C 2150 4256 2144 4256 2029 4256 
L 128 1254 
L 128 1088 
L 1779 1088 
L 1779 457 
C 1779 224 1766 160 1318 160 
L 1197 160 
L 1197 0 
C 1402 0 1747 0 1965 0 
C 2182 0 2528 0 2733 0 
L 2733 160 
L 2611 160 
C 2163 160 2150 224 2150 457 
L 2150 1088 
L 2803 1088 
L 2803 1254 
L 2150 1254 
L 2150 4122 
z
M 1798 3703 
L 1798 1254 
L 256 1254 
L 1798 3703 
z
" transform="scale(0.015625)"/>
       </defs>
       <use xlink:href="#CMR17-34" transform="scale(0.996264)"/>
       <use xlink:href="#CMR17-30" transform="translate(45.690477 0) scale(0.996264)"/>
      </g>
     </g>
    </g>
    <g id="text_14">
     <!-- Bending strain $\kappa_\mathrm{be}$ [rad/m] -->
     <g transform="translate(18.27198 181.340945) rotate(-90) scale(0.1 -0.1)">
      <defs>
       <path id="CMR17-42" d="M 333 4352 
L 333 4186 
C 774 4186 845 4186 845 3900 
L 845 452 
C 845 166 774 166 333 166 
L 333 0 
L 2534 0 
C 3354 0 3885 583 3885 1164 
C 3885 1741 3360 2233 2675 2233 
C 3290 2356 3718 2771 3718 3264 
C 3718 3802 3194 4352 2368 4352 
L 333 4352 
z
M 1248 2304 
L 1248 3937 
C 1248 4155 1261 4186 1517 4186 
L 2336 4186 
C 2970 4186 3251 3674 3251 3277 
C 3251 2791 2861 2304 2170 2304 
L 1248 2304 
z
M 1517 166 
C 1261 166 1248 197 1248 413 
L 1248 2202 
L 2432 2202 
C 3091 2202 3411 1625 3411 1162 
C 3411 699 3046 166 2349 166 
L 1517 166 
z
" transform="scale(0.015625)"/>
       <path id="CMR17-6e" d="M 2656 1933 
C 2656 2259 2592 2790 1837 2790 
C 1331 2790 1069 2400 973 2144 
L 966 2144 
L 966 2790 
L 211 2720 
L 211 2554 
C 589 2554 646 2515 646 2208 
L 646 428 
C 646 184 621 153 211 153 
L 211 -13 
C 365 0 646 0 813 0 
C 979 0 1267 0 1421 -13 
L 1421 153 
C 1011 153 986 178 986 428 
L 986 1658 
C 986 2247 1344 2688 1792 2688 
C 2266 2688 2317 2266 2317 1958 
L 2317 428 
C 2317 184 2291 153 1882 153 
L 1882 -13 
C 2035 0 2317 0 2483 0 
C 2650 0 2938 0 3091 -13 
L 3091 153 
C 2682 153 2656 178 2656 428 
L 2656 1933 
z
" transform="scale(0.015625)"/>
       <path id="CMR17-64" d="M 1869 4326 
L 1869 4160 
C 2246 4160 2304 4122 2304 3820 
L 2304 2345 
C 2278 2377 2016 2790 1498 2790 
C 845 2790 211 2208 211 1364 
C 211 525 806 -64 1434 -64 
C 1978 -64 2259 337 2291 380 
L 2291 -63 
L 3066 -63 
L 3066 128 
C 2688 128 2630 166 2630 473 
L 2630 4396 
L 1869 4326 
z
M 2291 755 
C 2291 563 2176 390 2029 262 
C 1811 70 1594 38 1472 38 
C 1286 38 621 134 621 1356 
C 621 2612 1363 2688 1530 2688 
C 1824 2688 2061 2522 2208 2291 
C 2291 2157 2291 2138 2291 2023 
L 2291 755 
z
" transform="scale(0.015625)"/>
       <path id="CMR17-67" d="M 710 1164 
C 832 1068 1043 960 1299 960 
C 1805 960 2240 1357 2240 1888 
C 2240 2054 2189 2310 1997 2509 
C 2176 2692 2438 2752 2586 2752 
C 2611 2752 2650 2752 2682 2734 
C 2656 2728 2598 2703 2598 2605 
C 2598 2527 2656 2471 2739 2471 
C 2835 2471 2886 2533 2886 2614 
C 2886 2731 2790 2854 2586 2854 
C 2330 2854 2106 2738 1926 2580 
C 1734 2753 1504 2816 1299 2816 
C 794 2816 358 2419 358 1888 
C 358 1522 570 1292 634 1228 
C 442 1004 442 743 442 711 
C 442 545 506 302 723 168 
C 390 85 128 -169 128 -486 
C 128 -943 736 -1280 1466 -1280 
C 2170 -1280 2803 -956 2803 -479 
C 2803 384 1856 384 1363 384 
C 1216 384 954 384 922 391 
C 723 423 589 602 589 826 
C 589 883 589 1024 710 1164 
z
M 1299 1068 
C 736 1068 736 1760 736 1889 
C 736 2016 736 2708 1299 2708 
C 1862 2708 1862 2016 1862 1889 
C 1862 1760 1862 1068 1299 1068 
z
M 1466 -1171 
C 826 -1171 384 -835 384 -486 
C 384 -289 493 -105 634 -4 
C 794 104 858 104 1293 104 
C 1818 104 2547 104 2547 -486 
C 2547 -835 2106 -1171 1466 -1171 
z
" transform="scale(0.015625)"/>
       <path id="CMR17-74" d="M 966 2560 
L 1862 2560 
L 1862 2725 
L 966 2725 
L 966 3904 
L 851 3904 
C 838 3245 614 2668 70 2668 
L 70 2560 
L 627 2560 
L 627 771 
C 627 650 627 -64 1370 -64 
C 1747 -64 1965 306 1965 777 
L 1965 1140 
L 1850 1140 
L 1850 783 
C 1850 344 1677 51 1408 51 
C 1222 51 966 178 966 758 
L 966 2560 
z
" transform="scale(0.015625)"/>
       <path id="CMR17-72" d="M 960 1497 
C 960 2112 1222 2688 1702 2688 
C 1747 2688 1792 2682 1837 2662 
C 1837 2662 1696 2617 1696 2452 
C 1696 2298 1818 2234 1914 2234 
C 1990 2234 2131 2279 2131 2458 
C 2131 2663 1926 2790 1709 2790 
C 1222 2790 1011 2317 947 2093 
L 941 2093 
L 941 2790 
L 198 2720 
L 198 2554 
C 576 2554 634 2515 634 2208 
L 634 428 
C 634 184 608 153 198 153 
L 198 -13 
C 352 0 646 0 813 0 
C 998 0 1325 0 1498 -13 
L 1498 153 
C 1037 153 960 153 960 440 
L 960 1497 
z
" transform="scale(0.015625)"/>
       <path id="CMR17-61" d="M 2304 1653 
C 2304 2072 2304 2294 2035 2543 
C 1798 2752 1523 2816 1306 2816 
C 800 2816 435 2407 435 1971 
C 435 1728 627 1728 666 1728 
C 749 1728 896 1778 896 1954 
C 896 2112 774 2181 666 2181 
C 640 2181 608 2174 589 2168 
C 723 2592 1069 2714 1293 2714 
C 1613 2714 1965 2429 1965 1885 
L 1965 1600 
C 1587 1600 1133 1549 774 1357 
C 371 1133 256 813 256 570 
C 256 77 832 -64 1171 -64 
C 1523 -64 1850 139 1990 511 
C 2003 233 2182 -18 2464 -18 
C 2598 -18 2938 70 2938 567 
L 2938 920 
L 2822 920 
L 2822 562 
C 2822 178 2650 128 2566 128 
C 2304 128 2304 458 2304 738 
L 2304 1653 
z
M 1965 870 
C 1965 317 1568 38 1216 38 
C 896 38 646 275 646 570 
C 646 761 730 1100 1101 1305 
C 1408 1478 1760 1504 1965 1504 
L 1965 870 
z
" transform="scale(0.015625)"/>
       <path id="CMMI12-14" d="M 1363 1600 
C 1574 1714 1811 1912 1971 2046 
C 2355 2377 2496 2479 2739 2574 
C 2714 2536 2707 2485 2707 2441 
C 2707 2268 2854 2236 2918 2236 
C 3123 2236 3238 2427 3238 2548 
C 3238 2586 3226 2752 3002 2752 
C 2618 2752 2240 2431 1958 2198 
C 1587 1876 1402 1738 1139 1656 
L 1382 2656 
C 1382 2759 1299 2816 1216 2816 
C 1158 2816 1018 2797 966 2592 
L 371 224 
C 352 148 352 134 352 96 
C 352 6 422 -64 518 -64 
C 710 -64 749 106 781 244 
C 819 380 1082 1472 1094 1472 
C 1907 1472 2182 1264 2182 943 
C 2182 897 2182 878 2163 806 
C 2138 682 2138 609 2138 570 
C 2138 178 2387 -64 2701 -64 
C 2963 -64 3110 123 3206 291 
C 3341 543 3424 898 3424 923 
C 3424 956 3398 981 3360 981 
C 3302 981 3296 956 3270 852 
C 3187 542 3046 64 2720 64 
C 2579 64 2509 148 2509 374 
C 2509 498 2534 641 2560 737 
C 2573 802 2592 880 2592 951 
C 2592 1541 1786 1600 1363 1600 
z
" transform="scale(0.015625)"/>
       <path id="CMR17-62" d="M 960 4396 
L 198 4326 
L 198 4160 
C 576 4160 634 4122 634 3817 
L 634 -13 
L 749 -13 
L 934 441 
C 1120 141 1395 -64 1766 -64 
C 2406 -64 3053 500 3053 1370 
C 3053 2188 2477 2790 1830 2790 
C 1434 2790 1152 2579 960 2330 
L 960 4396 
z
M 973 2004 
C 973 2118 973 2138 1062 2272 
C 1312 2657 1670 2688 1792 2688 
C 1984 2688 2643 2585 2643 1376 
C 2643 108 1888 38 1734 38 
C 1536 38 1248 114 1043 486 
C 973 608 973 621 973 735 
L 973 2004 
z
" transform="scale(0.015625)"/>
       <path id="CMR17-2f" d="M 2605 4545 
C 2637 4627 2637 4640 2637 4653 
C 2637 4729 2579 4768 2528 4768 
C 2451 4768 2426 4717 2400 4640 
L 326 -1377 
C 294 -1460 294 -1473 294 -1486 
C 294 -1562 352 -1600 403 -1600 
C 480 -1600 506 -1549 531 -1473 
L 2605 4545 
z
" transform="scale(0.015625)"/>
      </defs>
      <use xlink:href="#CMR17-42" transform="scale(0.996264)"/>
      <use xlink:href="#CMR17-65" transform="translate(65.188754 0) scale(0.996264)"/>
      <use xlink:href="#CMR17-6e" transform="translate(105.674415 0) scale(0.996264)"/>
      <use xlink:href="#CMR17-64" transform="translate(156.569785 0) scale(0.996264)"/>
      <use xlink:href="#CMR17-69" transform="translate(207.465154 0) scale(0.996264)"/>
      <use xlink:href="#CMR17-6e" transform="translate(232.336213 0) scale(0.996264)"/>
      <use xlink:href="#CMR17-67" transform="translate(283.231583 0) scale(0.996264)"/>
      <use xlink:href="#CMR17-73" transform="translate(358.998026 0) scale(0.996264)"/>
      <use xlink:href="#CMR17-74" transform="translate(394.799364 0) scale(0.996264)"/>
      <use xlink:href="#CMR17-72" transform="translate(430.080132 0) scale(0.996264)"/>
      <use xlink:href="#CMR17-61" transform="translate(465.360899 0) scale(0.996264)"/>
      <use xlink:href="#CMR17-69" transform="translate(511.051377 0) scale(0.996264)"/>
      <use xlink:href="#CMR17-6e" transform="translate(535.922435 0) scale(0.996264)"/>
      <use xlink:href="#CMMI12-14" transform="translate(616.893771 0) scale(0.996264)"/>
      <use xlink:href="#CMR17-62" transform="translate(673.048395 -14.943915) scale(0.697382)"/>
      <use xlink:href="#CMR17-65" transform="translate(710.496709 -14.943915) scale(0.697382)"/>
      <use xlink:href="#CMR17-5b" transform="translate(769.410639 0) scale(0.996264)"/>
      <use xlink:href="#CMR17-72" transform="translate(794.281698 0) scale(0.996264)"/>
      <use xlink:href="#CMR17-61" transform="translate(829.562465 0) scale(0.996264)"/>
      <use xlink:href="#CMR17-64" transform="translate(875.252942 0) scale(0.996264)"/>
      <use xlink:href="#CMR17-2f" transform="translate(926.148312 0) scale(0.996264)"/>
      <use xlink:href="#CMR17-6d" transform="translate(971.838789 0) scale(0.996264)"/>
      <use xlink:href="#CMR17-5d" transform="translate(1048.758379 0) scale(0.996264)"/>
     </g>
    </g>
   </g>
   <g id="line2d_25">
    <path d="M 59.825234 177.972365 
L 89.400032 177.972365 
L 89.518331 24.896989 
L 118.97483 24.896989 
L 119.093129 144.563925 
L 148.549628 144.563925 
L 148.667927 28.733746 
L 178.124426 28.733746 
L 178.242725 93.016756 
L 207.699224 93.016756 
L 207.817524 219.526563 
L 237.274023 219.526563 
L 237.392322 40.94023 
L 266.848821 40.94023 
L 266.848821 40.94023 
" clip-path="url(#p7523a2b476)" style="fill: none; stroke-dasharray: 3.5,5.775; stroke-dashoffset: 0; stroke: #1f77b4; stroke-width: 3.5"/>
   </g>
   <g id="line2d_26">
    <path d="M 59.825234 102.152494 
L 89.400032 102.152494 
L 89.518331 145.569757 
L 118.97483 145.569757 
L 119.093129 117.988081 
L 148.549628 117.988081 
L 148.667927 147.018669 
L 178.124426 147.018669 
L 178.242725 105.128878 
L 207.699224 105.128878 
L 207.817524 116.946849 
L 237.274023 116.946849 
L 237.392322 144.301285 
L 266.848821 144.301285 
L 266.848821 144.301285 
" clip-path="url(#p7523a2b476)" style="fill: none; stroke-dasharray: 3.5,5.775; stroke-dashoffset: 0; stroke: #ff7f0e; stroke-width: 3.5"/>
   </g>
   <g id="line2d_27">
    <path d="M 59.825234 129.726979 
L 60.594178 154.967788 
L 61.126525 164.955436 
L 61.718021 172.0143 
L 62.309517 176.639435 
L 62.841863 179.414347 
L 63.25591 180.45498 
L 63.610808 180.786251 
L 63.906556 180.782925 
L 64.261453 180.536525 
L 64.7938 179.825866 
L 65.621894 178.248179 
L 66.095091 177.44857 
L 66.390839 177.319073 
L 66.686587 177.409969 
L 67.100634 177.800115 
L 67.573831 178.267865 
L 67.869579 178.260476 
L 68.224476 178.015233 
L 68.579374 177.779905 
L 68.875122 177.823352 
L 69.584917 178.097722 
L 70.353862 177.900616 
L 70.945358 178.045406 
L 71.596003 177.921708 
L 72.187499 178.015238 
L 72.778995 177.938825 
L 73.370491 177.996193 
L 73.961987 177.958042 
L 74.553483 177.97792 
L 75.144979 177.974413 
L 75.736475 177.96426 
L 76.387121 177.990251 
L 77.92501 177.966541 
L 79.3446 177.963746 
L 81.355687 177.964819 
L 89.400032 177.97358 
L 89.577481 115.003945 
L 90.109827 79.277083 
L 90.642173 57.521076 
L 91.17452 43.905198 
L 91.766016 34.357747 
L 92.357512 28.202008 
L 93.008157 23.716283 
L 93.422204 22.186381 
L 93.777102 21.55132 
L 94.07285 21.364018 
L 94.368598 21.403543 
L 94.723495 21.683792 
L 95.255842 22.440056 
L 96.024787 23.975559 
L 96.793731 25.493635 
L 97.089479 25.640279 
L 97.385227 25.56565 
L 97.799274 25.18895 
L 98.44992 24.537462 
L 98.745668 24.593219 
L 99.159715 24.947524 
L 99.514613 25.118841 
L 99.810361 25.021717 
L 100.401857 24.745752 
L 100.756754 24.913147 
L 101.111652 25.015595 
L 101.584849 24.819678 
L 101.939746 24.843076 
L 102.472093 24.967661 
L 103.181888 24.865217 
L 103.714234 24.938555 
L 104.30573 24.864203 
L 104.897226 24.920747 
L 105.488722 24.88218 
L 106.080218 24.903349 
L 106.612564 24.887581 
L 107.20406 24.898835 
L 107.795556 24.901629 
L 108.446202 24.88106 
L 109.865792 24.889171 
L 111.167083 24.906957 
L 113.592217 24.90418 
L 116.372248 24.894437 
L 118.97483 24.900412 
L 119.093129 131.169795 
L 119.684625 137.516453 
L 120.335271 142.047017 
L 120.985916 145.17075 
L 121.399963 146.201414 
L 121.754861 146.52619 
L 122.050609 146.519421 
L 122.405507 146.271186 
L 122.937853 145.561883 
L 124.002546 144.014483 
L 124.298294 144.049673 
L 124.653191 144.323427 
L 125.244687 144.84378 
L 125.540435 144.788583 
L 126.368529 144.409318 
L 127.196624 144.644401 
L 127.78812 144.477516 
L 128.497915 144.61373 
L 129.030261 144.503897 
L 129.740056 144.587044 
L 130.272403 144.532741 
L 130.863899 144.586553 
L 131.455395 144.549909 
L 132.046891 144.569774 
L 132.638387 144.565425 
L 133.229883 144.556337 
L 133.821379 144.576115 
L 134.590323 144.543987 
L 137.370354 144.573545 
L 139.972937 144.557005 
L 148.549628 144.56281 
L 148.727077 115.480009 
L 149.259423 81.021942 
L 149.79177 60.010732 
L 150.324116 46.863112 
L 150.915612 37.640507 
L 151.507108 31.686596 
L 152.098604 27.661952 
L 152.512651 26.101657 
L 152.867549 25.450332 
L 153.163297 25.253918 
L 153.459045 25.290331 
L 153.813942 25.562074 
L 154.346289 26.308841 
L 155.115233 27.831419 
L 155.884178 29.337595 
L 156.179926 29.474001 
L 156.475674 29.389668 
L 156.889721 29.004563 
L 157.481217 28.389824 
L 157.776965 28.412255 
L 158.131863 28.680689 
L 158.54591 28.955923 
L 158.841658 28.883707 
L 159.492303 28.587093 
L 160.438697 28.756479 
L 160.852744 28.641582 
L 161.799138 28.709472 
L 162.154035 28.678287 
L 162.86383 28.75041 
L 163.337027 28.694568 
L 163.987673 28.751272 
L 164.520019 28.711973 
L 165.111515 28.746964 
L 165.703011 28.728622 
L 166.294507 28.731666 
L 166.886003 28.741864 
L 167.536648 28.715349 
L 169.015388 28.733792 
L 170.139231 28.736958 
L 171.558821 28.743638 
L 174.220553 28.72643 
L 178.124426 28.73602 
L 178.183576 128.207144 
L 178.242725 126.372498 
L 178.775072 112.57285 
L 179.307418 103.947917 
L 179.898914 97.814964 
L 180.54956 93.39127 
L 181.022756 91.368464 
L 181.377654 90.651279 
L 181.732552 90.406677 
L 182.0283 90.462839 
L 182.442347 90.823028 
L 183.033843 91.714816 
L 184.216835 93.635946 
L 184.512583 93.617007 
L 184.86748 93.355463 
L 185.577275 92.703301 
L 185.873023 92.778202 
L 186.701118 93.186974 
L 187.529212 92.925529 
L 188.120708 93.108417 
L 188.889653 92.988277 
L 189.36285 93.072442 
L 190.072645 93.000987 
L 190.604991 93.037986 
L 191.196487 93.005008 
L 191.787983 93.020167 
L 192.379479 93.020163 
L 192.970975 93.008209 
L 193.73992 93.035763 
L 197.762092 93.015509 
L 200.423824 93.018418 
L 205.214941 93.015635 
L 207.699224 93.017515 
L 207.876673 142.463609 
L 208.40902 173.240474 
L 208.941366 192.017437 
L 209.473712 203.799713 
L 210.065208 212.104291 
L 210.656704 217.515208 
L 211.2482 221.097666 
L 211.662247 222.352161 
L 212.017145 222.818709 
L 212.312893 222.903463 
L 212.66779 222.737576 
L 213.140987 222.186978 
L 213.791633 221.034099 
L 214.974625 218.855227 
L 215.270373 218.819286 
L 215.62527 219.026428 
L 216.630813 219.869168 
L 216.985711 219.659131 
L 217.458908 219.316291 
L 217.754656 219.374382 
L 218.464451 219.657094 
L 219.292545 219.47286 
L 219.765742 219.618074 
L 220.712136 219.552431 
L 221.067033 219.578905 
L 221.717679 219.497343 
L 222.250025 219.560758 
L 222.900671 219.514688 
L 223.433017 219.542381 
L 224.024513 219.519233 
L 224.616009 219.52633 
L 225.207505 219.533072 
L 225.85815 219.509376 
L 227.277741 219.519934 
L 228.579032 219.536868 
L 231.122464 219.527416 
L 233.488448 219.521621 
L 237.274023 219.529095 
L 237.392322 121.521272 
L 237.924668 89.361122 
L 238.457014 69.783906 
L 238.989361 57.525536 
L 239.580857 48.911308 
L 240.172353 43.327852 
L 240.763849 39.592664 
L 241.177896 38.231438 
L 241.532793 37.701373 
L 241.828541 37.580325 
L 242.183439 37.711549 
L 242.597486 38.14643 
L 243.188982 39.117996 
L 244.608572 41.641816 
L 244.90432 41.620506 
L 245.259218 41.361054 
L 246.087312 40.591823 
L 246.38306 40.687374 
L 247.211155 41.132044 
L 248.157548 40.87716 
L 248.630745 41.050307 
L 249.636288 40.970346 
L 249.991186 40.9988 
L 250.641831 40.90427 
L 251.233327 40.968071 
L 251.824823 40.921097 
L 252.35717 40.962925 
L 253.007815 40.937733 
L 253.540161 40.946042 
L 254.131657 40.941468 
L 254.782303 40.926299 
L 256.024445 40.92225 
L 264.541986 40.93823 
L 266.848821 40.938185 
L 266.848821 40.938185 
" clip-path="url(#p7523a2b476)" style="fill: none; stroke: #1f77b4; stroke-width: 2; stroke-linecap: square"/>
   </g>
   <g id="line2d_28">
    <path d="M 59.825234 129.726979 
L 60.29843 119.713574 
L 60.889926 111.508841 
L 61.540572 105.62596 
L 62.191218 101.631779 
L 62.605265 100.176643 
L 62.960162 99.585906 
L 63.25591 99.422125 
L 63.551658 99.482006 
L 63.965705 99.843105 
L 64.557201 100.739464 
L 65.799343 102.784068 
L 66.095091 102.761256 
L 66.449988 102.501325 
L 67.159784 101.853033 
L 67.455532 101.925428 
L 68.224476 102.316045 
L 69.11172 102.100598 
L 69.584917 102.235606 
L 70.472161 102.164561 
L 70.886208 102.186153 
L 71.477704 102.128913 
L 72.12835 102.156875 
L 72.719846 102.153312 
L 73.370491 102.141916 
L 74.730932 102.140632 
L 77.865861 102.149183 
L 84.668064 102.151453 
L 89.400032 102.152878 
L 89.518331 131.813881 
L 90.109827 138.029803 
L 90.760473 142.794749 
L 91.470268 146.393387 
L 91.884315 147.438149 
L 92.239212 147.779967 
L 92.53496 147.784029 
L 92.889858 147.540207 
L 93.422204 146.816179 
L 94.605196 144.980142 
L 94.900944 145.005903 
L 95.255842 145.27321 
L 95.906487 145.863606 
L 96.202235 145.805143 
L 97.03033 145.424773 
L 97.799274 145.64853 
L 98.39077 145.494604 
L 99.100566 145.601657 
L 99.632912 145.537146 
L 100.283558 145.575702 
L 100.875053 145.573721 
L 101.466549 145.559955 
L 102.176345 145.590187 
L 109.451745 145.565994 
L 115.130106 145.567226 
L 118.97483 145.571006 
L 119.093129 128.462506 
L 119.743775 123.259218 
L 120.45357 119.328675 
L 121.045066 117.016751 
L 121.399963 116.369813 
L 121.695711 116.17281 
L 121.991459 116.208363 
L 122.346357 116.481042 
L 122.878703 117.219583 
L 123.765947 118.506449 
L 124.061695 118.501706 
L 124.416593 118.256985 
L 125.067238 117.722201 
L 125.362986 117.805296 
L 126.072782 118.132556 
L 126.900876 117.934819 
L 127.374073 118.061728 
L 128.202167 117.990166 
L 128.616214 118.020084 
L 129.26686 117.979273 
L 129.858356 117.988443 
L 130.449852 117.993808 
L 131.159647 117.970017 
L 135.891614 117.988786 
L 139.44059 117.99072 
L 148.549628 117.987703 
L 148.727077 132.739044 
L 149.377722 139.743173 
L 150.028368 144.497371 
L 150.679014 147.828076 
L 151.093061 148.918632 
L 151.447958 149.289721 
L 151.743706 149.313014 
L 152.098604 149.085474 
L 152.571801 148.477974 
L 153.281596 147.16871 
L 153.695643 146.526388 
L 153.991391 146.40949 
L 154.287139 146.508611 
L 154.701186 146.914281 
L 155.115233 147.295696 
L 155.410981 147.28603 
L 155.825028 146.992217 
L 156.179926 146.842708 
L 156.534824 146.983883 
L 156.948871 147.134969 
L 157.422068 146.948416 
L 157.776965 146.974651 
L 158.309311 147.072539 
L 159.019107 147.004259 
L 159.551453 147.033993 
L 160.202099 147.023441 
L 160.911894 147.001344 
L 178.124426 147.019447 
L 178.301875 126.097117 
L 178.834221 117.342017 
L 179.425717 111.033396 
L 180.076363 106.428276 
L 180.608709 103.880024 
L 181.022756 102.922429 
L 181.377654 102.633253 
L 181.673402 102.660322 
L 182.0283 102.92769 
L 182.560646 103.662936 
L 183.921087 105.75784 
L 184.216835 105.691306 
L 184.630882 105.319483 
L 185.104079 104.852515 
L 185.399827 104.852048 
L 185.754724 105.091065 
L 186.109622 105.305995 
L 186.40537 105.251945 
L 187.056015 105.02318 
L 187.82496 105.171163 
L 188.357306 105.079952 
L 189.067102 105.139142 
L 189.599448 105.1152 
L 190.250093 105.127283 
L 191.019038 105.142898 
L 207.699224 105.12914 
L 207.758374 128.751103 
L 207.817524 128.045945 
L 208.40902 122.977513 
L 209.118815 118.615742 
L 209.76946 115.845409 
L 210.124358 115.14317 
L 210.479255 114.898434 
L 210.775003 114.951326 
L 211.129901 115.244779 
L 211.662247 116.009834 
L 212.608641 117.486534 
L 212.904389 117.5069 
L 213.259286 117.281327 
L 214.028231 116.660281 
L 214.383129 116.813106 
L 214.915475 117.113921 
L 215.270373 116.975423 
L 215.68442 116.836571 
L 216.689963 116.917236 
L 217.044861 116.898503 
L 217.695506 116.967744 
L 218.287002 116.939957 
L 218.878498 116.943797 
L 219.529144 116.962261 
L 220.948734 116.957871 
L 222.486623 116.934687 
L 233.25185 116.947256 
L 237.274023 116.947807 
L 237.392322 131.597383 
L 238.042967 137.811106 
L 238.752762 142.475072 
L 239.403408 145.402033 
L 239.817455 146.24391 
L 240.172353 146.468174 
L 240.468101 146.40258 
L 240.822998 146.09628 
L 241.355345 145.322857 
L 242.360888 143.742596 
L 242.656636 143.732788 
L 243.011533 143.967545 
L 243.780478 144.590994 
L 244.135376 144.437661 
L 244.667722 144.128913 
L 245.02262 144.263181 
L 245.436667 144.415809 
L 245.850714 144.253838 
L 246.205612 144.238459 
L 246.856257 144.338954 
L 247.447753 144.274829 
L 248.039249 144.315285 
L 248.689895 144.306167 
L 249.458839 144.285182 
L 253.362713 144.307902 
L 256.142744 144.297925 
L 260.046617 144.301739 
L 266.848821 144.300545 
L 266.848821 144.300545 
" clip-path="url(#p7523a2b476)" style="fill: none; stroke: #ff7f0e; stroke-width: 2; stroke-linecap: square"/>
   </g>
   <g id="patch_3">
    <path d="M 49.474054 232.981683 
L 49.474054 11.278277 
" style="fill: none; stroke: #000000; stroke-width: 0.8; stroke-linejoin: miter; stroke-linecap: square"/>
   </g>
   <g id="patch_4">
    <path d="M 277.2 232.981683 
L 277.2 11.278277 
" style="fill: none; stroke: #000000; stroke-width: 0.8; stroke-linejoin: miter; stroke-linecap: square"/>
   </g>
   <g id="patch_5">
    <path d="M 49.474054 232.981683 
L 277.2 232.981683 
" style="fill: none; stroke: #000000; stroke-width: 0.8; stroke-linejoin: miter; stroke-linecap: square"/>
   </g>
   <g id="patch_6">
    <path d="M 49.474054 11.278277 
L 277.2 11.278277 
" style="fill: none; stroke: #000000; stroke-width: 0.8; stroke-linejoin: miter; stroke-linecap: square"/>
   </g>
   <g id="legend_1">
    <g id="patch_7">
     <path d="M 141.386215 228.981683 
L 185.287839 228.981683 
Q 186.887839 228.981683 186.887839 227.381683 
L 186.887839 174.365947 
Q 186.887839 172.765947 185.287839 172.765947 
L 141.386215 172.765947 
Q 139.786215 172.765947 139.786215 174.365947 
L 139.786215 227.381683 
Q 139.786215 228.981683 141.386215 228.981683 
z
" style="fill: #ffffff; opacity: 0.8; stroke: #cccccc; stroke-linejoin: miter"/>
    </g>
    <g id="line2d_29">
     <path d="M 142.986215 180.129837 
L 150.986215 180.129837 
L 158.986215 180.129837 
" style="fill: none; stroke-dasharray: 3.5,5.775; stroke-dashoffset: 0; stroke: #1f77b4; stroke-width: 3.5"/>
    </g>
    <g id="text_15">
     <!-- $\kappa_{\mathrm{be},1}^\mathrm{d}$ -->
     <g transform="translate(165.386215 182.929837) scale(0.08 -0.08)">
      <defs>
       <path id="CMMI12-3b" d="M 1248 -31 
C 1248 343 1126 619 864 619 
C 659 619 557 453 557 313 
C 557 172 653 0 870 0 
C 954 0 1024 26 1082 83 
C 1094 96 1101 96 1107 96 
C 1120 96 1120 5 1120 -27 
C 1120 -240 1082 -659 710 -1080 
C 640 -1157 640 -1170 640 -1183 
C 640 -1216 672 -1248 704 -1248 
C 755 -1248 1248 -771 1248 -31 
z
" transform="scale(0.015625)"/>
      </defs>
      <use xlink:href="#CMMI12-14" transform="scale(0.996264)"/>
      <use xlink:href="#CMR17-64" transform="translate(56.154624 36.153639) scale(0.697382)"/>
      <use xlink:href="#CMR17-62" transform="translate(56.154624 -28.215451) scale(0.697382)"/>
      <use xlink:href="#CMR17-65" transform="translate(93.602938 -28.215451) scale(0.697382)"/>
      <use xlink:href="#CMMI12-3b" transform="translate(121.94277 -28.215451) scale(0.697382)"/>
      <use xlink:href="#CMR17-31" transform="translate(140.910702 -28.215451) scale(0.697382)"/>
     </g>
    </g>
    <g id="line2d_30">
     <path d="M 142.986215 194.869547 
L 150.986215 194.869547 
L 158.986215 194.869547 
" style="fill: none; stroke-dasharray: 3.5,5.775; stroke-dashoffset: 0; stroke: #ff7f0e; stroke-width: 3.5"/>
    </g>
    <g id="text_16">
     <!-- $\kappa_{\mathrm{be},2}^\mathrm{d}$ -->
     <g transform="translate(165.386215 197.669547) scale(0.08 -0.08)">
      <use xlink:href="#CMMI12-14" transform="scale(0.996264)"/>
      <use xlink:href="#CMR17-64" transform="translate(56.154624 36.153639) scale(0.697382)"/>
      <use xlink:href="#CMR17-62" transform="translate(56.154624 -28.215451) scale(0.697382)"/>
      <use xlink:href="#CMR17-65" transform="translate(93.602938 -28.215451) scale(0.697382)"/>
      <use xlink:href="#CMMI12-3b" transform="translate(121.94277 -28.215451) scale(0.697382)"/>
      <use xlink:href="#CMR17-32" transform="translate(140.910702 -28.215451) scale(0.697382)"/>
     </g>
    </g>
    <g id="line2d_31">
     <path d="M 142.986215 208.245366 
L 150.986215 208.245366 
L 158.986215 208.245366 
" style="fill: none; stroke: #1f77b4; stroke-width: 2; stroke-linecap: square"/>
    </g>
    <g id="text_17">
     <!-- $\kappa_{\mathrm{be},1}$ -->
     <g transform="translate(165.386215 211.045366) scale(0.08 -0.08)">
      <use xlink:href="#CMMI12-14" transform="scale(0.996264)"/>
      <use xlink:href="#CMR17-62" transform="translate(56.154624 -14.943915) scale(0.697382)"/>
      <use xlink:href="#CMR17-65" transform="translate(93.602938 -14.943915) scale(0.697382)"/>
      <use xlink:href="#CMMI12-3b" transform="translate(121.94277 -14.943915) scale(0.697382)"/>
      <use xlink:href="#CMR17-31" transform="translate(140.910702 -14.943915) scale(0.697382)"/>
     </g>
    </g>
    <g id="line2d_32">
     <path d="M 142.986215 220.413524 
L 150.986215 220.413524 
L 158.986215 220.413524 
" style="fill: none; stroke: #ff7f0e; stroke-width: 2; stroke-linecap: square"/>
    </g>
    <g id="text_18">
     <!-- $\kappa_{\mathrm{be},2}$ -->
     <g transform="translate(165.386215 223.213524) scale(0.08 -0.08)">
      <use xlink:href="#CMMI12-14" transform="scale(0.996264)"/>
      <use xlink:href="#CMR17-62" transform="translate(56.154624 -14.943915) scale(0.697382)"/>
      <use xlink:href="#CMR17-65" transform="translate(93.602938 -14.943915) scale(0.697382)"/>
      <use xlink:href="#CMMI12-3b" transform="translate(121.94277 -14.943915) scale(0.697382)"/>
      <use xlink:href="#CMR17-32" transform="translate(140.910702 -14.943915) scale(0.697382)"/>
     </g>
    </g>
   </g>
  </g>
 </g>
 <defs>
  <clipPath id="p7523a2b476">
   <rect x="49.474054" y="11.278277" width="227.725946" height="221.703406"/>
  </clipPath>
 </defs>
</svg>
