<?xml version="1.0" encoding="utf-8"?>
<!-- Generator: Adobe Illustrator 28.0.0, SVG Export Plug-In . SVG Version: 6.00 Build 0)  -->
<svg version="1.1" id="Layer_1" xmlns="http://www.w3.org/2000/svg" xmlns:xlink="http://www.w3.org/1999/xlink" x="0px" y="0px"
	 viewBox="0 0 216 216" style="enable-background:new 0 0 216 216;" xml:space="preserve">
<style type="text/css">
	.st0{enable-background:new    ;}
	.st1{fill:#FFFFFF;}
	
		.st2{clip-path:url(#SVGID_00000018944212712073170900000005201836683252623780_);fill:none;stroke:#B0B0B0;stroke-width:0.8;stroke-linecap:square;stroke-linejoin:round;stroke-miterlimit:10;}
	.st3{fill:none;stroke:#000000;stroke-width:0.8;stroke-linejoin:round;stroke-miterlimit:10;}
	
		.st4{clip-path:url(#SVGID_00000026855966403177555160000001124622178711258529_);fill:none;stroke:#B0B0B0;stroke-width:0.8;stroke-linecap:square;stroke-linejoin:round;stroke-miterlimit:10;}
	
		.st5{clip-path:url(#SVGID_00000176043360332166323220000007834451291393606561_);fill:none;stroke:#B0B0B0;stroke-width:0.8;stroke-linecap:square;stroke-linejoin:round;stroke-miterlimit:10;}
	
		.st6{clip-path:url(#SVGID_00000057149523973541437030000016294311795280302522_);fill:none;stroke:#B0B0B0;stroke-width:0.8;stroke-linecap:square;stroke-linejoin:round;stroke-miterlimit:10;}
	
		.st7{clip-path:url(#SVGID_00000114769784135059470210000017369429811803859626_);fill:none;stroke:#B0B0B0;stroke-width:0.8;stroke-linecap:square;stroke-linejoin:round;stroke-miterlimit:10;}
	
		.st8{clip-path:url(#SVGID_00000175284927904294279100000003524756205413153692_);fill:none;stroke:#B0B0B0;stroke-width:0.8;stroke-linecap:square;stroke-linejoin:round;stroke-miterlimit:10;}
	
		.st9{clip-path:url(#SVGID_00000034792779084223142650000014422435504469769652_);fill:none;stroke:#B0B0B0;stroke-width:0.8;stroke-linecap:square;stroke-linejoin:round;stroke-miterlimit:10;}
	
		.st10{clip-path:url(#SVGID_00000170245695197400586670000015301638633014423457_);fill:none;stroke:#B0B0B0;stroke-width:0.8;stroke-linecap:square;stroke-linejoin:round;stroke-miterlimit:10;}
	
		.st11{clip-path:url(#SVGID_00000117651485317914394210000007264624563929316023_);fill:none;stroke:#B0B0B0;stroke-width:0.8;stroke-linecap:square;stroke-linejoin:round;stroke-miterlimit:10;}
	
		.st12{clip-path:url(#SVGID_00000023995185719103516590000010537046956761307036_);fill:none;stroke:#B0B0B0;stroke-width:0.8;stroke-linecap:square;stroke-linejoin:round;stroke-miterlimit:10;}
	.st13{fill:none;stroke:#000000;stroke-width:2.5;stroke-linejoin:round;stroke-miterlimit:10;stroke-dasharray:3,2;}
	.st14{fill:none;stroke:#000000;stroke-width:0.8;stroke-linecap:square;stroke-miterlimit:10;}
	.st15{opacity:0.8;fill:#FFFFFF;}
	.st16{opacity:0.8;fill:none;stroke:#CCCCCC;stroke-miterlimit:10;}
	.st17{fill:none;stroke:#1F77B4;stroke-width:2;stroke-linecap:square;stroke-linejoin:round;stroke-miterlimit:10;}
</style>
<g class="st0">
	<rect class="st1" width="216" height="216"/>
	<rect x="46.7" y="10.8" class="st1" width="158.5" height="164.6"/>
	<g>
		<defs>
			<rect id="SVGID_1_" x="172" y="10" width="2" height="165"/>
		</defs>
		<clipPath id="SVGID_00000078031017083395297970000016522080872157471933_">
			<use xlink:href="#SVGID_1_"  style="overflow:visible;"/>
		</clipPath>
		
			<line style="clip-path:url(#SVGID_00000078031017083395297970000016522080872157471933_);fill:none;stroke:#B0B0B0;stroke-width:0.8;stroke-linecap:square;stroke-linejoin:round;stroke-miterlimit:10;" x1="173.4" y1="175.4" x2="173.4" y2="10.8"/>
	</g>
	<line class="st3" x1="173.4" y1="175.4" x2="173.4" y2="178.9"/>
	<path d="M179.2,189.3c-0.6,0-1-0.5-1.2-1.3c-0.1-0.6-0.1-1.4-0.1-2c0-0.8,0-1.4,0.1-2c0.2-0.8,0.8-1.1,1.1-1.1
		c0.4,0,0.9,0.3,1.1,1.1c0.1,0.6,0.1,1.2,0.1,2c0,0.6,0,1.4-0.1,2C180.1,189.2,179.5,189.3,179.2,189.3z M181.1,186.1
		c0-0.6,0-1.6-0.4-2.4c-0.4-0.7-1-0.9-1.5-0.9c-0.5,0-1.1,0.2-1.5,0.9c-0.4,0.7-0.4,1.7-0.4,2.4c0,0.6,0,1.4,0.3,2.2
		c0.4,1,1.2,1.2,1.6,1.2c0.5,0,1.2-0.2,1.6-1.1C181,187.7,181.1,186.9,181.1,186.1z M175,183c0-0.2,0-0.2-0.2-0.2
		c-0.4,0.4-1,0.6-1.5,0.6c0,0-0.1,0-0.1,0c0,0,0,0,0,0.2c0.3,0,0.8-0.1,1.2-0.3v5.3c0,0.4,0,0.5-0.9,0.5h-0.3v0.2c0.5,0,1,0,1.5,0
		c0.5,0,1,0,1.5,0v-0.2h-0.3c-0.9,0-0.9-0.1-0.9-0.5V183z M171.1,187c0.2,0,0.3,0,0.3-0.2c0-0.2-0.2-0.2-0.3-0.2h-5.4
		c-0.2,0-0.4,0-0.4,0.2c0,0.2,0.2,0.2,0.4,0.2H171.1z"/>
	<g>
		<defs>
			<rect id="SVGID_00000175282977089252232130000015667605316019874460_" x="127" y="10" width="2" height="165"/>
		</defs>
		<clipPath id="SVGID_00000052104443523780837800000011663738754545919147_">
			<use xlink:href="#SVGID_00000175282977089252232130000015667605316019874460_"  style="overflow:visible;"/>
		</clipPath>
		
			<line style="clip-path:url(#SVGID_00000052104443523780837800000011663738754545919147_);fill:none;stroke:#B0B0B0;stroke-width:0.8;stroke-linecap:square;stroke-linejoin:round;stroke-miterlimit:10;" x1="128" y1="175.4" x2="128" y2="10.8"/>
	</g>
	<line class="st3" x1="128" y1="175.4" x2="128" y2="178.9"/>
	<path d="M127.8,189.3c-0.6,0-1-0.5-1.2-1.3c-0.1-0.6-0.1-1.4-0.1-2c0-0.8,0-1.4,0.1-2c0.2-0.8,0.7-1.1,1.1-1.1
		c0.4,0,0.9,0.3,1.1,1.1c0.1,0.6,0.1,1.2,0.1,2c0,0.6,0,1.4-0.1,2C128.7,189.2,128.1,189.3,127.8,189.3z M129.7,186.1
		c0-0.6,0-1.6-0.4-2.4c-0.4-0.7-1-0.9-1.5-0.9c-0.5,0-1.1,0.2-1.5,0.9c-0.4,0.7-0.4,1.7-0.4,2.4c0,0.6,0,1.4,0.3,2.2
		c0.4,1,1.2,1.2,1.6,1.2c0.5,0,1.2-0.2,1.6-1.1C129.6,187.7,129.7,186.9,129.7,186.1z"/>
	<g>
		<defs>
			<rect id="SVGID_00000010303865959914298590000006024174558991360959_" x="81" y="10" width="2" height="165"/>
		</defs>
		<clipPath id="SVGID_00000134246487948031510470000013813834373704352146_">
			<use xlink:href="#SVGID_00000010303865959914298590000006024174558991360959_"  style="overflow:visible;"/>
		</clipPath>
		
			<line style="clip-path:url(#SVGID_00000134246487948031510470000013813834373704352146_);fill:none;stroke:#B0B0B0;stroke-width:0.8;stroke-linecap:square;stroke-linejoin:round;stroke-miterlimit:10;" x1="82.5" y1="175.4" x2="82.5" y2="10.8"/>
	</g>
	<line class="st3" x1="82.5" y1="175.4" x2="82.5" y2="178.9"/>
	<path d="M84.4,189.3c-0.6,0-1-0.5-1.2-1.3c-0.1-0.6-0.1-1.4-0.1-2c0-0.8,0-1.4,0.1-2c0.2-0.8,0.7-1.1,1.1-1.1
		c0.4,0,0.9,0.3,1.1,1.1c0.1,0.6,0.1,1.2,0.1,2c0,0.6,0,1.4-0.1,2C85.3,189.2,84.7,189.3,84.4,189.3z M86.3,186.1
		c0-0.6,0-1.6-0.4-2.4c-0.4-0.7-1-0.9-1.5-0.9c-0.5,0-1.1,0.2-1.5,0.9c-0.4,0.7-0.4,1.7-0.4,2.4c0,0.6,0,1.4,0.3,2.2
		c0.4,1,1.2,1.2,1.6,1.2c0.5,0,1.2-0.2,1.6-1.1C86.2,187.7,86.3,186.9,86.3,186.1z M80.2,183c0-0.2,0-0.2-0.1-0.2
		c-0.4,0.4-1,0.6-1.5,0.6c0,0-0.1,0-0.1,0c0,0,0,0,0,0.2c0.3,0,0.8-0.1,1.2-0.3v5.3c0,0.4,0,0.5-0.9,0.5h-0.3v0.2c0.5,0,1,0,1.5,0
		c0.5,0,1,0,1.5,0v-0.2H81c-0.9,0-0.9-0.1-0.9-0.5V183z"/>
	<path d="M138.2,195.3h-1.3v0.3h0.9v9.2h-0.9v0.3h1.3V195.3z M135.8,199.7c0-0.5-0.1-1.3-1.3-1.3c-0.7,0-1.1,0.5-1.3,1h0
		c-0.1-0.8-0.7-1-1.3-1c-0.8,0-1.2,0.6-1.3,1h0v-1l-1.2,0.1v0.3c0.6,0,0.7,0.1,0.7,0.5v2.8c0,0.4,0,0.4-0.7,0.4v0.3
		c0.2,0,0.7,0,0.9,0s0.7,0,0.9,0v-0.3c-0.6,0-0.7,0-0.7-0.4v-1.9c0-0.9,0.6-1.6,1.3-1.6c0.7,0,0.8,0.7,0.8,1.1v2.4
		c0,0.4,0,0.4-0.7,0.4v0.3c0.2,0,0.7,0,0.9,0c0.3,0,0.7,0,0.9,0v-0.3c-0.6,0-0.7,0-0.7-0.4v-1.9c0-0.9,0.6-1.6,1.3-1.6
		c0.7,0,0.8,0.7,0.8,1.1v2.4c0,0.4,0,0.4-0.7,0.4v0.3c0.2,0,0.7,0,0.9,0c0.3,0,0.7,0,0.9,0v-0.3c-0.6,0-0.7,0-0.7-0.4V199.7z
		 M128.1,199.7c0-0.5-0.1-1.3-1.3-1.3c-0.7,0-1.1,0.5-1.3,1h0c-0.1-0.8-0.7-1-1.3-1c-0.8,0-1.2,0.6-1.3,1h0v-1l-1.2,0.1v0.3
		c0.6,0,0.7,0.1,0.7,0.5v2.8c0,0.4,0,0.4-0.7,0.4v0.3c0.2,0,0.7,0,0.9,0s0.7,0,0.9,0v-0.3c-0.6,0-0.7,0-0.7-0.4v-1.9
		c0-0.9,0.6-1.6,1.3-1.6c0.7,0,0.8,0.7,0.8,1.1v2.4c0,0.4,0,0.4-0.7,0.4v0.3c0.2,0,0.7,0,0.9,0c0.3,0,0.7,0,0.9,0v-0.3
		c-0.6,0-0.7,0-0.7-0.4v-1.9c0-0.9,0.6-1.6,1.3-1.6c0.7,0,0.8,0.7,0.8,1.1v2.4c0,0.4,0,0.4-0.7,0.4v0.3c0.2,0,0.7,0,0.9,0
		c0.3,0,0.7,0,0.9,0v-0.3c-0.6,0-0.7,0-0.7-0.4V199.7z M121.3,205.2v-0.3h-0.9v-9.2h0.9v-0.3H120v9.9H121.3z M115.1,198.7
		c-0.3,0.1-0.4,0.3-0.4,0.5c0,0.2,0.2,0.3,0.3,0.3c0.3,0,0.5-0.3,0.5-0.5c0-0.4-0.5-0.6-0.9-0.6c-0.6,0-0.9,0.6-1,0.8
		c-0.2-0.8-0.8-0.8-1-0.8c-1,0-1.6,1.3-1.6,1.5c0,0,0,0.1,0.1,0.1c0.1,0,0.1-0.1,0.1-0.1c0.3-1.1,1-1.3,1.3-1.3
		c0.4,0,0.5,0.4,0.5,0.7c0,0.2-0.1,0.4-0.2,0.9l-0.3,1.4c-0.1,0.6-0.4,1.1-1,1.1c0,0-0.3,0-0.5-0.1c0.4-0.1,0.4-0.4,0.4-0.5
		c0-0.2-0.1-0.3-0.3-0.3c-0.2,0-0.5,0.2-0.5,0.5c0,0.4,0.5,0.6,0.9,0.6c0.5,0,0.8-0.4,1-0.8c0.2,0.6,0.7,0.8,1,0.8
		c1,0,1.6-1.3,1.6-1.5c0-0.1,0-0.1-0.1-0.1c-0.1,0-0.1,0-0.1,0.1c-0.3,0.9-0.8,1.3-1.3,1.3c-0.3,0-0.5-0.3-0.5-0.7
		c0-0.2,0-0.4,0.2-1l0.3-1.4c0.1-0.6,0.5-1,0.9-1C114.6,198.5,114.9,198.5,115.1,198.7z"/>
	<g>
		<defs>
			<rect id="SVGID_00000070106193089438289310000014744756811491133337_" x="47" y="19" width="158" height="2"/>
		</defs>
		<clipPath id="SVGID_00000057144527286216592870000016561461224569763465_">
			<use xlink:href="#SVGID_00000070106193089438289310000014744756811491133337_"  style="overflow:visible;"/>
		</clipPath>
		
			<line style="clip-path:url(#SVGID_00000057144527286216592870000016561461224569763465_);fill:none;stroke:#B0B0B0;stroke-width:0.8;stroke-linecap:square;stroke-linejoin:round;stroke-miterlimit:10;" x1="46.7" y1="19.8" x2="205.2" y2="19.8"/>
	</g>
	<line class="st3" x1="46.7" y1="19.8" x2="43.2" y2="19.8"/>
	<path d="M36.2,23.2c-0.6,0-1-0.5-1.2-1.3c-0.1-0.6-0.1-1.4-0.1-2c0-0.8,0-1.4,0.1-2c0.2-0.8,0.7-1.1,1.1-1.1c0.4,0,0.9,0.3,1.1,1.1
		c0.1,0.6,0.1,1.2,0.1,2c0,0.6,0,1.4-0.1,2C37.1,23.1,36.5,23.2,36.2,23.2z M38.1,20.1c0-0.6,0-1.6-0.4-2.4c-0.4-0.7-1-0.9-1.5-0.9
		c-0.5,0-1.1,0.2-1.5,0.9c-0.4,0.7-0.4,1.7-0.4,2.4c0,0.6,0,1.4,0.3,2.2c0.4,1,1.2,1.2,1.6,1.2c0.5,0,1.2-0.2,1.6-1.1
		C38,21.6,38.1,20.8,38.1,20.1z M32,16.9c0-0.2,0-0.2-0.1-0.2c-0.4,0.4-1,0.6-1.5,0.6c0,0-0.1,0-0.1,0c0,0,0,0,0,0.2
		c0.3,0,0.8-0.1,1.2-0.3v5.3c0,0.3,0,0.5-0.9,0.5h-0.3v0.2c0.5,0,1,0,1.5,0c0.5,0,1,0,1.5,0V23h-0.3C32,23,32,22.9,32,22.5V16.9z
		 M27.4,16.9c0-0.2,0-0.2-0.1-0.2c-0.4,0.4-1,0.6-1.5,0.6c0,0-0.1,0-0.1,0c0,0,0,0,0,0.2c0.3,0,0.8-0.1,1.2-0.3v5.3
		c0,0.3,0,0.5-0.9,0.5h-0.3v0.2c0.5,0,1,0,1.5,0c0.5,0,1,0,1.5,0V23h-0.3c-0.9,0-0.9-0.1-0.9-0.5V16.9z"/>
	<g>
		<defs>
			<rect id="SVGID_00000031888340136869722140000007206042366621448114_" x="47" y="41" width="158" height="2"/>
		</defs>
		<clipPath id="SVGID_00000094602793898578940950000007811807984576214926_">
			<use xlink:href="#SVGID_00000031888340136869722140000007206042366621448114_"  style="overflow:visible;"/>
		</clipPath>
		
			<line style="clip-path:url(#SVGID_00000094602793898578940950000007811807984576214926_);fill:none;stroke:#B0B0B0;stroke-width:0.8;stroke-linecap:square;stroke-linejoin:round;stroke-miterlimit:10;" x1="46.7" y1="42.5" x2="205.2" y2="42.5"/>
	</g>
	<line class="st3" x1="46.7" y1="42.5" x2="43.2" y2="42.5"/>
	<path d="M35,40.2c0.1,0,0.5,0.2,0.9,0.2c0.9,0,1.4-0.5,1.7-0.8c0-0.1,0-0.1-0.1-0.1c0,0,0,0-0.1,0c-0.3,0.2-0.8,0.3-1.3,0.3
		c-0.3,0-0.7,0-1.2-0.3c-0.1-0.1-0.1-0.1-0.1-0.1c-0.1,0-0.1,0-0.1,0.2v2.9c0,0.2,0,0.2,0.1,0.2c0.1,0,0.1,0,0.1-0.1
		c0.3-0.4,0.8-0.6,1.3-0.6c0.3,0,1.1,0.2,1.1,1.9c0,0.3,0,0.9-0.3,1.4c-0.2,0.4-0.6,0.6-1.1,0.6c-0.7,0-1.3-0.5-1.5-1.2
		c0,0,0.1,0,0.2,0c0.1,0,0.4-0.1,0.4-0.4c0-0.3-0.2-0.4-0.4-0.4c-0.2,0-0.4,0.1-0.4,0.4c0,0.9,0.7,1.8,1.7,1.8c1,0,2-0.9,2-2.2
		c0-1.2-0.8-2.1-1.7-2.1c-0.5,0-0.9,0.2-1.3,0.5V40.2z M32,39.6c0-0.2,0-0.2-0.1-0.2c-0.4,0.4-1,0.6-1.5,0.6c0,0-0.1,0-0.1,0
		c0,0,0,0,0,0.2c0.3,0,0.8-0.1,1.2-0.3v5.3c0,0.4,0,0.5-0.9,0.5h-0.3v0.2c0.5,0,1,0,1.5,0c0.5,0,1,0,1.5,0v-0.2h-0.3
		c-0.9,0-0.9-0.1-0.9-0.5V39.6z M27.4,39.6c0-0.2,0-0.2-0.1-0.2c-0.4,0.4-1,0.6-1.5,0.6c0,0-0.1,0-0.1,0c0,0,0,0,0,0.2
		c0.3,0,0.8-0.1,1.2-0.3v5.3c0,0.4,0,0.5-0.9,0.5h-0.3v0.2c0.5,0,1,0,1.5,0c0.5,0,1,0,1.5,0v-0.2h-0.3c-0.9,0-0.9-0.1-0.9-0.5V39.6z
		"/>
	<g>
		<defs>
			<rect id="SVGID_00000148619165332445528000000013527287491273663625_" x="47" y="64" width="158" height="2"/>
		</defs>
		<clipPath id="SVGID_00000030486918918794840970000009047401234444603040_">
			<use xlink:href="#SVGID_00000148619165332445528000000013527287491273663625_"  style="overflow:visible;"/>
		</clipPath>
		
			<line style="clip-path:url(#SVGID_00000030486918918794840970000009047401234444603040_);fill:none;stroke:#B0B0B0;stroke-width:0.8;stroke-linecap:square;stroke-linejoin:round;stroke-miterlimit:10;" x1="46.7" y1="65.2" x2="205.2" y2="65.2"/>
	</g>
	<line class="st3" x1="46.7" y1="65.2" x2="43.2" y2="65.2"/>
	<path d="M36.2,68.7c-0.6,0-1-0.5-1.2-1.3c-0.1-0.6-0.1-1.4-0.1-2c0-0.8,0-1.4,0.1-2c0.2-0.8,0.7-1.1,1.1-1.1c0.4,0,0.9,0.3,1.1,1.1
		c0.1,0.6,0.1,1.2,0.1,2c0,0.6,0,1.4-0.1,2C37.1,68.5,36.5,68.7,36.2,68.7z M38.1,65.5c0-0.6,0-1.6-0.4-2.4c-0.4-0.7-1-0.9-1.5-0.9
		c-0.5,0-1.1,0.2-1.5,0.9c-0.4,0.7-0.4,1.7-0.4,2.4c0,0.6,0,1.4,0.3,2.2c0.4,1,1.2,1.2,1.6,1.2c0.5,0,1.2-0.2,1.6-1.1
		C38,67.1,38.1,66.3,38.1,65.5z M33.5,67.1h-0.2c-0.1,0.7-0.2,0.8-0.2,0.9c-0.1,0.1-0.8,0.1-0.9,0.1h-1.9c0.4-0.4,1.1-1.1,1.9-1.9
		c0.6-0.6,1.3-1.3,1.3-2.2c0-1.2-0.9-1.9-2-1.9c-1.1,0-1.8,1-1.8,1.9c0,0.4,0.3,0.4,0.4,0.4c0.1,0,0.4-0.1,0.4-0.4
		c0-0.3-0.3-0.4-0.4-0.4c-0.1,0-0.1,0-0.2,0c0.2-0.8,0.8-1.3,1.4-1.3c0.9,0,1.4,0.7,1.4,1.6c0,0.9-0.5,1.6-1.1,2.3l-2,2.2v0.2h3.5
		L33.5,67.1z M27.4,62.4c0-0.2,0-0.2-0.1-0.2c-0.4,0.4-1,0.6-1.5,0.6c0,0-0.1,0-0.1,0c0,0,0,0,0,0.2c0.3,0,0.8-0.1,1.2-0.3V68
		c0,0.3,0,0.5-0.9,0.5h-0.3v0.2c0.5,0,1,0,1.5,0c0.5,0,1,0,1.5,0v-0.2h-0.3c-0.9,0-0.9-0.1-0.9-0.5V62.4z"/>
	<g>
		<defs>
			<rect id="SVGID_00000054261630576931838520000015965194977157464994_" x="47" y="87" width="158" height="2"/>
		</defs>
		<clipPath id="SVGID_00000150062240456874422230000008402240225977036968_">
			<use xlink:href="#SVGID_00000054261630576931838520000015965194977157464994_"  style="overflow:visible;"/>
		</clipPath>
		
			<line style="clip-path:url(#SVGID_00000150062240456874422230000008402240225977036968_);fill:none;stroke:#B0B0B0;stroke-width:0.8;stroke-linecap:square;stroke-linejoin:round;stroke-miterlimit:10;" x1="46.7" y1="88" x2="205.2" y2="88"/>
	</g>
	<line class="st3" x1="46.7" y1="88" x2="43.2" y2="88"/>
	<path d="M35,85.7c0.1,0,0.5,0.2,0.9,0.2c0.9,0,1.4-0.5,1.7-0.8c0-0.1,0-0.1-0.1-0.1c0,0,0,0-0.1,0c-0.3,0.2-0.8,0.3-1.3,0.3
		c-0.3,0-0.7,0-1.2-0.3c-0.1,0-0.1,0-0.1,0c-0.1,0-0.1,0-0.1,0.2V88c0,0.2,0,0.2,0.1,0.2c0.1,0,0.1,0,0.1-0.1
		c0.3-0.4,0.8-0.6,1.3-0.6c0.3,0,1.1,0.2,1.1,1.9c0,0.3,0,0.9-0.3,1.4c-0.2,0.4-0.6,0.6-1.1,0.6c-0.7,0-1.3-0.5-1.5-1.2
		c0,0,0.1,0,0.2,0c0.1,0,0.4-0.1,0.4-0.4c0-0.3-0.2-0.4-0.4-0.4c-0.2,0-0.4,0.1-0.4,0.4c0,0.9,0.7,1.8,1.7,1.8c1,0,2-0.9,2-2.2
		c0-1.2-0.8-2.1-1.7-2.1c-0.5,0-0.9,0.2-1.3,0.5V85.7z M33.5,89.9h-0.2c-0.1,0.7-0.2,0.8-0.2,0.9c-0.1,0.1-0.8,0.1-0.9,0.1h-1.9
		c0.4-0.4,1.1-1.1,1.9-1.9c0.6-0.6,1.3-1.2,1.3-2.2c0-1.2-0.9-1.8-2-1.8c-1.1,0-1.8,1-1.8,1.9c0,0.4,0.3,0.4,0.4,0.4
		c0.1,0,0.4-0.1,0.4-0.4c0-0.3-0.3-0.4-0.4-0.4c-0.1,0-0.1,0-0.2,0c0.2-0.8,0.8-1.3,1.4-1.3c0.9,0,1.4,0.7,1.4,1.6
		c0,0.9-0.5,1.6-1.1,2.3l-2,2.2v0.2h3.5L33.5,89.9z M27.4,85.1c0-0.2,0-0.2-0.1-0.2c-0.4,0.4-1,0.6-1.5,0.6c0,0-0.1,0-0.1,0
		c0,0,0,0,0,0.2c0.3,0,0.8-0.1,1.2-0.3v5.3c0,0.4,0,0.5-0.9,0.5h-0.3v0.2c0.5,0,1,0,1.5,0c0.5,0,1,0,1.5,0v-0.2h-0.3
		c-0.9,0-0.9-0.1-0.9-0.5V85.1z"/>
	<g>
		<defs>
			<rect id="SVGID_00000057831667205773482740000016612286057368053419_" x="47" y="110" width="158" height="2"/>
		</defs>
		<clipPath id="SVGID_00000171704297566718515340000001406802191142756232_">
			<use xlink:href="#SVGID_00000057831667205773482740000016612286057368053419_"  style="overflow:visible;"/>
		</clipPath>
		
			<line style="clip-path:url(#SVGID_00000171704297566718515340000001406802191142756232_);fill:none;stroke:#B0B0B0;stroke-width:0.8;stroke-linecap:square;stroke-linejoin:round;stroke-miterlimit:10;" x1="46.7" y1="110.7" x2="205.2" y2="110.7"/>
	</g>
	<line class="st3" x1="46.7" y1="110.7" x2="43.2" y2="110.7"/>
	<path d="M36.2,114.2c-0.6,0-1-0.5-1.2-1.3c-0.1-0.6-0.1-1.4-0.1-2c0-0.8,0-1.4,0.1-2c0.2-0.8,0.7-1.1,1.1-1.1
		c0.4,0,0.9,0.3,1.1,1.1c0.1,0.6,0.1,1.2,0.1,2c0,0.6,0,1.4-0.1,2C37.1,114,36.5,114.2,36.2,114.2z M38.1,111c0-0.6,0-1.6-0.4-2.4
		c-0.4-0.7-1-0.9-1.5-0.9c-0.5,0-1.1,0.2-1.5,0.9c-0.4,0.7-0.4,1.7-0.4,2.4c0,0.6,0,1.4,0.3,2.2c0.4,1,1.2,1.2,1.6,1.2
		c0.5,0,1.2-0.2,1.6-1.1C38,112.5,38.1,111.7,38.1,111z M31.5,110.8c0.9,0,1.3,0.8,1.3,1.7c0,1.2-0.6,1.7-1.2,1.7
		c-0.5,0-1.4-0.3-1.7-1c0.1,0,0.1,0,0.2,0c0.2,0,0.4-0.2,0.4-0.4c0-0.3-0.2-0.4-0.4-0.4c-0.2,0-0.4,0.1-0.4,0.4c0,0.9,0.9,1.6,2,1.6
		c1.1,0,2-0.9,2-1.9c0-1-0.8-1.7-1.7-1.8c0.8-0.2,1.5-0.8,1.5-1.7c0-0.8-0.8-1.3-1.7-1.3c-0.9,0-1.7,0.5-1.7,1.3
		c0,0.3,0.3,0.4,0.4,0.4c0.2,0,0.4-0.1,0.4-0.4c0-0.3-0.2-0.4-0.4-0.4c0,0-0.1,0-0.1,0c0.3-0.6,1.1-0.7,1.4-0.7c0.4,0,1,0.2,1,1.1
		c0,0.3,0,0.8-0.4,1.2c-0.3,0.4-0.6,0.4-1,0.4c-0.1,0-0.3,0-0.3,0c-0.1,0-0.1,0-0.1,0.1c0,0.1,0,0.1,0.2,0.1H31.5z M27.4,107.8
		c0-0.2,0-0.2-0.1-0.2c-0.4,0.4-1,0.6-1.5,0.6c0,0-0.1,0-0.1,0c0,0,0,0,0,0.2c0.3,0,0.8-0.1,1.2-0.3v5.3c0,0.3,0,0.5-0.9,0.5h-0.3
		v0.2c0.5,0,1,0,1.5,0c0.5,0,1,0,1.5,0v-0.2h-0.3c-0.9,0-0.9-0.1-0.9-0.5V107.8z"/>
	<g>
		<defs>
			<rect id="SVGID_00000031899597789724865560000006622717273498686359_" x="47" y="132" width="158" height="2"/>
		</defs>
		<clipPath id="SVGID_00000027599889661193146380000015830424419837088950_">
			<use xlink:href="#SVGID_00000031899597789724865560000006622717273498686359_"  style="overflow:visible;"/>
		</clipPath>
		
			<line style="clip-path:url(#SVGID_00000027599889661193146380000015830424419837088950_);fill:none;stroke:#B0B0B0;stroke-width:0.8;stroke-linecap:square;stroke-linejoin:round;stroke-miterlimit:10;" x1="46.7" y1="133.4" x2="205.2" y2="133.4"/>
	</g>
	<line class="st3" x1="46.7" y1="133.4" x2="43.2" y2="133.4"/>
	<path d="M35,131.1c0.1,0,0.5,0.2,0.9,0.2c0.9,0,1.4-0.5,1.7-0.8c0-0.1,0-0.1-0.1-0.1c0,0,0,0-0.1,0c-0.3,0.2-0.8,0.3-1.3,0.3
		c-0.3,0-0.7,0-1.2-0.3c-0.1,0-0.1,0-0.1,0c-0.1,0-0.1,0-0.1,0.2v2.9c0,0.2,0,0.2,0.1,0.2c0.1,0,0.1,0,0.1-0.1
		c0.3-0.4,0.8-0.6,1.3-0.6c0.3,0,1.1,0.2,1.1,1.9c0,0.3,0,0.9-0.3,1.4c-0.2,0.4-0.6,0.6-1.1,0.6c-0.7,0-1.3-0.5-1.5-1.2
		c0,0,0.1,0,0.2,0c0.1,0,0.4-0.1,0.4-0.4c0-0.3-0.2-0.4-0.4-0.4c-0.2,0-0.4,0.1-0.4,0.4c0,0.9,0.7,1.8,1.7,1.8c1,0,2-0.9,2-2.2
		c0-1.2-0.8-2.1-1.7-2.1c-0.5,0-0.9,0.2-1.3,0.5V131.1z M31.5,133.5c0.9,0,1.3,0.8,1.3,1.7c0,1.2-0.6,1.7-1.2,1.7
		c-0.5,0-1.4-0.3-1.7-1c0.1,0,0.1,0,0.2,0c0.2,0,0.4-0.2,0.4-0.4c0-0.3-0.2-0.4-0.4-0.4c-0.2,0-0.4,0.1-0.4,0.5c0,0.9,0.9,1.6,2,1.6
		c1.1,0,2-0.9,2-1.9c0-1-0.8-1.7-1.7-1.8c0.8-0.2,1.5-0.8,1.5-1.7c0-0.8-0.8-1.3-1.7-1.3c-0.9,0-1.7,0.5-1.7,1.3
		c0,0.3,0.3,0.4,0.4,0.4c0.2,0,0.4-0.1,0.4-0.4c0-0.3-0.2-0.4-0.4-0.4c0,0-0.1,0-0.1,0c0.3-0.6,1.1-0.7,1.4-0.7c0.4,0,1,0.2,1,1.1
		c0,0.3,0,0.8-0.4,1.2c-0.3,0.4-0.6,0.4-1,0.4c-0.1,0-0.3,0-0.3,0c-0.1,0-0.1,0-0.1,0.1c0,0.1,0,0.1,0.2,0.1H31.5z M27.4,130.6
		c0-0.2,0-0.2-0.1-0.2c-0.4,0.4-1,0.6-1.5,0.6c0,0-0.1,0-0.1,0c0,0,0,0,0,0.2c0.3,0,0.8-0.1,1.2-0.3v5.3c0,0.4,0,0.5-0.9,0.5h-0.3
		v0.2c0.5,0,1,0,1.5,0c0.5,0,1,0,1.5,0v-0.2h-0.3c-0.9,0-0.9-0.1-0.9-0.5V130.6z"/>
	<g>
		<defs>
			<rect id="SVGID_00000096049659817831391000000005682915314747928968_" x="47" y="155" width="158" height="2"/>
		</defs>
		<clipPath id="SVGID_00000171712775141665491810000000364762847107110075_">
			<use xlink:href="#SVGID_00000096049659817831391000000005682915314747928968_"  style="overflow:visible;"/>
		</clipPath>
		
			<line style="clip-path:url(#SVGID_00000171712775141665491810000000364762847107110075_);fill:none;stroke:#B0B0B0;stroke-width:0.8;stroke-linecap:square;stroke-linejoin:round;stroke-miterlimit:10;" x1="46.7" y1="156.2" x2="205.2" y2="156.2"/>
	</g>
	<line class="st3" x1="46.7" y1="156.2" x2="43.2" y2="156.2"/>
	<path d="M36.2,159.7c-0.6,0-1-0.5-1.2-1.3c-0.1-0.6-0.1-1.4-0.1-2c0-0.8,0-1.4,0.1-2c0.2-0.8,0.7-1.1,1.1-1.1
		c0.4,0,0.9,0.3,1.1,1.1c0.1,0.6,0.1,1.2,0.1,2c0,0.6,0,1.4-0.1,2C37.1,159.5,36.5,159.7,36.2,159.7z M38.1,156.5
		c0-0.6,0-1.6-0.4-2.4c-0.4-0.7-1-0.9-1.5-0.9c-0.5,0-1.1,0.2-1.5,0.9c-0.4,0.7-0.4,1.7-0.4,2.4c0,0.6,0,1.4,0.3,2.2
		c0.4,1,1.2,1.2,1.6,1.2c0.5,0,1.2-0.2,1.6-1.1C38,158,38.1,157.2,38.1,156.5z M32.1,153.9v3.8h-2.4L32.1,153.9z M32.7,153.2
		c0-0.2,0-0.2-0.2-0.2l-3,4.7v0.3h2.6v1c0,0.4,0,0.5-0.7,0.5h-0.2v0.2c0.3,0,0.9,0,1.2,0c0.3,0,0.9,0,1.2,0v-0.2h-0.2
		c-0.7,0-0.7-0.1-0.7-0.5v-1h1v-0.3h-1V153.2z M27.4,153.3c0-0.2,0-0.2-0.1-0.2c-0.4,0.4-1,0.6-1.5,0.6c0,0-0.1,0-0.1,0
		c0,0,0,0,0,0.2c0.3,0,0.8-0.1,1.2-0.3v5.3c0,0.4,0,0.5-0.9,0.5h-0.3v0.2c0.5,0,1,0,1.5,0c0.5,0,1,0,1.5,0v-0.2h-0.3
		c-0.9,0-0.9-0.1-0.9-0.5V153.3z"/>
	<path d="M10.9,81v1.3h0.3v-0.9h9.2v0.9h0.3V81H10.9z M15.3,83.4c-0.5,0-1.3,0.1-1.3,1.3c0,0.7,0.5,1.1,1,1.3v0
		c-0.8,0.1-1,0.7-1,1.3c0,0.8,0.6,1.2,1,1.3v0h-1l0.1,1.2h0.3c0-0.6,0.1-0.7,0.5-0.7h2.8c0.4,0,0.4,0,0.4,0.7h0.3c0-0.2,0-0.7,0-0.9
		c0-0.3,0-0.7,0-0.9H18c0,0.6,0,0.7-0.4,0.7h-1.9c-0.9,0-1.6-0.6-1.6-1.3c0-0.7,0.7-0.8,1.1-0.8h2.4c0.4,0,0.4,0,0.4,0.7h0.3
		c0-0.2,0-0.7,0-0.9c0-0.3,0-0.7,0-0.9H18c0,0.6,0,0.7-0.4,0.7h-1.9c-0.9,0-1.6-0.6-1.6-1.3c0-0.7,0.7-0.8,1.1-0.8h2.4
		c0.4,0,0.4,0,0.4,0.7h0.3c0-0.2,0-0.7,0-0.9c0-0.3,0-0.7,0-0.9H18c0,0.6,0,0.7-0.4,0.7H15.3z M15.3,91.1c-0.5,0-1.3,0.1-1.3,1.3
		c0,0.7,0.5,1.1,1,1.3v0c-0.8,0.1-1,0.7-1,1.3c0,0.8,0.6,1.2,1,1.3v0h-1l0.1,1.2h0.3c0-0.6,0.1-0.7,0.5-0.7h2.8c0.4,0,0.4,0,0.4,0.7
		h0.3c0-0.2,0-0.7,0-0.9c0-0.3,0-0.7,0-0.9H18c0,0.6,0,0.7-0.4,0.7h-1.9c-0.9,0-1.6-0.6-1.6-1.3c0-0.7,0.7-0.8,1.1-0.8h2.4
		c0.4,0,0.4,0,0.4,0.7h0.3c0-0.2,0-0.7,0-0.9c0-0.3,0-0.7,0-0.9H18c0,0.6,0,0.7-0.4,0.7h-1.9c-0.9,0-1.6-0.6-1.6-1.3
		c0-0.7,0.7-0.8,1.1-0.8h2.4c0.4,0,0.4,0,0.4,0.7h0.3c0-0.2,0-0.7,0-0.9c0-0.3,0-0.7,0-0.9H18c0,0.6,0,0.7-0.4,0.7H15.3z M20.8,98
		h-0.3v0.9h-9.2V98h-0.3v1.3h9.9V98z M19.4,105.8c0.4,0.3,0.7,0.7,0.7,1.1c0,0.1,0,0.6-0.4,0.7c0,0,0-0.1,0-0.1
		c0-0.3-0.3-0.5-0.5-0.5c-0.2,0-0.3,0.2-0.3,0.3c0,0.2,0.1,0.5,0.6,0.5c0.5,0,0.8-0.4,0.8-1c0-1-0.9-2-2-2.3l-3.9-1c0,0-0.1,0-0.2,0
		c-0.1,0-0.2,0.1-0.2,0.3c0,0.1,0,0.3,0.3,0.4l2.9,0.7c0.2,0.1,0.2,0.1,0.3,0.1c0.3,0.2,0.6,0.5,0.6,1c0,0.6-0.5,0.6-0.8,0.6
		c-0.6,0-1.3-0.3-2-0.5c-0.3-0.1-0.4-0.2-0.6-0.2c-0.4,0-0.8,0.3-0.8,0.8c0,0.9,1.4,1.3,1.5,1.3c0,0,0.1,0,0.1-0.1
		c0-0.1,0-0.1-0.2-0.1c-0.8-0.2-1.2-0.6-1.2-1c0-0.1,0-0.3,0.3-0.3c0.3,0,0.5,0.1,0.9,0.3c1.3,0.5,1.6,0.5,1.9,0.5
		c0.9,0,1.2-0.7,1.2-1.2c0-0.3-0.1-0.6-0.5-1l0,0C18.5,105.4,18.9,105.5,19.4,105.8z"/>
	<polygon class="st13" points="164.9,55.2 164.9,67.6 164.6,67.7 163.8,67.5 163.4,67.2 160.9,66.4 160.5,66.4 158.8,65.8 
		158.4,65.8 157.6,65.5 157.1,65.5 156.3,65.2 155.9,65.2 155.5,65.1 155.1,65.1 154.6,65 154.2,65 153.8,64.8 153,64.8 152.6,64.7 
		152.2,64.7 151.7,64.6 150.9,64.6 150.5,64.4 149.3,64.4 148.8,64.3 147.2,64.3 146.8,64.1 140.5,64.1 140.1,64.3 138.5,64.3 
		138.1,64.4 136.8,64.4 136.4,64.6 135.6,64.6 135.2,64.7 134.7,64.7 134.3,64.8 133.9,64.8 133.5,65 133.1,65 132.7,65.1 
		132.2,65.1 131.8,65.2 131.4,65.2 131,65.4 130.6,65.4 129.8,65.7 129.3,65.7 124.4,67.3 123.9,67.6 123.5,67.7 122.3,68.6 
		120.9,72.7 120.6,73.1 119.4,76.9 119,77 118.1,77 117.7,76.9 116.1,76.9 115.7,76.7 114,76.7 113.6,76.6 111.9,76.6 111.5,76.4 
		109.8,76.4 109.4,76.3 107.8,76.3 107.4,76.2 105.7,76.2 105.3,76 103.6,76 103.2,75.9 101.5,75.9 101.1,75.8 99.5,75.8 99.1,75.6 
		97.4,75.6 97,75.5 95.3,75.5 94.9,75.3 93.2,75.3 92.8,75.2 91.2,75.2 90.8,75.1 89.1,75.1 88.7,74.9 87,74.9 86.6,74.8 85,74.8 
		84.5,74.6 82.9,74.6 82.5,74.5 80.8,74.5 80.4,74.4 78.7,74.4 78.3,74.2 76.7,74.2 76.2,74.1 74.6,74.1 74.2,74 72.5,74 72.1,73.8 
		70.4,73.8 70,73.7 68.4,73.7 67.9,73.5 66.3,73.5 65.9,73.4 64.2,73.4 63.8,73.3 62.1,73.3 61.7,73.1 60.1,73.1 59.6,73 58,73 
		57.6,72.9 55.9,72.9 55.5,72.7 53.8,72.7 53.4,72.6 51.8,72.6 51.3,72.4 50.9,72.4 50.7,72.6 50.8,73 50.8,73.4 50.9,73.8 
		50.9,74.2 51.1,74.6 51.1,75.5 51.2,75.9 51.2,76.3 51.3,76.7 51.3,77.1 51.5,77.6 51.5,78.4 51.6,78.8 51.6,79.2 51.8,79.6 
		51.8,80 51.9,80.5 51.9,80.9 52,81.3 52,82.1 52.2,82.5 52.2,82.9 52.3,83.4 52.3,83.8 52.5,84.2 52.5,85 52.6,85.4 52.6,85.9 
		52.7,86.3 52.7,86.7 52.9,87.1 52.9,87.9 53,88.3 53,88.8 53.1,89.2 53.1,89.6 53.3,90 53.3,90.4 53.4,90.8 53.4,91.7 53.6,92.1 
		53.6,92.5 53.7,92.9 53.7,93.3 53.8,93.7 53.8,94.6 54,95 54,95.4 54.1,95.8 54.1,96.2 54.3,96.6 54.3,97.5 54.4,97.9 54.4,98.3 
		54.5,98.7 54.5,99.1 54.7,99.5 54.7,100 54.8,100.4 54.8,101.2 54.9,101.6 54.9,102 55.1,102.4 55.1,102.9 55.2,103.3 55.2,104.1 
		55.4,104.5 55.4,104.9 55.5,105.4 55.5,105.8 55.6,106.2 55.6,106.6 55.8,107 55.8,107.8 55.9,108.3 55.9,108.7 56.1,109.1 
		56.1,109.5 56.2,109.9 56.2,110.7 56.3,111.2 56.3,111.6 56.5,112 56.5,112.4 56.6,112.8 56.6,113.6 56.7,114.1 56.7,114.5 
		56.9,114.9 56.9,115.3 57,115.7 57,116.1 57.2,116.6 57.2,117.4 57.3,117.8 57.3,118.2 57.4,118.6 57.4,119 57.6,119.5 57.6,120.3 
		57.7,120.7 57.7,121.1 57.8,121.5 57.8,121.9 58,122.4 58,123.2 58.1,123.6 58.1,124 58.3,124.4 58.3,124.8 58.4,125.3 58.4,125.7 
		58.5,126.1 58.5,126.9 58.7,127.3 58.7,127.8 58.8,128.2 58.8,128.6 59,129 59,129.8 59.1,130.2 59.5,130.1 59.9,130.1 60.8,129.8 
		61.2,129.8 62,129.6 62.4,129.6 62.8,129.4 63.2,129.4 64.1,129.1 64.5,129.1 65.3,128.9 65.7,128.9 66.1,128.7 66.6,128.7 
		67.4,128.4 67.8,128.4 68.2,128.3 68.6,128.3 69.5,128 69.9,128 70.7,127.8 71.1,127.8 71.5,127.6 72,127.6 72.8,127.3 73.2,127.3 
		74,127.1 74.4,127.1 74.9,126.9 75.3,126.9 76.1,126.6 76.5,126.6 77.3,126.4 77.8,126.4 78.2,126.2 78.6,126.2 79.4,126 79.8,126 
		80.2,125.8 80.7,125.8 81.5,125.5 81.9,125.5 82.7,125.3 83.2,125.3 83.6,125.1 84,125.1 84.8,124.8 85.2,124.8 86.1,124.6 
		86.5,124.6 86.9,124.4 87.3,124.4 88.1,124.2 88.5,124.2 89,124 89.4,124 90.2,123.7 90.6,123.7 91.5,123.5 91.9,123.5 92.3,123.3 
		92.7,123.3 93.5,123.1 93.9,123.1 94.8,122.8 95.2,122.8 95.6,122.6 96,122.6 96.8,122.4 97.3,122.4 97.7,122.2 98.1,122.2 
		98.9,121.9 99.3,121.9 100.2,121.7 100.6,121.7 101,121.5 101.4,121.5 102.2,121.3 102.7,121.3 102.7,121.7 101.7,124.6 101.4,125 
		101.3,125.4 101.3,125.8 103.3,127.2 103.8,127.3 104.2,127.6 105,127.9 105.4,128.2 108.3,129.1 108.7,129.1 110,129.6 
		110.4,129.6 111.2,129.8 111.6,129.8 112.5,130.1 112.9,130.1 113.3,130.2 113.7,130.2 114.1,130.4 114.5,130.4 115,130.5 
		115.4,130.5 115.8,130.7 116.2,130.7 116.6,130.8 117.4,130.8 117.9,130.9 118.7,130.9 119.1,131.1 119.9,131.1 120.4,131.2 
		122,131.2 122.4,131.3 124.9,131.3 125.3,131.5 130.7,131.5 131.1,131.3 134,131.3 134.5,131.2 136.1,131.2 136.5,131.1 
		138.2,131.1 138.6,130.9 139.4,130.9 139.9,130.8 141.1,130.8 141.5,130.7 142.3,130.7 142.8,130.5 143.6,130.5 144,130.4 
		144.8,130.4 145.2,130.2 146.1,130.2 146.5,130.1 146.9,130.1 147.3,130 147.7,130 148.2,129.8 149,129.8 149.4,129.7 149.8,129.7 
		150.2,129.6 150.6,129.6 151.1,129.4 151.5,129.4 151.9,129.3 152.3,129.3 152.7,129.1 153.1,129.1 153.5,129 154,129 154.4,128.9 
		154.8,128.9 155.6,128.6 156,128.6 156.4,128.4 156.9,128.4 157.7,128.2 158.1,128.2 158.9,127.9 159.4,127.9 160.6,127.5 
		161,127.5 162.7,126.9 163.1,126.9 164.7,126.4 164.9,126.8 164.9,135.1 165.3,135.1 166.5,134.7 167,134.7 168.2,134.3 
		168.6,134.3 170.3,133.7 170.7,133.7 172.4,133.1 172.8,133.1 174,132.7 174.4,132.7 176.1,132.2 176.5,132.2 178.2,131.6 
		178.6,131.6 179.8,131.2 180.2,131.2 181.9,130.7 182.3,130.7 182.7,130.5 183,129.8 183.3,129 183.3,128.6 183.6,127.8 
		183.6,127.3 183.8,126.5 183.8,126.1 184.1,125.3 184.1,124.8 184.4,124 184.4,123.6 184.8,122.4 184.8,121.9 185.1,121.1 
		185.1,120.7 185.4,119.9 185.4,119.5 185.6,118.6 185.6,118.2 185.9,117.4 185.9,117 186.3,115.7 186.3,115.3 186.6,114.5 
		186.6,114.1 186.9,113.2 186.9,112.8 187.1,112 187.1,111.6 187.4,110.7 187.4,110.3 187.7,109.5 187.7,109.1 188.1,107.8 
		188.1,107.4 188.4,106.6 188.4,106.2 188.7,105.4 188.7,104.9 188.9,104.1 188.9,103.7 189.2,102.9 189.2,102.4 189.5,101.6 
		189.5,101.2 189.9,100 189.9,99.5 190.2,98.7 190.2,98.3 190.5,97.5 190.5,97.1 190.7,96.2 190.7,95.8 191,95 191,94.6 191.4,93.3 
		191.4,92.9 191.7,92.1 191.7,91.7 192,90.8 192,90.4 192.3,89.6 192.3,89.2 192.5,88.3 192.5,87.9 193,86.7 193,86.3 193.2,85.4 
		193.2,85 193.5,84.2 193.5,83.8 193.8,82.9 193.8,82.5 194.1,81.7 194.1,81.3 194.5,80 194.5,79.6 194.8,78.8 194.8,78.4 195,77.6 
		195,77.1 195.3,76.3 195.3,75.9 195.6,75.1 195.6,74.6 195.9,73.8 195.9,73.4 196.3,72.2 196.3,71.7 196.6,70.9 196.6,70.5 
		196.8,69.7 196.8,69.3 197.1,68.4 197.1,68 197.4,67.2 197.4,66.8 197.8,65.5 197.8,65.1 198.1,64.3 198.1,63.9 198.3,63 
		198.3,62.6 198.5,62.2 190.6,59.6 190.2,59.6 177.3,55.3 176.9,55.3 165.3,51.4 	"/>
	<line class="st14" x1="46.7" y1="175.4" x2="46.7" y2="10.8"/>
	<line class="st14" x1="205.2" y1="175.4" x2="205.2" y2="10.8"/>
	<line class="st14" x1="46.7" y1="175.4" x2="205.2" y2="175.4"/>
	<line class="st14" x1="46.7" y1="10.8" x2="205.2" y2="10.8"/>
	<path class="st15" d="M65.8,32.7h120.2c1.3,0,2-0.7,2-2V17.8c0-1.3-0.7-2-2-2H65.8c-1.3,0-2,0.7-2,2v12.9
		C63.8,32.1,64.5,32.7,65.8,32.7z"/>
	<path class="st16" d="M65.8,32.7h120.2c1.3,0,2-0.7,2-2V17.8c0-1.3-0.7-2-2-2H65.8c-1.3,0-2,0.7-2,2v12.9
		C63.8,32.1,64.5,32.7,65.8,32.7z"/>
	<line class="st13" x1="67.8" y1="23.3" x2="87.8" y2="23.3"/>
	<path d="M108.2,22.8h1.1v-0.3h-1.2v-1.2c0-0.8,0.4-1.3,0.8-1.3c0.1,0,0.3,0,0.4,0.1c-0.1,0-0.3,0.1-0.3,0.3c0,0.3,0.2,0.3,0.3,0.3
		c0.1,0,0.3-0.1,0.3-0.3c0-0.4-0.4-0.6-0.8-0.6c-0.6,0-1.3,0.5-1.3,1.5v1.2h-0.8v0.3h0.8v3.3c0,0.4,0,0.4-0.7,0.4v0.3
		c0.2,0,0.7,0,1,0c0.3,0,0.8,0,1.1,0v-0.3c-0.7,0-0.8,0-0.8-0.4V22.8z M103.5,24.4c0.1-1.5,0.8-1.8,1.2-1.8c0.7,0,1.1,0.6,1.1,1.8
		H103.5z M106.4,24.5c0,0,0-0.1,0-0.2c0-1-0.5-1.9-1.7-1.9c-1.1,0-1.9,1-1.9,2.2c0,1.3,0.9,2.2,2,2.2c1.1,0,1.6-1,1.6-1.2
		c0-0.1-0.1-0.1-0.1-0.1c-0.1,0-0.1,0-0.1,0.1c-0.2,0.7-0.8,1-1.3,1c-0.4,0-0.9-0.2-1.1-0.7c-0.3-0.5-0.3-1.1-0.3-1.5H106.4z
		 M98.9,23.4h-1.1v-2.6c0-0.3,0-0.4,0.4-0.4h0.7c0.8,0,1.8,0.3,1.8,1.5C100.7,23.1,99.7,23.4,98.9,23.4z M99.8,23.5
		c0.9-0.2,1.7-0.8,1.7-1.6c0-0.9-1.1-1.8-2.5-1.8h-2.7v0.3c0.7,0,0.8,0,0.8,0.4v5.4c0,0.4-0.1,0.4-0.8,0.4v0.2c0.3,0,0.8,0,1.1,0
		c0.3,0,0.8,0,1.1,0v-0.2c-0.7,0-0.8,0-0.8-0.4v-2.6H99c0.6,0,0.9,0.2,1,0.4c0.4,0.4,0.4,0.7,0.4,1.3c0,0.7,0,1,0.3,1.3
		c0.4,0.4,0.9,0.4,1.1,0.4c0.7,0,0.8-0.8,0.8-1c0-0.1,0-0.1-0.1-0.1c-0.1,0-0.1,0.1-0.1,0.1c0,0.6-0.3,0.9-0.6,0.9
		c-0.5,0-0.6-0.6-0.7-1.2c0-0.2-0.1-0.4-0.1-0.6C101,24.5,100.9,23.8,99.8,23.5z"/>
	<line class="st17" x1="118.6" y1="23.3" x2="138.6" y2="23.3"/>
	<path d="M176.2,26.5c-0.4,0-0.4-0.1-0.4-0.4v-5.5c0-0.3,0-0.4,0.4-0.4h1.1c0.8,0,2.3,0.5,2.3,3.2c0,1.4-0.4,2-0.6,2.2
		c-0.2,0.3-0.8,0.8-1.8,0.8H176.2z M174.4,20v0.3c0.7,0,0.8,0,0.8,0.4v5.4c0,0.4-0.1,0.4-0.8,0.4v0.3h3.2c1.6,0,2.9-1.5,2.9-3.3
		c0-1.9-1.3-3.4-2.9-3.4H174.4z M173.4,24.9v-0.4h-2.5v0.4H173.4z M169.6,20.7c0-0.4,0.1-0.4,0.8-0.4V20c-0.3,0-0.8,0-1.2,0
		c-0.3,0-0.8,0-1.2,0v0.2c0.7,0,0.8,0,0.8,0.4v5.4c0,0.4-0.1,0.4-0.8,0.4v0.2c0.3,0,0.8,0,1.2,0c0.3,0,0.8,0,1.2,0v-0.2
		c-0.7,0-0.8,0-0.8-0.4V20.7z M165.6,22.8h1.4v-0.3h-1.4v-1.8h-0.2c0,1-0.4,1.9-1.2,1.9v0.2h0.9v2.8c0,0.2,0,1.3,1.2,1.3
		c0.6,0,0.9-0.6,0.9-1.3V25h-0.2v0.6c0,0.7-0.3,1.1-0.7,1.1c-0.3,0-0.7-0.2-0.7-1.1V22.8z M162.6,25.4c0,0.9-0.6,1.3-1.2,1.3
		c-0.5,0-0.9-0.4-0.9-0.8c0-0.3,0.1-0.8,0.7-1.1c0.5-0.3,1-0.3,1.3-0.3V25.4z M163.1,24.2c0-0.7,0-1-0.4-1.4
		c-0.4-0.3-0.8-0.4-1.1-0.4c-0.8,0-1.4,0.6-1.4,1.3c0,0.4,0.3,0.4,0.4,0.4c0.1,0,0.4-0.1,0.4-0.4c0-0.2-0.2-0.4-0.4-0.4
		c0,0-0.1,0-0.1,0c0.2-0.7,0.8-0.9,1.1-0.9c0.5,0,1,0.4,1,1.3v0.4c-0.6,0-1.3,0.1-1.9,0.4c-0.6,0.3-0.8,0.8-0.8,1.2
		c0,0.8,0.9,1,1.4,1c0.6,0,1.1-0.3,1.3-0.9c0,0.4,0.3,0.8,0.7,0.8c0.2,0,0.7-0.1,0.7-0.9v-0.6h-0.2v0.6c0,0.6-0.3,0.7-0.4,0.7
		c-0.4,0-0.4-0.5-0.4-0.9V24.2z M159,22.6c0-0.2,0-0.2-0.1-0.2c0,0,0,0-0.2,0.2c0,0-0.1,0.1-0.1,0.2c-0.3-0.3-0.8-0.3-0.9-0.3
		c-1.1,0-1.5,0.6-1.5,1.2c0,0.9,1,1.1,1.3,1.2c0.6,0.1,0.8,0.2,1.1,0.3c0.1,0.1,0.4,0.3,0.4,0.7c0,0.4-0.2,1-1.2,1
		c-0.9,0-1.2-0.7-1.4-1.5c0-0.1,0-0.1-0.1-0.1c-0.1,0-0.1,0-0.1,0.2v1.4c0,0.2,0,0.2,0.1,0.2c0.1,0,0.1,0,0.1-0.1
		c0.1-0.1,0.2-0.3,0.3-0.4c0.2,0.3,0.5,0.5,1.1,0.5c1,0,1.5-0.5,1.5-1.3c0-0.5-0.3-0.8-0.4-0.9c-0.3-0.3-0.6-0.4-1.1-0.5
		c-0.5-0.1-1.2-0.3-1.2-0.9c0-0.3,0.1-0.8,1.1-0.8c1.1,0,1.1,1,1.1,1.3c0,0.1,0.1,0.1,0.1,0.1c0.1,0,0.1,0,0.1-0.2V22.6z
		 M155.4,24.9v-0.4h-2.5v0.4H155.4z M148.6,23.4v-2.7c0-0.3,0-0.4,0.4-0.4h1c1.3,0,1.7,0.7,1.7,1.6c0,0.9-0.4,1.6-1.7,1.6H148.6z
		 M148.6,23.6h1.6c1.3,0,2.2-0.8,2.2-1.8c0-0.9-0.9-1.8-2.2-1.8h-3v0.3c0.7,0,0.8,0,0.8,0.4v5.4c0,0.4-0.1,0.4-0.8,0.4v0.2
		c0.3,0,0.8,0,1.1,0s0.8,0,1.1,0v-0.2c-0.7,0-0.8,0-0.8-0.4V23.6z"/>
	<g>
		<polygon points="94.4,50.5 94.4,55.5 99.5,55.5 99.5,68.5 105.7,68.5 105.7,55.5 110.7,55.5 110.7,50.5 		"/>
		<rect x="84.1" y="50.5" width="6.2" height="18.1"/>
		<polygon points="69.6,50.5 66.9,60.5 66.3,63.6 66,63.6 65.5,60.6 62.6,50.5 53.8,50.5 53.8,68.5 59.3,68.5 59.3,59.1 59.1,55.8 
			59.4,55.8 62.9,68.5 69.2,68.5 72.6,55.7 73,55.7 72.8,59.4 72.8,68.5 78.3,68.5 78.3,50.5 		"/>
		<g>
			<path d="M161.4,91.8h-3.9v14.6h3.9v7h-18.7v-7h3.9V91.8h-3.9v-7h18.7V91.8z M129.1,113.3l-1.3-4.3h-8l-1.3,4.3h-11.2l10.6-28.5
				h12.3l10.4,28.5H129.1z M92.3,114c-4,0-8.6-0.7-10.3-1.2v-8.1c2.2,0.8,5.4,1.4,8.6,1.4c2.8,0,3.9-0.4,3.9-1.7
				c0-1.1-0.9-1.4-3.9-1.9c-4.2-0.7-8.8-1.8-8.8-8.4C81.9,87.9,86,84,95.1,84c4.2,0,8.3,0.8,9.8,1.3v7.4c-3.1-0.7-5.7-1.1-8.4-1.1
				c-1.4,0-3.1,0.1-3.1,1.4c0,1.2,1,1.4,4.7,2.2c4.6,0.9,8,2.4,8,8.1C106.1,108.4,103,114,92.3,114 M166.7,84.8h11v20H189l9.4-41.7
				l-33.2-10.4v16.3c-4.2-1.9-12.8-4-21.8-4c-8.8,0-18,1.6-21.6,4.4l-3.1,8.2l-68-4.5l2.9,20.3c1.8-5.5,6.7-9.3,16-9.3
				c3.1,0,6.2,0.5,7.8,1v8.3c-1-0.3-3.8-0.7-6.1-0.7c-4.2,0-7.2,1.5-7.2,6.3c0,5.4,3.9,6.6,7.7,6.6c2,0,3.3-0.1,5.6-0.7v7.8
				c-2.8,0.8-4.9,1.1-8.1,1.1c-6.7,0-11-2-13.6-5l3.1,21.5l43.7-9l-1.4,3.9c3.3,3.2,14.5,5.6,26.9,5.6c10.8,0,28-2.3,37.2-5.2v8.8
				l18.1-4.7l3.8-16.7h-20.3V84.8H166.7z"/>
		</g>
		<polygon points="123.9,92.1 123.6,92.1 123,95 121.1,102.4 126.6,102.4 124.6,95 		"/>
	</g>
	<polyline class="st17" points="172,52.9 171.9,53.3 171.6,53.3 171.8,53.3 171.6,53.6 172.2,54.1 172,54.2 172.1,54.1 172.1,54.4 
		171.8,54.5 171.6,54.5 171.4,54.6 171.5,54.5 171.7,54.9 171.6,55.1 171.2,55.1 171.3,55.1 171.6,55.4 170.9,55.6 170.9,55.7 
		170.9,55.7 170.9,55.9 170.5,56.3 170.5,56.9 170.1,57.5 170.1,57.8 170.3,57.8 170.2,57.8 170.1,58.1 169.8,58.2 170,58.3 
		169.9,58.3 170,58.6 169.7,58.9 169.8,59 169.6,59.3 169.7,59.3 169.9,59.6 169.6,60.3 169,60.7 169.4,60.7 169.4,60.7 169,61 
		169.5,61.2 169.1,61.3 169.5,61.2 169.2,61.4 169.1,61.6 169,61.9 169.2,62.3 169,62.4 169.4,62.6 169.4,62.6 169.4,62.8 169.2,63 
		169.4,63.5 168.8,63.9 169.1,63.9 169.2,63.9 169.1,63.9 169.3,64.2 168.8,64.2 168.7,64.2 168.9,64.8 168.7,65 168.8,65 
		168.8,65.8 168.7,65.9 168.8,65.9 168.8,66.4 168.8,66.4 168.8,66.4 168.8,66.4 168.8,66.6 168.6,66.9 168.9,67.5 168.7,67.7 
		168.4,67.6 168.5,67.8 168.4,67.7 168.3,67.6 168.1,67.6 167.8,67.5 167.2,67.6 167.2,67.5 166,67.2 166.1,67.1 165.9,67.1 
		165.9,66.9 165.5,66.8 165.4,66.8 165.4,66.8 165.7,66.8 165.4,66.8 165.4,66.6 164.8,66.6 164.1,66.3 164.4,66.3 163.8,66.2 
		163.8,66.1 162.3,65.7 162.3,65.7 162.3,65.7 162,65.9 162,65.7 162.2,65.8 160.8,65.3 160.7,65.4 160.9,65.4 160.4,65.1 
		160.2,65.2 160.2,65.1 160.1,65.1 160.3,65.1 160,65 160,65 159.4,65 159.4,64.8 159.3,64.9 158.4,64.7 158.5,64.7 158.6,64.7 
		158,64.7 158.4,64.7 157.3,64.5 157.4,64.6 157.4,64.7 156.9,64.7 156.7,64.8 156.8,64.7 156.6,64.7 156.2,64.5 156.3,64.5 
		155.3,64.4 155.2,64.3 154.8,64.3 154.7,64.4 154.1,64.4 154.4,64.7 154.5,64.5 154.5,64.5 153.6,64.1 153.9,64.1 153.7,64.4 
		153.6,64.3 153.5,64.5 153.4,64.4 153.4,64.5 152.9,64.3 152.5,64.5 152.6,64.3 152,64.2 151.9,64.7 151.9,64.2 151.8,64.3 
		151.8,64.2 151.3,64.1 151.3,64.3 151.2,64.2 149.8,63.9 149.7,64 149.9,63.9 149.8,64.1 149.6,63.9 149.5,64 148.7,63.8 
		148.7,63.8 149,64.1 148.5,64.2 148.8,64.2 149.1,64.4 148.7,64.3 148.4,64.2 147.9,63.9 147.2,63.8 148.3,64.7 147.4,64.6 
		147.5,64.6 147.3,64.1 147.7,64.6 147.4,64.3 146.8,64.1 147.3,64.1 146.2,64.1 146.2,64 145.9,64 145.9,64 145.8,63.8 145.7,64.6 
		146,64.7 145.4,64.4 145.1,64 145.3,64.4 145.3,64.5 145,64 145.1,64 145,64.1 144.9,64 144.8,64 144.9,64.5 144.9,64 144.9,64.6 
		144.7,64.6 144.6,64.8 144.6,64.7 144.3,64.6 143.5,64.1 143.9,64.5 143.5,64 143.2,64.5 143.4,64.4 143.3,64.1 143.3,64.5 
		143.2,64.5 142.7,64.5 142.1,64.6 141.9,64.5 141.9,64.6 140.6,64.2 140.6,64.2 140.6,64.5 140.2,64.4 140.3,64.4 140.2,64.4 
		140.5,64.7 140.4,64.8 140.4,64.8 139.8,64.6 139.3,64.7 139.3,64.8 139.8,65.1 139.3,65.1 139.4,65 138.4,65.1 138.4,65.1 
		137.3,65.2 137.4,65.2 137.1,65.4 137.1,65.2 137,65.3 137.2,65.3 137.2,65.4 136.9,65.3 136.2,65.5 136.5,65.4 136.2,65.3 
		136,65.5 136.2,65.2 136.2,65.4 136,65.3 135.8,65.6 136.1,65.5 135.2,65.5 135.3,65.5 135,65.9 134.8,65.8 134.5,65.7 134.7,66 
		134.4,65.7 134.4,66 133.9,66.1 133.7,66.4 133.8,66.1 133.7,66.1 133.8,66.1 133.2,66.3 133.2,66.3 133.3,66.2 133.1,66.5 
		133,66.3 132.5,66.4 132.6,66.3 132.3,66.7 132.2,66.4 132,66.5 131.8,66.5 131.8,66.3 131.6,66.5 131.7,66.4 131.3,66.5 
		131.3,66.7 131.3,66.5 131,66.6 131.1,66.6 130.7,67 130.8,66.8 130.8,67.1 130.9,67 130.7,66.8 130.6,67 130.9,66.8 130.1,66.7 
		130.4,67.1 129.7,66.8 129.6,67 130.3,67 129.6,66.8 130.1,67.1 129.4,66.9 129.6,67.3 130,67.1 128.9,67.2 128.7,67.5 128.1,67.9 
		128.2,68 128.4,67.8 128.1,67.8 128.2,67.9 127.9,68.1 127.8,68 128,68.1 127.8,68.2 127.5,68.1 127.4,68.4 127.3,68.4 127.3,68.5 
		127.2,68.6 127.3,68.2 127.2,68.7 127.1,68.4 127,68.8 126.6,68.6 126.6,68.6 126.7,68.8 126.6,68.6 126.8,68.8 126.4,69.3 
		126.5,69 126.8,69.4 126.5,68.3 126.9,69.2 126.7,69.5 126.5,68.7 126.3,69.7 126.9,68.9 126.8,69.3 126.7,70.8 126.6,70.7 
		126.5,70.7 126.6,70.7 126.5,71.4 126.2,71.5 126.4,71.6 126.4,71.4 126.2,71.5 126.4,71.7 126,72 126.3,72.1 126.1,72.2 
		126.1,72.2 125.8,72.3 126.1,72.4 126,72.4 126,72.7 125.7,72.8 125.9,72.7 125.7,73 125.7,73.1 125.3,73.8 125.3,74.3 125.2,74.3 
		125.2,74.3 125.2,74.7 125.1,74.8 125.2,74.8 124.9,75.5 125,75.6 124.9,75.6 124.9,75.8 124.7,76 124.8,75.6 124.9,76 124.4,76.8 
		124.6,76.4 124.5,76.9 124.1,77 124.6,76.9 124.2,77.1 123.9,77.4 123.8,77.7 123.7,77.5 123.8,77.5 123.4,77.5 123.1,77.3 
		121.5,77.3 121.6,77.3 121.1,77 121.2,76.9 121.3,76.8 121.1,76.9 120.8,77.1 120.7,76.8 120.6,76.8 119.2,76.8 118.8,76.9 
		119,76.9 118.9,77 119.2,77 118.8,77 118.8,77 118.2,76.9 118.3,76.9 117.8,77.2 117.8,77.1 117.6,77.1 117.1,77 117.5,77.3 
		117.6,75.7 117,76.7 116.9,76.7 116.6,76.8 116.6,76.7 116.4,76.4 116.4,76.6 116.3,76.5 116.3,76.5 116.2,76.5 116.7,75.3 
		116.3,76.5 116.4,76.5 116.4,76.6 115.9,76.7 115.9,77 115.8,76.9 115.8,76.6 115.9,76.9 115.7,77 115.6,76.8 114.7,77.1 
		114.7,76.9 114,76.7 114.8,76.9 114.2,76.7 114.1,76.7 114.4,76.7 114,76.8 114.1,76.7 113.9,76.3 113.8,76.7 113.9,76.4 
		113.6,76.6 113.9,76.4 113.5,76 113.4,76.1 113.3,76.4 113.2,76.4 113,76.3 112.8,76 112.9,76 112.6,76.3 112.6,76.8 112.5,76.5 
		112.5,76.7 112.2,76.4 112.5,76.2 112.2,76.4 112.3,76.6 112.1,76.4 112.1,76.4 111.9,76.4 112,76.4 111.8,75.2 111.7,76.5 
		111.4,76.4 111,76.2 110.6,76.3 110.7,76.1 110.6,76.2 110.5,76.1 110.5,76.1 110.4,76.1 110.3,76.3 109.8,76.2 109.8,76.4 
		109.6,76.2 109.1,76.2 108.7,76.1 107.7,76 108,75 108,75.1 107.2,76.7 108.1,76.4 107,76.5 107.4,76.3 106.6,76.5 106.8,76.3 
		106.9,76.5 106.9,76 107,76 106,76 106.5,75.8 106.3,75.8 106.2,76 105.6,76.1 105.6,75.9 105.2,76.2 105.3,76.2 104.7,76.1 
		104.9,75.8 104.7,75.9 104.2,76.2 104.3,76.2 104.1,76.1 104.3,76.3 104.3,76.3 104.3,76.2 104.5,76 104.4,75.8 103.8,76 103.9,76 
		104.2,75.7 103.8,76 103.8,76.2 103.8,75.8 103.9,75.7 103.4,76.1 103.5,76.2 103.5,76.1 103.2,76.3 103.1,75.9 103.2,75.8 
		102.3,75.6 102.2,75.5 102,75.9 101.6,75.9 101.7,76.2 101.7,75.9 101.7,76 102.1,75.7 102,75.8 101.5,75.9 101.7,76 101.4,75.9 
		101.5,75.9 101.8,75.8 101.6,75.6 101.5,75.8 101.2,76.1 101.2,75.9 101.3,75.6 100.7,76.1 101.1,75.7 100.7,76 100.7,75.6 
		100.6,76.1 100.4,75.9 100.7,75.6 100.4,75.4 99.8,75.7 100.2,75.8 100.1,75.4 99.5,75.7 99.6,75.8 99.1,75.4 98.8,75.8 98.9,75.8 
		98.7,75.7 99,75.7 98.5,76.1 98.8,75.7 98.4,75.6 98.1,76 98.7,75.6 98.2,75.9 97.9,75.7 97.5,75.2 97.4,75.7 97.3,75.6 97.5,75.3 
		97.5,75.3 97.3,75.3 97.4,75.3 97.4,75.4 97.1,75.4 96.6,75.7 96.6,75.7 96.9,75.4 96.5,75.7 96.6,75.4 96,75.7 96.1,75.4 
		96.2,75.5 96,75.3 96.1,75.4 95.6,75.8 95.5,75.6 95.3,75.6 95.4,75.6 95.4,75.8 95.3,75.6 94.8,75.5 93.6,75.5 94,75.6 93.3,75.3 
		93.6,75.5 93.9,75.4 93.6,75.4 92.9,75.4 92.9,75.5 92.7,75.4 92.2,75.3 91.7,75.4 91.7,75.5 91.9,75.4 90.5,75.1 90.5,75.3 
		90.6,75.1 90.5,75.1 90.3,75.2 90,75.2 90.1,75.1 90,75.2 89.6,75.1 90.1,75.2 89.7,75.2 89.7,75.3 89.2,75.2 89.2,75 89.2,75.2 
		89,75 89.3,75.1 88.9,75.2 89.1,75.1 88.7,75 88.7,75 87.7,74.9 87.8,74.9 87.3,74.8 87.4,75 87.2,74.9 86.8,74.9 87,74.9 87.1,75 
		87.1,74.9 86.9,75 86.6,74.9 86.7,75.1 86.5,75.2 86.5,75 86.1,74.9 86.1,75.2 86,75.1 85.5,74.9 85.4,74.9 85,74.8 85.4,75 
		84.8,75 84.3,74.7 84.4,74.9 83.7,74.6 83.8,74.7 84.4,74.4 83.9,74.8 83.9,74.7 84.1,74.5 83.6,74.9 83.2,75 83.3,74.8 83.5,74.5 
		82.8,74.8 82.8,74.7 82.7,74.7 82.7,74.7 82.3,74.8 81.8,74.7 81.8,74.4 81.4,74.7 81.3,74.4 81.4,74.4 81.2,74.7 81.3,74.9 
		81,74.8 81,74.8 81.1,75 80.8,74.7 80.4,74.6 80.6,74.6 80.4,74.5 80.6,74.6 80.4,74.5 80.3,74.3 79.3,74.6 78.7,74.4 79,74.5 
		78.5,74.7 78.9,74.2 78.6,74.6 78.1,74.4 78.1,74.4 78.4,74.1 78,74.5 78,74.5 77.8,74.4 77.3,74.4 77.6,74.1 77,74.4 77.2,74.4 
		77.2,74.6 77,74.4 77,74.5 76.7,74.6 76.9,74.5 76.2,74.3 76.4,74.3 76.2,74.4 76.1,74.4 75.7,74.4 75.8,74.5 75.5,74.3 75.5,74.4 
		75.3,74.4 75.4,74.3 75.3,74.3 74.7,74.3 74.9,74.5 74.6,74.3 74.1,74.3 73.6,74.1 73.7,74.2 73.7,74.3 72.4,74.2 72.3,74.3 
		72.5,74.2 70,73.9 70.1,74 69.8,73.8 69.9,73.8 69.7,73.9 69.5,73.8 69.8,74 69.8,74.1 69.8,73.9 69.2,74 69.3,73.9 69.2,74.1 
		68.7,74 68.5,74.1 68.8,74 68.6,74.2 68.5,74 68.1,74.1 68.3,74.2 67.9,73.9 67.2,73.8 66.9,73.9 66.8,73.7 66.7,73.7 66.3,73.7 
		66.7,73.8 66.5,73.7 66.6,73.8 66.4,73.8 66.4,73.8 66.1,73.8 66.2,73.8 66.3,73.9 66,73.6 65.2,73.7 65.1,73.9 65.1,73.8 
		64.8,73.6 64.8,73.8 64.6,73.6 64.4,73.7 63.8,73.7 64.1,73.7 63.8,73.5 63.2,73.4 63.6,73.5 63.6,73.6 63.7,73.1 63.5,73.5 
		63,73.5 63,73.6 63.2,73.6 62.8,73.5 63.4,73.1 62.8,73.5 63.1,73.3 62.7,73.3 62.9,73.4 62,73.6 62.2,73.7 62.4,73.3 61.9,73.7 
		62.1,73.8 61.6,73.6 61.7,73.5 62,73.2 61.6,73.6 61.2,73.6 60.9,74.9 61.6,73.3 60.8,74.8 61.1,73.2 60.5,72.9 61.2,73.2 
		60.4,73.6 60.8,73.1 60.9,73.2 60.5,73.1 60.9,73.3 60.6,73.2 59.8,73.5 60.6,73.2 60.3,73.1 60.4,73.3 59,73.1 59.1,73.1 
		59.4,73.2 58.9,73.2 59.1,73.2 58.7,73.1 58.8,73.2 58.4,73.3 58.5,73.3 58,73.2 57.9,73.2 58,73.3 57.7,73.1 57.7,73.2 57.7,73.3 
		57.5,73 56.9,73.2 57,73.1 57,73.2 56.8,73.3 56.6,73.2 56.6,73.2 56.6,73.1 56,73 56,73.1 56,73 55.2,73.1 55.7,73.3 55,73.1 
		55.1,73.2 55.1,73.1 55.2,73.1 55,73.2 54.9,73.1 54.9,73.2 54.7,73.1 54.8,73.5 54.6,73.6 54.7,73.6 54.7,73.9 54.5,73.9 
		54.9,74.1 55.4,74.4 55,74.2 54,74.9 54.3,75.1 54.4,74.6 54.7,74.7 54.2,75.2 55,75.6 54.9,75.6 54.7,75.7 55.1,76 54.9,76 
		54.8,75.9 55.1,76.1 54.9,76 54.9,76.3 54.8,76.3 54.9,76.2 55,76.5 55.2,76.6 55.2,77.1 55.1,77 55.3,77.6 55.7,77.9 55.5,77.8 
		56,77.5 55.7,77.9 56,77.7 55.7,78.4 55.6,78.1 55.8,78.2 55.9,78.1 55.4,78.4 55.3,78.7 55.9,79 55.7,79.4 55.5,79.5 56.2,79.2 
		55.7,79.7 55.8,79.9 55.6,79.8 55.7,79.8 55.7,80 56.1,80 55.5,80.3 55.8,80.4 56.2,80.9 55.8,80.8 56.1,80.8 56.3,80.6 56.1,81.3 
		56,81.1 56.2,81.1 56.1,81.4 56.3,81.6 56.2,81.7 56.1,81.6 56.3,81.7 56.2,81.9 55.9,81.9 55.8,81.8 56.3,81.9 56,82 56.3,82.1 
		56.2,82.3 56.1,82.3 56.2,82.3 56.1,82.6 56.4,82.7 56.2,82.7 56.3,82.9 56.7,83 56.4,83 56.4,83.1 56.6,83.1 56.2,83.4 56.1,83.7 
		56.1,83.6 56.9,84.1 56.6,84.2 56.7,84.5 56.5,84.5 56.6,84.7 56.7,84.8 56.7,85 56.6,84.8 56.8,85.1 57.2,85 57.1,85 56.9,85.5 
		56.7,85.9 56.8,85.7 56.9,86.1 57.4,85.8 57.4,85.8 57,86.2 57,86.4 57,86.2 56.8,86.5 56.8,86.8 56.9,86.7 57.2,86.9 57.1,87.4 
		57.6,87.3 57.5,87.9 57.3,87.8 57.5,87.9 57.8,87.7 58.1,88.2 57.9,88.1 57.8,88.3 58,88.3 57.8,88.4 57.6,88.6 57.3,88.7 
		57.7,88.5 57.5,88.9 58.3,88.8 58.3,88.9 58.2,88.7 58.3,88.8 57.9,89.4 57.8,89.3 57.8,89.5 57.9,89.7 58.4,89.9 58.2,90 
		58.1,90.4 57.9,90.3 58,90.2 58,90.5 58.2,90.5 58.2,90.9 58.3,91.2 58.3,91.3 58.2,91.4 58.3,91.4 58.4,91.7 58.6,91.9 58.3,91.9 
		58.6,92 57.9,92.3 58.1,92.5 58,92.5 58.4,92.8 58.2,92.7 58.1,92.8 58.3,92.7 58.3,93.1 58.5,93.1 58.2,93.1 58.2,93.2 58.4,93.2 
		58.2,93.4 57.8,93.3 58.1,93.5 57.8,93.5 57.8,93.5 57.8,93.8 58.6,94.4 58.5,94.4 58.4,94.8 58.3,94.9 58.2,94.8 58.4,95.3 
		58.4,95.2 58.4,95.4 58.4,95.3 58.6,95.6 58.8,95.6 58.6,95.7 58.6,95.7 58.8,95.8 58.6,95.8 58.7,95.9 58.4,95.9 58.5,95.9 
		58.6,96 58.5,96.2 58.8,96.4 58.6,96.6 58.8,96.6 58.5,96.8 58.4,96.9 58.5,96.9 58.6,97.1 59.1,97.3 59.1,97.2 59.1,97.8 
		58.9,97.7 59.1,97.8 58.9,97.9 58.6,98.3 58.6,98.1 58.7,98.3 59.4,98.4 59.2,98.2 59.4,98.5 58.9,98.7 58.9,99.1 59,99.6 
		59.2,99.9 59.5,100.2 59.3,100.2 59.4,100.2 59.3,100.4 59,100.4 59,100.6 58.9,100.4 59.5,100.7 59.1,100.8 59.6,101.1 
		58.9,100.9 59.4,101 59.4,101.6 59.4,101.5 59.7,101.9 59.4,101.9 59.7,102 59.5,102.8 59.4,102.7 59.9,103 59.7,103.1 59.7,103.1 
		59.9,103.2 59.8,103.4 59.9,103.6 59.9,103.8 60.2,103.8 59.9,104.4 60.2,104.8 59.9,104.7 60.1,104.8 59.9,104.9 60.4,105.5 
		60.2,105.6 60.1,105.5 60.4,105.8 60.4,106 60.3,106 60.3,106.1 60.4,106.2 60.4,106.4 60.4,106.5 60.1,106.7 60.1,106.8 
		59.9,106.7 60.1,106.8 60.5,107.2 60.6,107.4 60.5,107.4 60.7,107.7 60.4,107.7 60.7,107.7 60.5,108.2 60.6,108.4 60.4,108.6 
		60.6,108.8 60.9,108.9 60.7,109 60.7,109 60.9,109 60.6,109.2 60.7,109.2 60.7,109.3 60.7,109.2 61,109.7 61.3,109.8 61.3,109.7 
		61,110.2 61,110.3 61.2,110.4 61.4,110.6 61.3,110.5 61.3,110.5 61.2,110.8 61.1,111.3 60.9,111.4 60.9,111.4 61.7,111.8 
		61.5,111.8 61.5,111.9 61.7,112 61.3,111.9 60.9,112.1 61.1,112.2 61.5,112.4 61.1,112.3 61.3,112.5 61.6,112.5 61.3,112.6 
		61.4,112.7 61.3,112.8 61.5,113.1 61.2,113 61.3,113.1 61.4,113.3 61.9,113.5 61.9,113.5 61,113.7 61.2,113.9 61.3,114.1 
		61.1,114.3 61.1,114.3 61.7,114.5 62.2,114.9 62.1,114.9 61.7,114.9 61.5,115.1 62.4,115.6 62.3,115.6 62.1,115.9 62.3,116.4 
		62,116.4 62.1,116.4 62.2,116.6 62,116.7 62,116.8 62,116.8 62.3,117 62.9,117.1 62.7,117.3 62.8,117.3 62.9,117.4 62.5,117.4 
		62.2,117.7 62.2,117.6 62.1,117.6 62.4,117.9 62.6,118 62.2,118 62.3,118 62.5,118.1 62.2,118.1 62.7,118.5 62.7,118.4 62.5,118.5 
		62.7,118.8 62.7,119 62.5,118.9 62.7,118.9 62.8,119.4 63.2,119.8 63.2,120 63,120.2 62.8,120.2 63,120.5 62.9,120.6 62.9,120.7 
		63,121 62.7,121.1 62.8,121.1 62.7,121.3 62.6,121.2 62.5,121.4 63.2,121.4 63.1,121.6 63.2,122 63.1,121.9 63.5,122.1 63.4,122.4 
		63.2,122.6 63.1,122.6 63.4,122.8 63.7,123.1 63.7,123.2 63.8,123.4 63.5,123.4 63.7,123.4 63.6,123.7 63.8,123.9 63.4,124.3 
		63.5,124.3 63.8,125 64.1,125.1 63.9,125.2 63.9,125.2 64.1,125.3 63.8,125.2 63.7,125.6 63.7,125.6 63.8,125.7 64.4,126 
		64.2,125.8 64.4,125.8 64.4,126.1 63.9,126.3 64,126.4 64.2,126.6 64.4,126.6 64.3,126.7 64.4,126.7 64.3,126.9 63.5,127.1 
		63.9,127.2 64,127.1 63.9,127.3 64.2,127.6 64.1,127.7 64.2,127.7 64.3,127.9 64.7,127.9 64.7,128.3 64.3,128.6 64.8,128.9 
		64.5,128.8 64.8,128.9 64.8,129.1 64.3,129.3 64.4,129.2 64.5,129.6 64.8,129.6 64.4,129.6 64.6,129.5 64.5,129.7 65,130.1 
		64.8,130.1 64.9,130.1 65,130.4 64.7,130.4 64.9,130.5 64.8,130.5 64.9,131.1 64.8,130.9 64.9,131.1 64.9,130.9 65,131 65,130.9 
		65.1,130.8 65.5,130.9 65.8,130.8 65.6,130.7 65.7,130.6 65.8,130.7 65.8,130.7 66.2,130.6 66.1,130.6 66.4,130.6 66.4,130.4 
		66.9,130.4 66.9,130.5 66.7,130.5 67,130.4 67,130.3 67.6,130.5 67.6,130.4 67.8,130.3 67.8,130.4 68,130.4 68.4,130.1 68.6,130.3 
		68.7,130 69,130.1 68.9,130 69,130 69.1,129.8 69.4,129.9 69.4,129.8 69.9,129.7 69.8,129.7 70.1,129.7 69.9,129.7 70.3,129.5 
		70.7,129.6 70.4,129.5 71.2,129.5 71,129.5 71.4,129.4 71.3,129.4 72,129.3 72,129.2 72.1,129.3 72.3,129.1 72.2,129.2 72.6,129.3 
		72.6,129.4 72.8,129.1 72.8,129 73.3,129.2 73.2,129 73.1,128.9 73.3,129 73.6,129.1 73.4,128.8 73.5,128.9 73.8,128.8 74,129 
		74.3,128.7 74.8,128.6 75.2,128.5 75.2,128.6 75.1,128.6 75.3,128.7 75.4,128.4 75.6,128.6 75.4,128.4 75.5,128.6 75.7,128.4 
		76,128.3 75.9,128.3 76,128.4 76.1,128.2 76.5,128.2 76.4,128.1 76.5,128.2 76.6,128.1 76.9,128.2 76.8,128.1 76.6,127.9 
		76.9,128.1 77,128 77.7,127.9 77.9,127.8 78,127.9 78,128 78.2,127.8 78.6,127.7 78.5,127.6 78.6,127.9 78.8,127.9 79,127.8 
		79,127.7 79.1,127.7 79.1,127.7 79.4,127.8 79.5,127.5 79.8,127.5 79.8,127.5 80.2,127.3 81.5,127 81.3,126.8 81.5,126.9 
		81.8,126.8 81.7,126.8 81.6,126.7 81.9,126.8 82.1,126.7 82.5,126.7 82.3,126.6 82.5,126.7 82.5,126.5 83,126.5 83,126.7 
		82.8,126.5 83,126.5 83.1,126.6 84.2,126.6 84.6,126.3 84.6,126.4 84.9,126.5 85,126.2 84.8,126.2 85.5,126.2 85.4,126.2 85.7,126 
		86.8,126 86.8,125.9 86.7,125.9 87,126 87.1,125.9 87.6,125.8 87.7,125.8 87.6,125.8 88,125.7 88.5,125.6 88.6,125.5 88.8,125.5 
		88.9,125.5 89.6,125.8 89.6,125.7 89.8,125.4 90.2,125.5 90.2,125.3 90.1,125.4 90.3,125.3 90.2,125 90.6,125.2 90.3,125.2 
		90.3,125 91.7,125.3 91.6,125.3 91.6,125.1 91.8,125.1 92.4,125.1 92.2,124.9 92.4,125.1 92.3,125 92.7,124.9 92.5,124.8 
		92.9,124.9 92.8,124.8 93,124.8 93.3,124.7 93.3,124.8 93.4,124.8 93.5,124.6 93.9,124.7 94.6,124.5 94.5,124.5 94.7,124.5 
		94.9,124.5 94.8,124.4 94.9,124.5 95.1,124.4 95.4,124.4 95.3,124.3 95.4,124.3 95.5,124.3 95.9,124.4 96,124.3 96,124.1 
		96.5,124.3 96,124.1 97.5,124 97.6,123.8 97.9,123.8 98.2,123.6 98.6,123.9 98.6,123.7 99,123.6 98.8,123.5 98.8,123.7 98.9,123.3 
		99,123.5 98.9,123.4 99.8,123.2 99.8,123.4 100.7,123.3 100.6,123.5 100.8,123.3 102.3,122.9 102.6,122.9 102.7,122.7 102.3,122.5 
		102.4,122.5 102.5,122.4 102.8,122.3 102.7,122.3 102.6,122.5 102.8,122.3 102.9,122.5 103.9,122.8 103.2,122.6 104.2,122.5 
		103.9,122.3 104.7,122.6 104.7,122.4 104.5,122.3 105.1,122.2 104.8,122.3 104.9,122.2 105,122.2 105.1,121.9 105.4,122 
		105.2,121.9 105.5,122.2 105.5,121.9 105.7,122.1 105.4,121.9 106.2,122 107,122.3 107,122.2 106.9,122.1 107,122.1 107.1,122 
		107.1,122.2 107.6,121.9 108.1,121.7 108.4,121.7 108.2,121.6 109,121.6 108.7,121.5 109.1,121.3 108.9,121.5 109.2,121.4 
		109.1,121.4 109.4,121.6 110,121.8 109.9,122.2 109.9,121.2 110,121.8 109.9,122.4 110,122.4 110.1,122.5 109.8,122.5 109.9,122.4 
		109.7,122.7 108.9,122.2 109.4,122.3 109.6,121.6 109.3,123 108.5,123 109,123 109,122.8 108.7,123.4 108.7,123.6 108.7,123.2 
		108.6,123.7 108.6,123.6 108.6,123.8 108.4,123.7 108.6,123.8 108.5,124.1 108.5,124.1 108.6,123.2 108.2,124.6 108.4,124.9 
		107.5,125.5 107.6,125.6 107.8,125.4 107.5,125.4 107.6,125.5 107.1,125.6 107.3,125.7 107.3,125.8 107.7,126.1 107,125.9 
		107.7,125.8 107.7,126.2 108.3,126.1 108.1,126.2 107.8,126.3 108.5,126.6 108.3,126.7 108.8,126.9 108.8,127 109.6,127.4 
		109.6,127.6 109.7,127.4 110,126.6 109.4,127.7 109.6,127.6 109.8,128 110.5,127.9 109.7,127.8 110.6,128 110,128 110.4,128 
		111,128.6 111,128.5 110.9,128.1 111.2,128.7 111,128.7 111.4,128.3 111.4,128.3 111.7,128.6 111.9,128.5 111.5,128.3 112,128.5 
		111.9,128.3 111.9,128.5 111.9,128.3 112.1,128.4 112.3,128.6 112.6,128.8 112.9,128.7 112.8,129 112.8,128.8 113,128.9 113,128.8 
		113.4,128.9 113.4,128.9 113.2,129 113.5,128.9 113.5,129 114,129.3 113.7,129 114.2,129.3 114.1,129.4 114,129.3 114.6,129.4 
		114.5,129.3 114.5,129.6 114.4,129.5 114.6,129.6 114.3,129.9 114.6,129.6 114.6,130 115.3,128.4 115.3,128.6 115.6,128.8 
		115.9,129.9 115.5,128.7 115.8,128.7 115.9,130.4 116.1,130.3 116,130.2 116.3,130.3 116.5,130.3 116.5,130.5 116.6,130.3 
		116.8,130.3 116.7,130.2 116.8,130.4 117.6,130.3 117.8,130.4 117.9,130.5 118,130.4 118.8,129.9 119,130.3 118.8,130 119,130 
		119,130.1 119.1,130.1 119.3,130 119.7,130.1 119.8,130.5 119.8,130.5 119.6,130.8 119.9,130.8 120,130.7 119.8,130.8 120.1,130.7 
		120.1,130.8 120.1,130.7 120.3,130.9 121,131 120.9,131 121.1,130.9 121.2,131.1 121.7,130.7 121.7,130.9 121.7,130.8 121.9,130.9 
		122.4,130.9 122.3,131 122.4,131 122.4,131 122.6,130.9 122.4,131 122.5,130.9 123.3,130.6 123,130.5 123.4,129.5 123.6,129.7 
		124.1,130.1 124,130.1 123.7,130.2 124.2,130.1 123.6,131.6 124.7,131 124.4,129.8 124.3,130.2 124.4,131.4 124.3,130.1 
		124.8,131.9 124.5,131.7 125.1,131.8 125,131.8 125.3,131.6 125.2,131.8 124.8,131.8 125,131.7 125.4,131.6 124.8,131.8 
		125.3,131.6 125.4,131.7 125.4,131.5 125.4,131.6 126.4,131.6 126.1,131.6 126.5,131.4 126.1,131.6 126.4,131.3 126.8,131.4 
		126.7,131.4 126.5,131 127.4,129.9 127.4,131.3 127.6,131.5 127.5,131.3 128,131.5 127.9,131.3 128.3,131.4 128.4,131.6 
		128.6,131.4 128.5,131.5 128.9,131.4 129.1,131.7 129.4,131.6 129.4,131.6 129.3,131.5 129.4,131.6 129.5,131.5 129.6,131.6 
		129.5,131.5 129.7,131.4 130.1,131 130.3,131.1 130.3,131 130.4,131.5 130.1,131 130.7,131.3 130.7,131.5 130.6,131.6 130.8,131.6 
		130.8,131.6 130.9,131.5 131.3,131.5 131.9,131.7 131.9,131.6 132.3,131.7 132.4,131.6 132.3,131.6 132.4,131.7 132.5,131.5 
		132.7,131.5 132.6,131.5 132.7,131.5 137.4,130.6 146,130.6 144.2,128.9 142.3,128.9 145.8,130.6 138.7,131.4 132.9,131.2 
		136.8,131.6 134.3,131.2 133.5,131.3 136.8,131.6 133.8,130.2 134.5,131.6 136.4,131.2 133.4,131.5 134.5,131 135.1,131 134,130.1 
		135.1,131.7 134.1,131.2 135.5,131.5 134.1,131.4 134.7,130.1 135,131.1 134.6,131.6 135.2,131.6 134.9,131.3 134.7,131.6 
		135.4,131.8 134.4,131.6 135.3,131.6 135.3,131.4 134.8,131.1 134.9,131.2 134.9,131.7 135.2,131.7 134.8,131.2 134.9,131.7 
		135.2,131.6 135.1,131.8 135.1,131.6 135.4,131 135.2,131.5 135.2,131 135.3,131 135.1,130.9 135.8,131.4 135.6,131.5 135.3,131 
		136,131.4 136.4,129.9 135.9,131.5 136.4,131.3 136.1,131.2 137.2,131.2 136.9,131.1 137.2,131.4 137.2,131.3 137.1,131.1 
		137.3,131.1 137.1,131.2 137.5,131.4 137.3,131.2 137.5,131.1 137.9,131.1 137.9,131.1 137.8,131.3 137.9,131.3 137.7,130.8 
		137.9,131.4 138.3,131.1 138.1,131.3 138.5,131.2 139.4,129.9 139.1,129.8 139.2,131.1 139.5,131.3 139.3,131.1 139.9,131.2 
		139.8,130.7 139.5,131 139.9,130.7 140,130.9 139.7,130.7 140,130.7 139.9,130.8 139.8,130.7 140,130.7 139.9,130.6 140,130.9 
		140.2,130.7 140.2,130.5 140.1,130.8 139.8,130.7 140.1,130.9 140.5,129.4 140.5,129.7 140.4,131.3 140.8,131.6 141,129.3 
		141.1,131.7 141.3,131.2 141,131.2 141.2,131.5 140.9,131.5 141.2,131.2 141.3,131.5 141,131.6 141,131.5 141,131.2 141.3,131.1 
		141.4,131.4 142.6,131.1 142.8,130.6 143,130.6 142.9,130.6 142.5,131 142.9,130.6 143.2,130.8 143.4,130.5 143.1,130.9 
		143.4,130.5 143.1,130.7 143.2,130.8 143.1,130.8 143,130.8 143.3,130.7 143.1,130.6 143.3,130.3 143.1,130.8 143.3,130.6 
		143.5,130.8 143.7,129.5 144.2,130.6 144.1,129.7 143.9,130.9 144.3,131 144.2,130.4 144.6,130.4 144.1,130.7 144.5,130.4 
		144.5,130.6 144.1,130.8 144.5,130.5 144.1,130.8 145.2,130.7 145.1,131 145.8,130.4 145.8,129.6 145.4,130.8 146.1,129.2 
		146.3,129.8 146.5,129.6 146.3,129.3 146.6,129.7 147.4,129.2 147.5,130.4 147.1,130.8 147.6,130.5 147.3,130.5 147.7,130.5 
		147.8,130.4 147.5,130.3 147.9,130.4 147.5,130.7 148.1,130.2 147.7,130.7 147.7,130.8 148.4,130.2 148.4,130.2 148.6,130.3 
		148.4,130.5 148.6,130.3 148.5,130.2 149.3,130.4 149.3,130.1 149.4,130.1 149.6,130.3 149.4,130.2 149.5,130.2 149.7,130.1 
		149.7,130.2 149.7,130.2 149.7,130.1 150,130.2 149.6,130.5 150.3,130.2 150,130.1 150.4,130.3 150.4,130.2 150.2,130.5 
		150.5,130.2 150.4,129.9 150.8,129.7 151.2,129.8 151.1,129.8 150.8,130.1 151.2,129.7 151.3,129.8 149.8,129.5 151.3,130 
		151.5,129.7 151.4,130 151.6,129.7 152.3,129.9 151.9,130.2 152.5,129.6 152.5,129.6 152.6,129.7 152.7,129.6 152.9,129.7 
		152.9,129.6 153.2,129.7 153.3,129.9 153.2,129.8 153.5,129.5 153.6,129.6 154,129.4 154.5,129.3 154.2,129.8 154.5,129.3 
		154.7,129.3 154.5,129.6 154.5,129.2 154.9,129.4 154.7,129.2 154.6,129.1 155,129.5 155.3,129.1 154.8,129 155,129.4 155.5,129.3 
		155.7,129.9 156.1,129.5 156,129.4 156.1,129.4 156.3,129.5 156.1,129.8 156.6,129.2 156.7,129.2 156.5,129.5 156.7,129 
		156.8,129.1 157.2,128.9 156.7,129.1 156.8,129.1 157.3,128.9 156.9,129.3 157,128.7 157,128.9 157.5,128.6 157.2,129 157.8,128.7 
		157.7,128.6 157.6,128.9 157.8,128.5 158.4,128.8 158.3,128.7 158.8,128.6 158.9,128.8 158.4,128.7 158.8,128.6 158.8,128.7 
		159.2,128.8 159.2,128.6 159.5,128.4 159.4,128.4 159.8,128.4 159.7,128.3 159.5,128.6 159.7,128.3 160.2,128.2 160,128.2 
		160.2,128.4 160.2,128.3 160.8,128.1 160.8,128.1 160.2,128.5 160.9,128.3 160.8,128.2 160.8,128.6 161.2,128.2 161,128.2 
		161.1,128.1 161.2,128 161.9,128 161.4,128.2 161.7,127.8 161.7,127.9 161.6,127.7 162.5,127.8 162.3,128 163.1,127.6 163.2,127.7 
		163.2,127.6 163.8,127.4 163.5,127.7 163.8,127.4 164.2,127.3 164.1,127.3 164.4,127.4 164.2,127.4 164.7,127.3 164.5,127 
		164.6,127 164.9,127 164.9,127 164.8,127.2 165.1,127 165.1,127 165.3,127 166.2,126.9 165.8,127.3 165.9,127.3 166.2,126.8 
		166.7,126.8 166.5,127.1 167.1,126.7 167,126.7 166.9,126.6 167,126.6 167.2,126.5 167,127 167.2,126.5 167.3,126.6 167.3,126.4 
		167.5,126.4 167.3,126.7 167.6,126.4 167.8,126.5 168.1,126.3 168,126.3 167.9,126.8 168.2,126.2 168.6,126.3 168.3,126.7 
		168.8,126.1 168.8,125.9 169,126.2 170,126.2 169.9,126.2 169.7,126.6 169.4,126.6 169.9,126.7 169.3,126.7 169.4,126.7 
		169.7,126.9 169.5,127.2 169.5,127.2 169.5,127.3 169.2,127.6 169.4,127.6 169.2,127.6 169.3,127.7 169.1,128.1 169.2,128.1 
		169.1,128.2 169.1,128.3 169,128.6 169.2,128.6 169,128.6 169,129.2 169,129.8 168.8,129.9 168.8,129.9 169,130 168.8,129.9 
		168.9,130.1 168.5,130.4 168.6,130.3 168.5,130.7 168.6,130.9 168.4,130.8 168.5,130.9 168.3,131.4 168.7,131.6 168.5,131.6 
		168.8,131.7 168.6,132 168.8,132 168.6,132 168.7,132.2 168.6,132.9 168.3,132.8 168.5,132.9 168.3,133.2 168.2,133.2 168.3,133.2 
		168.5,133.6 168,133.7 168.1,133.8 168.4,133.9 168.4,134.2 168.7,134.2 168.5,134.2 168.8,134.4 168.1,134.6 168.1,134.6 
		168.7,135 168.6,135.1 168.8,135 168.6,135.1 168.8,135.1 168.6,135.1 168.7,135 168.8,135 169.1,135 169.1,134.9 169.1,135 
		169.2,134.8 169.6,134.8 169.6,134.7 169.5,134.7 169.7,134.9 170.7,134.6 170.8,134.4 170.9,134.5 170.8,134.3 170.8,134.3 
		171.2,134.5 170.9,134.4 171.1,134.1 172.9,134.1 172.7,133.9 173.4,133.9 173.4,133.9 173.4,133.7 173.7,133.7 173.5,133.6 
		173.8,133.5 174.2,133.4 174,133.4 174,133.3 174.3,133.5 174,133.4 174,133.2 174.5,133.3 174.3,133.4 174.5,133.4 174.5,133.1 
		175.8,133.1 176.1,132.8 176.1,132.8 176.1,132.9 176.2,132.8 176.7,132.7 177,132.9 177,132.8 177.2,132.9 177.5,132.6 
		177.7,132.6 177.8,132.7 177.8,132.5 178,132.6 178.1,132.4 178.1,132.5 178.4,132.3 178.6,132.2 178.5,132.2 178.7,132.2 
		179.1,131.9 179.3,131.8 179.5,131.9 180.1,131.9 179.9,131.8 180.1,132 180.1,131.8 180.2,131.9 180.7,131.8 180.6,131.8 
		180.5,131.5 181.7,131.1 181.8,131.3 181.9,131.3 181.9,131.2 182.8,131.2 182.4,131.1 182.5,131.1 183.1,131.1 183.4,130.9 
		183.4,130.9 183.5,131 183.9,130.8 184.1,130.7 184,130.8 184.6,130.8 184.9,130.5 184.9,130.4 185.1,130.6 184.9,130.3 
		185.4,130.5 185.6,130.2 185.5,130.3 185.7,130.4 185.5,130.3 186.2,130.2 186.2,130.3 186.7,129.8 186.6,129.9 186.7,130.1 
		186.6,129.7 186.7,129.7 187.3,129.5 187.7,129.3 187.7,129.2 187.5,129.2 187.7,129.1 187.7,129 187.8,128.8 188.1,128.7 
		187.8,128.7 187.8,128.8 187.9,128.4 187.6,128.4 187.8,128.3 187.7,128.3 187.7,128.4 187.7,128 187.5,127.8 187.6,127.9 
		188,127.7 187.6,127.6 188,127.6 187.5,127.3 187.5,126.8 187.6,126.7 187.5,126.3 187.6,126.1 187.8,126 187.7,125.6 187.9,125.4 
		187.6,125.2 188,125.3 187.6,124.9 187.7,125 188,124.4 188.1,123.7 187.8,123.7 187.6,123.5 187.8,123.6 187.6,123.3 187.7,123.3 
		187.9,123.3 187.7,123.3 187.8,123.2 187.9,122.8 188,122.8 187.7,122.8 187.8,122.9 188.1,122.3 188.2,122.3 188.1,122.2 
		188.2,121.9 188.5,122.1 188.2,121.9 188.4,121.7 188.3,121.6 188.5,121.6 188.4,121.6 188.5,121.2 188.6,121.2 188.6,121.1 
		188.5,121.1 188.6,121 188.7,120.7 188.4,120.7 188.4,120.4 188.5,120.2 188.5,120.2 188.8,120.3 188.4,119.7 188.4,119.7 
		188.4,119.5 188.7,119.4 189,118.9 189,118.6 189,118.6 189.1,118.4 189,118.2 189.1,118.3 188.7,117.9 188.9,117.4 189,117.5 
		189.1,117.2 189,117 189.1,116.8 189.3,116.8 189.1,116.1 189.1,116.1 189.1,116.1 189.3,115.6 189.3,115.7 189.5,115.8 
		189.4,115.3 189.6,115.2 189.7,115.2 189.4,115.1 189.7,115.2 189.4,114.7 189.4,114.8 189.5,114.4 189.6,114.4 189.6,114.4 
		189.7,114 189.7,114.1 190,114.1 189.8,113.6 189.8,113.6 189.9,113.4 190.2,113.3 190,113.1 189.9,113.2 190.1,112.7 190,112.4 
		190.1,112.3 190,112.3 190.1,112.3 190.1,112.1 190.3,111.8 190.4,111.5 190.1,111.8 190.4,111.4 190.4,111.2 190,111.5 
		190.4,111.1 190.3,111.1 190.4,110.8 190.8,110.6 190.7,110.6 190.8,110.4 190.9,110.3 190.9,110.3 190.9,110.2 190.5,110.5 
		190.7,110 190.3,110.3 190.3,110.1 190.6,109.9 190.6,109.9 190.6,109.9 190.6,109.3 190.7,109.3 190.5,109 190.9,108.9 
		190.5,108.8 190.9,108.8 191,108.6 190.7,108.2 190.9,107.9 191,107.9 191,108.1 191.1,106.2 191.1,106.2 191.2,106.3 191.1,105.8 
		191.3,105.9 191.2,105.7 191.3,105.7 191.3,105.5 191.5,105.3 191.3,105.4 191.4,105.2 191.4,105 191.6,104.8 191.5,105 
		191.7,104.6 192,104.5 191.6,104.5 192,104.6 191.6,104 191.7,104.1 192.2,104 192,103.6 192.2,103.7 192,103.6 191.7,103.1 
		191.7,103.3 191.8,102.9 192.1,102.7 192,102.7 192.5,102.6 192.4,102.2 192,102 192.4,102.1 192.4,102 192,101.9 192.5,101.9 
		192.7,101.2 192.7,101.3 192.7,100.9 192.3,100.7 192.4,100.7 192.3,100.2 192.4,100.3 192.5,100 193,100.1 193,99.9 192.6,99.9 
		193,99.9 192.9,99.8 193.1,99.5 192.8,99 193,99.1 193,98.8 193.2,98.7 193.1,98.6 193,98.6 193.1,98.5 193.1,98.3 193,98.3 
		193.2,98.2 192.8,98.1 193.1,97.5 193.3,97.2 193.1,97.2 193.5,96.2 193.3,96.1 193.6,96.2 193.6,95.9 193.7,95.8 193.6,95.6 
		193.7,95.6 193.7,95.4 193.6,95.1 194,94.4 194,94.6 193.9,94.3 193.8,94.4 193.9,94.2 194,93.8 194,93.9 194.1,93.8 194,93.6 
		194.3,93.4 194.2,93.1 194.5,91.9 194.5,91.9 194.4,91.6 194.7,91.1 194.7,91.1 194.6,90.9 195.1,90.2 194.9,90.2 194.9,90 
		194.8,90 194.9,89.9 195,89.7 195.3,89.4 195.2,89.1 195.6,89.1 195.6,88.8 195.2,88.7 195.2,88.5 195.4,88.7 195.3,88.3 
		195.3,88.4 195.3,87.9 195.2,88.4 195.1,88.4 195.2,88.3 195.2,88.2 194.8,88.1 194.4,88.2 194.6,88.1 194.6,87.7 195,86.9 
		194.8,87.6 194.7,87.2 195.4,86.5 195.2,86.3 195.3,86.3 195.4,86.1 195.3,86 195.5,86.1 195.4,85.6 195.4,85.7 195.4,85.4 
		195.4,85.5 195.9,84.9 195.8,84.8 196.2,84.6 195.7,84.7 196.1,84.2 196.1,84 196.3,83.8 196.3,83.9 196.1,83.8 196.4,83.5 
		196.3,83.8 196.5,83.5 196.2,83.5 196.2,83.3 196.2,83.4 196.5,83 196.6,82.4 196.7,82.4 196.6,81.9 196.6,81.9 196.8,81.7 
		196.9,81.5 196.8,81.3 197.1,81 197,81 197.1,81 197.1,80.7 197,80.8 197,80.7 197.1,80.5 197.4,80.3 197.3,80.3 197.3,79.9 
		197.3,79.9 197.3,79.7 197.6,79.6 197.5,79.6 197.5,79.5 197.6,79.6 197.4,79.1 197.5,79.1 197.5,79.1 197.6,79.2 197.7,78.9 
		197.5,78.7 197.7,78.7 197.6,78.3 197.9,78.2 197.8,78.2 197.9,78.4 197.8,78.1 197.7,77.8 197.9,77.9 197.9,77.8 197.9,77.5 
		198,77.5 198,77.4 198,77.2 198.2,77.3 198.1,77 198.3,76.5 198.4,76.3 198.4,76 198.4,76.1 198.5,75.7 198.4,74.9 198.5,75 
		198.6,75 198.6,74.7 198.8,74.6 198.7,74.5 198.8,74.6 198.7,73.8 199.1,73.2 199,72.8 199,72.9 199,72.6 199.4,72 199.3,72.1 
		199.2,72 199.3,71.9 199.3,71 199.6,70.8 199.6,70.8 199.5,70.5 199.6,70.1 199.5,69.9 199.6,69.9 199.8,69.6 199.7,69.6 
		199.7,69.4 199.9,69.1 199.8,68.7 199.9,68.1 200.2,68 200.1,67.7 200.2,67.6 200.2,67.6 200.1,67.3 200.4,67.2 200.4,67 
		200.6,66.6 200.5,66.3 200.9,64.9 200.8,64.6 200.9,63.9 201.2,63.7 201.1,63.3 201.2,63.1 201.2,62.9 201.2,62.5 201.2,62 
		201,61.5 201,61.6 200.6,61.5 200.6,61.4 200.7,61.3 200.2,61.3 200.2,61.4 200,61.2 199.7,61.2 198.7,60.9 198.4,60.9 198.3,60.7 
		198.3,60.8 197.6,60.5 198.3,60.8 197.8,60.6 197.7,60.5 197.7,60.5 197,60.3 196.9,60.3 197.1,60.2 196.9,60.3 196.7,60.1 
		196.5,60.2 196.5,60.1 196.5,60.1 196.4,60.1 196.2,60 196.2,59.9 196.1,60 196,59.9 195.5,59.7 195.5,59.8 195.3,59.7 195,59.7 
		195,59.6 195,59.6 194.4,59.4 194.4,59.5 194.2,59.3 193.9,59.4 193.5,59.2 193.5,59.3 193.5,59.3 192.9,58.9 192.7,59.1 
		192.8,58.9 192.4,58.9 192.2,59 192.2,58.9 192.1,58.9 191.7,58.8 191.7,58.8 191.9,58.7 191.7,58.7 191.4,58.6 191.4,58.5 
		191,58.5 190.8,58.4 190.6,58.4 190.7,58.3 190.6,58.3 188.4,57.7 188.1,57.7 188.1,57.5 188.2,57.5 188,57.5 188,57.4 187.6,57.3 
		187.8,57.3 187.7,57.3 186.9,57 186.9,57 186,57 186.1,56.8 186,56.9 185.7,56.7 185.6,56.8 185.6,56.6 185.1,56.7 185,56.5 
		184.7,56.7 184.9,56.5 184.2,56.4 184.4,56.3 184.2,56.4 184.3,56.2 183.9,56.2 183.8,56.3 184,56.3 183.8,56.3 183,55.9 
		182.6,55.8 182.6,55.7 182.8,55.8 182.5,55.7 182.1,55.7 182.4,55.6 182.4,55.7 182.2,55.5 181.7,55.6 181.8,55.5 180.5,55.1 
		180.5,55.2 180.6,55 180.5,55 180.3,54.9 179.9,54.9 179.8,54.8 179.6,54.8 179.6,54.7 179.1,54.7 179.3,54.7 179.1,54.6 
		178.9,54.6 179.1,54.6 178.2,54.3 178.1,54.4 177.4,54.1 177.4,54.3 177.5,54.1 177.3,54.2 176.9,54 177,54.1 176.7,54 176.7,53.9 
		176.7,54 175.9,53.7 175.6,53.7 175.5,53.5 175.8,53.6 175.4,53.4 174.8,53.4 174.5,53.3 174.5,53.4 175,53.3 174.9,53.2 
		174.2,53.2 174.2,53.2 174,53 173.6,52.9 171.9,52.3 171.6,52.4 171.6,52.2 171.6,52.2 171.3,52.1 171.1,52.1 171.3,52.1 171,51.9 
		171.1,52 170.2,52.1 170.5,51.7 170.5,51.8 170,51.8 170.1,51.6 169.9,52 170,51.5 169.9,51.6 169.3,51.4 169.1,51.4 168.8,51.3 
		168.8,51.4 168.4,51.5 168.3,51.1 168.2,51.4 168.4,51.1 168.4,51.3 168.4,51.1 168.4,51.2 	"/>
</g>
</svg>
